0
SECTION
2
HEADER
9
$ANGDIR
70
1
9
$AUNITS
70
0
9
$PROJECTNAME
1
Probe_Schematic
9
$TDCREATE
40
2459117.85603824
9
$INSUNITS
70
4
0
ENDSEC
0
SECTION
2
ENTITIES
0
POLYLINE
66
1
8
outline
10
0.0
20
0.0
30
0.0
70
1
0
VERTEX
8
0
10
-1.27
20
101.27000000000001
30
0
0
VERTEX
8
0
10
0
20
2.54
30
0
0
VERTEX
8
0
10
62.21
20
2.54
30
0
0
VERTEX
8
0
10
60.940000000000005
20
101.27000000000001
30
0
0
VERTEX
8
0
10
-1.27
20
101.27000000000001
30
0
0
SEQEND
0
POLYLINE
66
1
8
holes
10
0.0
20
0.0
30
0.0
70
1
0
VERTEX
8
0
10
5.3975
20
55.82803125
30
0
0
VERTEX
8
0
10
5.390703125
20
55.724315625
30
0
0
VERTEX
8
0
10
5.377134375000001
20
55.621265625
30
0
0
VERTEX
8
0
10
5.356859375
20
55.519321875
30
0
0
VERTEX
8
0
10
5.32995625
20
55.418925
30
0
0
VERTEX
8
0
10
5.296546875000001
20
55.320503125
30
0
0
VERTEX
8
0
10
5.256771875
20
55.224478125000005
30
0
0
VERTEX
8
0
10
5.2108
20
55.13125625
30
0
0
VERTEX
8
0
10
5.15883125
20
55.04124375
30
0
0
VERTEX
8
0
10
5.101084375
20
54.954821875
30
0
0
VERTEX
8
0
10
5.0378125
20
54.8723625
30
0
0
VERTEX
8
0
10
4.96928125
20
54.794215625
30
0
0
VERTEX
8
0
10
4.895784375
20
54.72071875
30
0
0
VERTEX
8
0
10
4.8176375
20
54.652187500000004
30
0
0
VERTEX
8
0
10
4.735178125
20
54.588915625000006
30
0
0
VERTEX
8
0
10
4.64875625
20
54.53116875
30
0
0
VERTEX
8
0
10
4.5587437500000005
20
54.479200000000006
30
0
0
VERTEX
8
0
10
4.465521875
20
54.433228125
30
0
0
VERTEX
8
0
10
4.369496875
20
54.393453125
30
0
0
VERTEX
8
0
10
4.271075000000001
20
54.36004375
30
0
0
VERTEX
8
0
10
4.170678125
20
54.333140625000006
30
0
0
VERTEX
8
0
10
4.068734375
20
54.312865625
30
0
0
VERTEX
8
0
10
3.9656843750000004
20
54.299296875
30
0
0
VERTEX
8
0
10
3.8619687500000004
20
54.292500000000004
30
0
0
VERTEX
8
0
10
3.75803125
20
54.292500000000004
30
0
0
VERTEX
8
0
10
3.654315625
20
54.299296875
30
0
0
VERTEX
8
0
10
3.551265625
20
54.312865625
30
0
0
VERTEX
8
0
10
3.4493218750000003
20
54.333140625000006
30
0
0
VERTEX
8
0
10
3.3489250000000004
20
54.36004375
30
0
0
VERTEX
8
0
10
3.2505031250000003
20
54.393453125
30
0
0
VERTEX
8
0
10
3.1544781250000002
20
54.433228125
30
0
0
VERTEX
8
0
10
3.06125625
20
54.479200000000006
30
0
0
VERTEX
8
0
10
2.97124375
20
54.53116875
30
0
0
VERTEX
8
0
10
2.884821875
20
54.588915625000006
30
0
0
VERTEX
8
0
10
2.8023625
20
54.652187500000004
30
0
0
VERTEX
8
0
10
2.7242156250000003
20
54.72071875
30
0
0
VERTEX
8
0
10
2.6507187500000002
20
54.794215625
30
0
0
VERTEX
8
0
10
2.5821875000000003
20
54.8723625
30
0
0
VERTEX
8
0
10
2.518915625
20
54.954821875
30
0
0
VERTEX
8
0
10
2.46116875
20
55.04124375
30
0
0
VERTEX
8
0
10
2.4092000000000002
20
55.13125625
30
0
0
VERTEX
8
0
10
2.363228125
20
55.224478125000005
30
0
0
VERTEX
8
0
10
2.323453125
20
55.320503125
30
0
0
VERTEX
8
0
10
2.29004375
20
55.418925
30
0
0
VERTEX
8
0
10
2.263140625
20
55.519321875
30
0
0
VERTEX
8
0
10
2.2428656250000003
20
55.621265625
30
0
0
VERTEX
8
0
10
2.229296875
20
55.724315625
30
0
0
VERTEX
8
0
10
2.2225
20
55.82803125
30
0
0
VERTEX
8
0
10
2.2225
20
55.93196875
30
0
0
VERTEX
8
0
10
2.229296875
20
56.035684375
30
0
0
VERTEX
8
0
10
2.2428656250000003
20
56.138734375000006
30
0
0
VERTEX
8
0
10
2.263140625
20
56.240678125
30
0
0
VERTEX
8
0
10
2.29004375
20
56.341075000000004
30
0
0
VERTEX
8
0
10
2.323453125
20
56.439496875
30
0
0
VERTEX
8
0
10
2.363228125
20
56.535521875
30
0
0
VERTEX
8
0
10
2.4092000000000002
20
56.628743750000005
30
0
0
VERTEX
8
0
10
2.46116875
20
56.718756250000006
30
0
0
VERTEX
8
0
10
2.518915625
20
56.805178125000005
30
0
0
VERTEX
8
0
10
2.5821875000000003
20
56.887637500000004
30
0
0
VERTEX
8
0
10
2.6507187500000002
20
56.965784375000005
30
0
0
VERTEX
8
0
10
2.7242156250000003
20
57.03928125
30
0
0
VERTEX
8
0
10
2.8023625
20
57.1078125
30
0
0
VERTEX
8
0
10
2.884821875
20
57.171084375
30
0
0
VERTEX
8
0
10
2.97124375
20
57.228831250000006
30
0
0
VERTEX
8
0
10
3.06125625
20
57.2808
30
0
0
VERTEX
8
0
10
3.1544781250000002
20
57.326771875000006
30
0
0
VERTEX
8
0
10
3.2505031250000003
20
57.366546875000004
30
0
0
VERTEX
8
0
10
3.3489250000000004
20
57.39995625
30
0
0
VERTEX
8
0
10
3.4493218750000003
20
57.426859375
30
0
0
VERTEX
8
0
10
3.551265625
20
57.447134375000005
30
0
0
VERTEX
8
0
10
3.654315625
20
57.460703125
30
0
0
VERTEX
8
0
10
3.75803125
20
57.4675
30
0
0
VERTEX
8
0
10
3.8619687500000004
20
57.4675
30
0
0
VERTEX
8
0
10
3.9656843750000004
20
57.460703125
30
0
0
VERTEX
8
0
10
4.068734375
20
57.447134375000005
30
0
0
VERTEX
8
0
10
4.170678125
20
57.426859375
30
0
0
VERTEX
8
0
10
4.271075000000001
20
57.39995625
30
0
0
VERTEX
8
0
10
4.369496875
20
57.366546875000004
30
0
0
VERTEX
8
0
10
4.465521875
20
57.326771875000006
30
0
0
VERTEX
8
0
10
4.5587437500000005
20
57.2808
30
0
0
VERTEX
8
0
10
4.64875625
20
57.228831250000006
30
0
0
VERTEX
8
0
10
4.735178125
20
57.171084375
30
0
0
VERTEX
8
0
10
4.8176375
20
57.1078125
30
0
0
VERTEX
8
0
10
4.895784375
20
57.03928125
30
0
0
VERTEX
8
0
10
4.96928125
20
56.965784375000005
30
0
0
VERTEX
8
0
10
5.0378125
20
56.887637500000004
30
0
0
VERTEX
8
0
10
5.101084375
20
56.805178125000005
30
0
0
VERTEX
8
0
10
5.15883125
20
56.718756250000006
30
0
0
VERTEX
8
0
10
5.2108
20
56.628743750000005
30
0
0
VERTEX
8
0
10
5.256771875
20
56.535521875
30
0
0
VERTEX
8
0
10
5.296546875000001
20
56.439496875
30
0
0
VERTEX
8
0
10
5.32995625
20
56.341075000000004
30
0
0
VERTEX
8
0
10
5.356859375
20
56.240678125
30
0
0
VERTEX
8
0
10
5.377134375000001
20
56.138734375000006
30
0
0
VERTEX
8
0
10
5.390703125
20
56.035684375
30
0
0
VERTEX
8
0
10
5.3975
20
55.93196875
30
0
0
VERTEX
8
0
10
5.3975
20
55.82803125
30
0
0
SEQEND
0
POLYLINE
66
1
8
holes
10
0.0
20
0.0
30
0.0
70
1
0
VERTEX
8
0
10
56.197500000000005
20
40.58803125
30
0
0
VERTEX
8
0
10
56.190703125000006
20
40.484315625
30
0
0
VERTEX
8
0
10
56.177134375
20
40.381265625000005
30
0
0
VERTEX
8
0
10
56.156859375
20
40.279321875
30
0
0
VERTEX
8
0
10
56.12995625
20
40.178925
30
0
0
VERTEX
8
0
10
56.096546875
20
40.080503125
30
0
0
VERTEX
8
0
10
56.056771875
20
39.984478125
30
0
0
VERTEX
8
0
10
56.0108
20
39.891256250000005
30
0
0
VERTEX
8
0
10
55.95883125
20
39.801243750000005
30
0
0
VERTEX
8
0
10
55.901084375
20
39.714821875
30
0
0
VERTEX
8
0
10
55.837812500000005
20
39.6323625
30
0
0
VERTEX
8
0
10
55.769281250000006
20
39.554215625000005
30
0
0
VERTEX
8
0
10
55.695784375
20
39.48071875
30
0
0
VERTEX
8
0
10
55.6176375
20
39.4121875
30
0
0
VERTEX
8
0
10
55.535178125
20
39.348915625000004
30
0
0
VERTEX
8
0
10
55.44875625
20
39.291168750000004
30
0
0
VERTEX
8
0
10
55.35874375
20
39.239200000000004
30
0
0
VERTEX
8
0
10
55.265521875000005
20
39.193228125000005
30
0
0
VERTEX
8
0
10
55.169496875
20
39.153453125
30
0
0
VERTEX
8
0
10
55.071075
20
39.12004375
30
0
0
VERTEX
8
0
10
54.970678125
20
39.093140625000004
30
0
0
VERTEX
8
0
10
54.868734375
20
39.072865625
30
0
0
VERTEX
8
0
10
54.765684375
20
39.059296875
30
0
0
VERTEX
8
0
10
54.66196875
20
39.0525
30
0
0
VERTEX
8
0
10
54.55803125
20
39.0525
30
0
0
VERTEX
8
0
10
54.454315625
20
39.059296875
30
0
0
VERTEX
8
0
10
54.351265625
20
39.072865625
30
0
0
VERTEX
8
0
10
54.249321875
20
39.093140625000004
30
0
0
VERTEX
8
0
10
54.148925000000006
20
39.12004375
30
0
0
VERTEX
8
0
10
54.050503125000006
20
39.153453125
30
0
0
VERTEX
8
0
10
53.954478125
20
39.193228125000005
30
0
0
VERTEX
8
0
10
53.861256250000004
20
39.239200000000004
30
0
0
VERTEX
8
0
10
53.771243750000004
20
39.291168750000004
30
0
0
VERTEX
8
0
10
53.684821875000004
20
39.348915625000004
30
0
0
VERTEX
8
0
10
53.602362500000005
20
39.4121875
30
0
0
VERTEX
8
0
10
53.524215625000004
20
39.48071875
30
0
0
VERTEX
8
0
10
53.45071875
20
39.554215625000005
30
0
0
VERTEX
8
0
10
53.3821875
20
39.6323625
30
0
0
VERTEX
8
0
10
53.318915625
20
39.714821875
30
0
0
VERTEX
8
0
10
53.26116875
20
39.801243750000005
30
0
0
VERTEX
8
0
10
53.2092
20
39.891256250000005
30
0
0
VERTEX
8
0
10
53.163228125
20
39.984478125
30
0
0
VERTEX
8
0
10
53.123453125000005
20
40.080503125
30
0
0
VERTEX
8
0
10
53.09004375
20
40.178925
30
0
0
VERTEX
8
0
10
53.063140625
20
40.279321875
30
0
0
VERTEX
8
0
10
53.042865625000005
20
40.381265625000005
30
0
0
VERTEX
8
0
10
53.029296875
20
40.484315625
30
0
0
VERTEX
8
0
10
53.0225
20
40.58803125
30
0
0
VERTEX
8
0
10
53.0225
20
40.69196875
30
0
0
VERTEX
8
0
10
53.029296875
20
40.795684375
30
0
0
VERTEX
8
0
10
53.042865625000005
20
40.898734375000004
30
0
0
VERTEX
8
0
10
53.063140625
20
41.000678125
30
0
0
VERTEX
8
0
10
53.09004375
20
41.101075
30
0
0
VERTEX
8
0
10
53.123453125000005
20
41.199496875
30
0
0
VERTEX
8
0
10
53.163228125
20
41.295521875
30
0
0
VERTEX
8
0
10
53.2092
20
41.38874375
30
0
0
VERTEX
8
0
10
53.26116875
20
41.47875625
30
0
0
VERTEX
8
0
10
53.318915625
20
41.565178125
30
0
0
VERTEX
8
0
10
53.3821875
20
41.6476375
30
0
0
VERTEX
8
0
10
53.45071875
20
41.725784375
30
0
0
VERTEX
8
0
10
53.524215625000004
20
41.79928125
30
0
0
VERTEX
8
0
10
53.602362500000005
20
41.8678125
30
0
0
VERTEX
8
0
10
53.684821875000004
20
41.931084375000005
30
0
0
VERTEX
8
0
10
53.771243750000004
20
41.988831250000004
30
0
0
VERTEX
8
0
10
53.861256250000004
20
42.040800000000004
30
0
0
VERTEX
8
0
10
53.954478125
20
42.086771875000004
30
0
0
VERTEX
8
0
10
54.050503125000006
20
42.126546875
30
0
0
VERTEX
8
0
10
54.148925000000006
20
42.15995625
30
0
0
VERTEX
8
0
10
54.249321875
20
42.186859375000004
30
0
0
VERTEX
8
0
10
54.351265625
20
42.207134375
30
0
0
VERTEX
8
0
10
54.454315625
20
42.220703125
30
0
0
VERTEX
8
0
10
54.55803125
20
42.2275
30
0
0
VERTEX
8
0
10
54.66196875
20
42.2275
30
0
0
VERTEX
8
0
10
54.765684375
20
42.220703125
30
0
0
VERTEX
8
0
10
54.868734375
20
42.207134375
30
0
0
VERTEX
8
0
10
54.970678125
20
42.186859375000004
30
0
0
VERTEX
8
0
10
55.071075
20
42.15995625
30
0
0
VERTEX
8
0
10
55.169496875
20
42.126546875
30
0
0
VERTEX
8
0
10
55.265521875000005
20
42.086771875000004
30
0
0
VERTEX
8
0
10
55.35874375
20
42.040800000000004
30
0
0
VERTEX
8
0
10
55.44875625
20
41.988831250000004
30
0
0
VERTEX
8
0
10
55.535178125
20
41.931084375000005
30
0
0
VERTEX
8
0
10
55.6176375
20
41.8678125
30
0
0
VERTEX
8
0
10
55.695784375
20
41.79928125
30
0
0
VERTEX
8
0
10
55.769281250000006
20
41.725784375
30
0
0
VERTEX
8
0
10
55.837812500000005
20
41.6476375
30
0
0
VERTEX
8
0
10
55.901084375
20
41.565178125
30
0
0
VERTEX
8
0
10
55.95883125
20
41.47875625
30
0
0
VERTEX
8
0
10
56.0108
20
41.38874375
30
0
0
VERTEX
8
0
10
56.056771875
20
41.295521875
30
0
0
VERTEX
8
0
10
56.096546875
20
41.199496875
30
0
0
VERTEX
8
0
10
56.12995625
20
41.101075
30
0
0
VERTEX
8
0
10
56.156859375
20
41.000678125
30
0
0
VERTEX
8
0
10
56.177134375
20
40.898734375000004
30
0
0
VERTEX
8
0
10
56.190703125000006
20
40.795684375
30
0
0
VERTEX
8
0
10
56.197500000000005
20
40.69196875
30
0
0
VERTEX
8
0
10
56.197500000000005
20
40.58803125
30
0
0
SEQEND
0
POLYLINE
66
1
8
holes
10
0.0
20
0.0
30
0.0
70
1
0
VERTEX
8
0
10
56.197500000000005
20
12.64803125
30
0
0
VERTEX
8
0
10
56.190703125000006
20
12.544315625000001
30
0
0
VERTEX
8
0
10
56.177134375
20
12.441265625
30
0
0
VERTEX
8
0
10
56.156859375
20
12.339321875000001
30
0
0
VERTEX
8
0
10
56.12995625
20
12.238925
30
0
0
VERTEX
8
0
10
56.096546875
20
12.140503125
30
0
0
VERTEX
8
0
10
56.056771875
20
12.044478125000001
30
0
0
VERTEX
8
0
10
56.0108
20
11.95125625
30
0
0
VERTEX
8
0
10
55.95883125
20
11.86124375
30
0
0
VERTEX
8
0
10
55.901084375
20
11.774821875
30
0
0
VERTEX
8
0
10
55.837812500000005
20
11.6923625
30
0
0
VERTEX
8
0
10
55.769281250000006
20
11.614215625
30
0
0
VERTEX
8
0
10
55.695784375
20
11.54071875
30
0
0
VERTEX
8
0
10
55.6176375
20
11.4721875
30
0
0
VERTEX
8
0
10
55.535178125
20
11.408915625
30
0
0
VERTEX
8
0
10
55.44875625
20
11.351168750000001
30
0
0
VERTEX
8
0
10
55.35874375
20
11.2992
30
0
0
VERTEX
8
0
10
55.265521875000005
20
11.253228125
30
0
0
VERTEX
8
0
10
55.169496875
20
11.213453125000001
30
0
0
VERTEX
8
0
10
55.071075
20
11.180043750000001
30
0
0
VERTEX
8
0
10
54.970678125
20
11.153140625
30
0
0
VERTEX
8
0
10
54.868734375
20
11.132865625
30
0
0
VERTEX
8
0
10
54.765684375
20
11.119296875
30
0
0
VERTEX
8
0
10
54.66196875
20
11.1125
30
0
0
VERTEX
8
0
10
54.55803125
20
11.1125
30
0
0
VERTEX
8
0
10
54.454315625
20
11.119296875
30
0
0
VERTEX
8
0
10
54.351265625
20
11.132865625
30
0
0
VERTEX
8
0
10
54.249321875
20
11.153140625
30
0
0
VERTEX
8
0
10
54.148925000000006
20
11.180043750000001
30
0
0
VERTEX
8
0
10
54.050503125000006
20
11.213453125000001
30
0
0
VERTEX
8
0
10
53.954478125
20
11.253228125
30
0
0
VERTEX
8
0
10
53.861256250000004
20
11.2992
30
0
0
VERTEX
8
0
10
53.771243750000004
20
11.351168750000001
30
0
0
VERTEX
8
0
10
53.684821875000004
20
11.408915625
30
0
0
VERTEX
8
0
10
53.602362500000005
20
11.4721875
30
0
0
VERTEX
8
0
10
53.524215625000004
20
11.54071875
30
0
0
VERTEX
8
0
10
53.45071875
20
11.614215625
30
0
0
VERTEX
8
0
10
53.3821875
20
11.6923625
30
0
0
VERTEX
8
0
10
53.318915625
20
11.774821875
30
0
0
VERTEX
8
0
10
53.26116875
20
11.86124375
30
0
0
VERTEX
8
0
10
53.2092
20
11.95125625
30
0
0
VERTEX
8
0
10
53.163228125
20
12.044478125000001
30
0
0
VERTEX
8
0
10
53.123453125000005
20
12.140503125
30
0
0
VERTEX
8
0
10
53.09004375
20
12.238925
30
0
0
VERTEX
8
0
10
53.063140625
20
12.339321875000001
30
0
0
VERTEX
8
0
10
53.042865625000005
20
12.441265625
30
0
0
VERTEX
8
0
10
53.029296875
20
12.544315625000001
30
0
0
VERTEX
8
0
10
53.0225
20
12.64803125
30
0
0
VERTEX
8
0
10
53.0225
20
12.751968750000001
30
0
0
VERTEX
8
0
10
53.029296875
20
12.855684375000001
30
0
0
VERTEX
8
0
10
53.042865625000005
20
12.958734375
30
0
0
VERTEX
8
0
10
53.063140625
20
13.060678125
30
0
0
VERTEX
8
0
10
53.09004375
20
13.161075
30
0
0
VERTEX
8
0
10
53.123453125000005
20
13.259496875
30
0
0
VERTEX
8
0
10
53.163228125
20
13.355521875
30
0
0
VERTEX
8
0
10
53.2092
20
13.44874375
30
0
0
VERTEX
8
0
10
53.26116875
20
13.53875625
30
0
0
VERTEX
8
0
10
53.318915625
20
13.625178125000001
30
0
0
VERTEX
8
0
10
53.3821875
20
13.7076375
30
0
0
VERTEX
8
0
10
53.45071875
20
13.785784375
30
0
0
VERTEX
8
0
10
53.524215625000004
20
13.85928125
30
0
0
VERTEX
8
0
10
53.602362500000005
20
13.9278125
30
0
0
VERTEX
8
0
10
53.684821875000004
20
13.991084375
30
0
0
VERTEX
8
0
10
53.771243750000004
20
14.048831250000001
30
0
0
VERTEX
8
0
10
53.861256250000004
20
14.100800000000001
30
0
0
VERTEX
8
0
10
53.954478125
20
14.146771875
30
0
0
VERTEX
8
0
10
54.050503125000006
20
14.186546875000001
30
0
0
VERTEX
8
0
10
54.148925000000006
20
14.219956250000001
30
0
0
VERTEX
8
0
10
54.249321875
20
14.246859375000001
30
0
0
VERTEX
8
0
10
54.351265625
20
14.267134375000001
30
0
0
VERTEX
8
0
10
54.454315625
20
14.280703125
30
0
0
VERTEX
8
0
10
54.55803125
20
14.287500000000001
30
0
0
VERTEX
8
0
10
54.66196875
20
14.287500000000001
30
0
0
VERTEX
8
0
10
54.765684375
20
14.280703125
30
0
0
VERTEX
8
0
10
54.868734375
20
14.267134375000001
30
0
0
VERTEX
8
0
10
54.970678125
20
14.246859375000001
30
0
0
VERTEX
8
0
10
55.071075
20
14.219956250000001
30
0
0
VERTEX
8
0
10
55.169496875
20
14.186546875000001
30
0
0
VERTEX
8
0
10
55.265521875000005
20
14.146771875
30
0
0
VERTEX
8
0
10
55.35874375
20
14.100800000000001
30
0
0
VERTEX
8
0
10
55.44875625
20
14.048831250000001
30
0
0
VERTEX
8
0
10
55.535178125
20
13.991084375
30
0
0
VERTEX
8
0
10
55.6176375
20
13.9278125
30
0
0
VERTEX
8
0
10
55.695784375
20
13.85928125
30
0
0
VERTEX
8
0
10
55.769281250000006
20
13.785784375
30
0
0
VERTEX
8
0
10
55.837812500000005
20
13.7076375
30
0
0
VERTEX
8
0
10
55.901084375
20
13.625178125000001
30
0
0
VERTEX
8
0
10
55.95883125
20
13.53875625
30
0
0
VERTEX
8
0
10
56.0108
20
13.44874375
30
0
0
VERTEX
8
0
10
56.056771875
20
13.355521875
30
0
0
VERTEX
8
0
10
56.096546875
20
13.259496875
30
0
0
VERTEX
8
0
10
56.12995625
20
13.161075
30
0
0
VERTEX
8
0
10
56.156859375
20
13.060678125
30
0
0
VERTEX
8
0
10
56.177134375
20
12.958734375
30
0
0
VERTEX
8
0
10
56.190703125000006
20
12.855684375000001
30
0
0
VERTEX
8
0
10
56.197500000000005
20
12.751968750000001
30
0
0
VERTEX
8
0
10
56.197500000000005
20
12.64803125
30
0
0
SEQEND
0
POLYLINE
66
1
8
holes
10
0.0
20
0.0
30
0.0
70
1
0
VERTEX
8
0
10
4.1275
20
7.568031250000001
30
0
0
VERTEX
8
0
10
4.120703125
20
7.464315625
30
0
0
VERTEX
8
0
10
4.107134375
20
7.361265625000001
30
0
0
VERTEX
8
0
10
4.086859375
20
7.259321875
30
0
0
VERTEX
8
0
10
4.05995625
20
7.158925
30
0
0
VERTEX
8
0
10
4.026546875
20
7.060503125
30
0
0
VERTEX
8
0
10
3.986771875
20
6.964478125
30
0
0
VERTEX
8
0
10
3.9408000000000003
20
6.87125625
30
0
0
VERTEX
8
0
10
3.8888312500000004
20
6.781243750000001
30
0
0
VERTEX
8
0
10
3.831084375
20
6.694821875000001
30
0
0
VERTEX
8
0
10
3.7678125000000002
20
6.612362500000001
30
0
0
VERTEX
8
0
10
3.6992812500000003
20
6.534215625000001
30
0
0
VERTEX
8
0
10
3.6257843750000003
20
6.460718750000001
30
0
0
VERTEX
8
0
10
3.5476375
20
6.3921875
30
0
0
VERTEX
8
0
10
3.465178125
20
6.3289156250000005
30
0
0
VERTEX
8
0
10
3.3787562500000003
20
6.27116875
30
0
0
VERTEX
8
0
10
3.28874375
20
6.219200000000001
30
0
0
VERTEX
8
0
10
3.1955218750000003
20
6.1732281250000005
30
0
0
VERTEX
8
0
10
3.0994968750000003
20
6.133453125
30
0
0
VERTEX
8
0
10
3.001075
20
6.10004375
30
0
0
VERTEX
8
0
10
2.900678125
20
6.073140625000001
30
0
0
VERTEX
8
0
10
2.798734375
20
6.052865625
30
0
0
VERTEX
8
0
10
2.695684375
20
6.039296875000001
30
0
0
VERTEX
8
0
10
2.59196875
20
6.032500000000001
30
0
0
VERTEX
8
0
10
2.48803125
20
6.032500000000001
30
0
0
VERTEX
8
0
10
2.384315625
20
6.039296875000001
30
0
0
VERTEX
8
0
10
2.281265625
20
6.052865625
30
0
0
VERTEX
8
0
10
2.1793218750000003
20
6.073140625000001
30
0
0
VERTEX
8
0
10
2.078925
20
6.10004375
30
0
0
VERTEX
8
0
10
1.980503125
20
6.133453125
30
0
0
VERTEX
8
0
10
1.884478125
20
6.1732281250000005
30
0
0
VERTEX
8
0
10
1.79125625
20
6.219200000000001
30
0
0
VERTEX
8
0
10
1.7012437500000002
20
6.27116875
30
0
0
VERTEX
8
0
10
1.614821875
20
6.3289156250000005
30
0
0
VERTEX
8
0
10
1.5323625
20
6.3921875
30
0
0
VERTEX
8
0
10
1.454215625
20
6.460718750000001
30
0
0
VERTEX
8
0
10
1.38071875
20
6.534215625000001
30
0
0
VERTEX
8
0
10
1.3121875
20
6.612362500000001
30
0
0
VERTEX
8
0
10
1.248915625
20
6.694821875000001
30
0
0
VERTEX
8
0
10
1.19116875
20
6.781243750000001
30
0
0
VERTEX
8
0
10
1.1392
20
6.87125625
30
0
0
VERTEX
8
0
10
1.093228125
20
6.964478125
30
0
0
VERTEX
8
0
10
1.053453125
20
7.060503125
30
0
0
VERTEX
8
0
10
1.0200437500000001
20
7.158925
30
0
0
VERTEX
8
0
10
0.993140625
20
7.259321875
30
0
0
VERTEX
8
0
10
0.9728656250000001
20
7.361265625000001
30
0
0
VERTEX
8
0
10
0.959296875
20
7.464315625
30
0
0
VERTEX
8
0
10
0.9525
20
7.568031250000001
30
0
0
VERTEX
8
0
10
0.9525
20
7.6719687500000004
30
0
0
VERTEX
8
0
10
0.959296875
20
7.775684375
30
0
0
VERTEX
8
0
10
0.9728656250000001
20
7.8787343750000005
30
0
0
VERTEX
8
0
10
0.993140625
20
7.980678125000001
30
0
0
VERTEX
8
0
10
1.0200437500000001
20
8.081075
30
0
0
VERTEX
8
0
10
1.053453125
20
8.179496875
30
0
0
VERTEX
8
0
10
1.093228125
20
8.275521875
30
0
0
VERTEX
8
0
10
1.1392
20
8.36874375
30
0
0
VERTEX
8
0
10
1.19116875
20
8.45875625
30
0
0
VERTEX
8
0
10
1.248915625
20
8.545178125
30
0
0
VERTEX
8
0
10
1.3121875
20
8.6276375
30
0
0
VERTEX
8
0
10
1.38071875
20
8.705784375
30
0
0
VERTEX
8
0
10
1.454215625
20
8.77928125
30
0
0
VERTEX
8
0
10
1.5323625
20
8.8478125
30
0
0
VERTEX
8
0
10
1.614821875
20
8.911084375
30
0
0
VERTEX
8
0
10
1.7012437500000002
20
8.968831250000001
30
0
0
VERTEX
8
0
10
1.79125625
20
9.020800000000001
30
0
0
VERTEX
8
0
10
1.884478125
20
9.066771875
30
0
0
VERTEX
8
0
10
1.980503125
20
9.106546875000001
30
0
0
VERTEX
8
0
10
2.078925
20
9.139956250000001
30
0
0
VERTEX
8
0
10
2.1793218750000003
20
9.166859375
30
0
0
VERTEX
8
0
10
2.281265625
20
9.187134375000001
30
0
0
VERTEX
8
0
10
2.384315625
20
9.200703125
30
0
0
VERTEX
8
0
10
2.48803125
20
9.2075
30
0
0
VERTEX
8
0
10
2.59196875
20
9.2075
30
0
0
VERTEX
8
0
10
2.695684375
20
9.200703125
30
0
0
VERTEX
8
0
10
2.798734375
20
9.187134375000001
30
0
0
VERTEX
8
0
10
2.900678125
20
9.166859375
30
0
0
VERTEX
8
0
10
3.001075
20
9.139956250000001
30
0
0
VERTEX
8
0
10
3.0994968750000003
20
9.106546875000001
30
0
0
VERTEX
8
0
10
3.1955218750000003
20
9.066771875
30
0
0
VERTEX
8
0
10
3.28874375
20
9.020800000000001
30
0
0
VERTEX
8
0
10
3.3787562500000003
20
8.968831250000001
30
0
0
VERTEX
8
0
10
3.465178125
20
8.911084375
30
0
0
VERTEX
8
0
10
3.5476375
20
8.8478125
30
0
0
VERTEX
8
0
10
3.6257843750000003
20
8.77928125
30
0
0
VERTEX
8
0
10
3.6992812500000003
20
8.705784375
30
0
0
VERTEX
8
0
10
3.7678125000000002
20
8.6276375
30
0
0
VERTEX
8
0
10
3.831084375
20
8.545178125
30
0
0
VERTEX
8
0
10
3.8888312500000004
20
8.45875625
30
0
0
VERTEX
8
0
10
3.9408000000000003
20
8.36874375
30
0
0
VERTEX
8
0
10
3.986771875
20
8.275521875
30
0
0
VERTEX
8
0
10
4.026546875
20
8.179496875
30
0
0
VERTEX
8
0
10
4.05995625
20
8.081075
30
0
0
VERTEX
8
0
10
4.086859375
20
7.980678125000001
30
0
0
VERTEX
8
0
10
4.107134375
20
7.8787343750000005
30
0
0
VERTEX
8
0
10
4.120703125
20
7.775684375
30
0
0
VERTEX
8
0
10
4.1275
20
7.6719687500000004
30
0
0
VERTEX
8
0
10
4.1275
20
7.568031250000001
30
0
0
SEQEND
0
POLYLINE
66
1
8
holes
10
0.0
20
0.0
30
0.0
70
1
0
VERTEX
8
0
10
38.43
20
90.117621875
30
0
0
VERTEX
8
0
10
38.42315
20
90.0130875
30
0
0
VERTEX
8
0
10
38.409475
20
89.909228125
30
0
0
VERTEX
8
0
10
38.3890375
20
89.80648437500001
30
0
0
VERTEX
8
0
10
38.361925
20
89.705296875
30
0
0
VERTEX
8
0
10
38.328253125
20
89.606096875
30
0
0
VERTEX
8
0
10
38.2881625
20
89.509315625
30
0
0
VERTEX
8
0
10
38.241831250000004
20
89.4153625
30
0
0
VERTEX
8
0
10
38.18945
20
89.32463750000001
30
0
0
VERTEX
8
0
10
38.13125
20
89.2375375
30
0
0
VERTEX
8
0
10
38.067478125
20
89.15442812500001
30
0
0
VERTEX
8
0
10
37.998409375
20
89.075665625
30
0
0
VERTEX
8
0
10
37.924334375
20
89.001590625
30
0
0
VERTEX
8
0
10
37.845571875000005
20
88.932521875
30
0
0
VERTEX
8
0
10
37.762462500000005
20
88.86875
30
0
0
VERTEX
8
0
10
37.6753625
20
88.81055
30
0
0
VERTEX
8
0
10
37.5846375
20
88.75816875000001
30
0
0
VERTEX
8
0
10
37.490684375
20
88.7118375
30
0
0
VERTEX
8
0
10
37.393903125
20
88.67174687500001
30
0
0
VERTEX
8
0
10
37.294703125000005
20
88.638075
30
0
0
VERTEX
8
0
10
37.193515625
20
88.6109625
30
0
0
VERTEX
8
0
10
37.090771875
20
88.590525
30
0
0
VERTEX
8
0
10
36.9869125
20
88.57685000000001
30
0
0
VERTEX
8
0
10
36.882378125
20
88.57000000000001
30
0
0
VERTEX
8
0
10
36.777621875
20
88.57000000000001
30
0
0
VERTEX
8
0
10
36.6730875
20
88.57685000000001
30
0
0
VERTEX
8
0
10
36.569228125
20
88.590525
30
0
0
VERTEX
8
0
10
36.466484375
20
88.6109625
30
0
0
VERTEX
8
0
10
36.365296875
20
88.638075
30
0
0
VERTEX
8
0
10
36.266096875
20
88.67174687500001
30
0
0
VERTEX
8
0
10
36.169315625
20
88.7118375
30
0
0
VERTEX
8
0
10
36.075362500000004
20
88.75816875000001
30
0
0
VERTEX
8
0
10
35.984637500000005
20
88.81055
30
0
0
VERTEX
8
0
10
35.8975375
20
88.86875
30
0
0
VERTEX
8
0
10
35.814428125
20
88.932521875
30
0
0
VERTEX
8
0
10
35.735665625
20
89.001590625
30
0
0
VERTEX
8
0
10
35.661590625
20
89.075665625
30
0
0
VERTEX
8
0
10
35.592521875
20
89.15442812500001
30
0
0
VERTEX
8
0
10
35.52875
20
89.2375375
30
0
0
VERTEX
8
0
10
35.47055
20
89.32463750000001
30
0
0
VERTEX
8
0
10
35.41816875
20
89.4153625
30
0
0
VERTEX
8
0
10
35.371837500000005
20
89.509315625
30
0
0
VERTEX
8
0
10
35.331746875
20
89.606096875
30
0
0
VERTEX
8
0
10
35.298075000000004
20
89.705296875
30
0
0
VERTEX
8
0
10
35.2709625
20
89.80648437500001
30
0
0
VERTEX
8
0
10
35.250525
20
89.909228125
30
0
0
VERTEX
8
0
10
35.236850000000004
20
90.0130875
30
0
0
VERTEX
8
0
10
35.230000000000004
20
90.117621875
30
0
0
VERTEX
8
0
10
35.230000000000004
20
90.222378125
30
0
0
VERTEX
8
0
10
35.236850000000004
20
90.3269125
30
0
0
VERTEX
8
0
10
35.250525
20
90.430771875
30
0
0
VERTEX
8
0
10
35.2709625
20
90.533515625
30
0
0
VERTEX
8
0
10
35.298075000000004
20
90.634703125
30
0
0
VERTEX
8
0
10
35.331746875
20
90.733903125
30
0
0
VERTEX
8
0
10
35.371837500000005
20
90.830684375
30
0
0
VERTEX
8
0
10
35.41816875
20
90.9246375
30
0
0
VERTEX
8
0
10
35.47055
20
91.01536250000001
30
0
0
VERTEX
8
0
10
35.52875
20
91.1024625
30
0
0
VERTEX
8
0
10
35.592521875
20
91.18557187500001
30
0
0
VERTEX
8
0
10
35.661590625
20
91.264334375
30
0
0
VERTEX
8
0
10
35.735665625
20
91.338409375
30
0
0
VERTEX
8
0
10
35.814428125
20
91.40747812500001
30
0
0
VERTEX
8
0
10
35.8975375
20
91.47125
30
0
0
VERTEX
8
0
10
35.984637500000005
20
91.52945000000001
30
0
0
VERTEX
8
0
10
36.075362500000004
20
91.58183125000001
30
0
0
VERTEX
8
0
10
36.169315625
20
91.6281625
30
0
0
VERTEX
8
0
10
36.266096875
20
91.668253125
30
0
0
VERTEX
8
0
10
36.365296875
20
91.701925
30
0
0
VERTEX
8
0
10
36.466484375
20
91.7290375
30
0
0
VERTEX
8
0
10
36.569228125
20
91.749475
30
0
0
VERTEX
8
0
10
36.6730875
20
91.76315000000001
30
0
0
VERTEX
8
0
10
36.777621875
20
91.77000000000001
30
0
0
VERTEX
8
0
10
36.882378125
20
91.77000000000001
30
0
0
VERTEX
8
0
10
36.9869125
20
91.76315000000001
30
0
0
VERTEX
8
0
10
37.090771875
20
91.749475
30
0
0
VERTEX
8
0
10
37.193515625
20
91.7290375
30
0
0
VERTEX
8
0
10
37.294703125000005
20
91.701925
30
0
0
VERTEX
8
0
10
37.393903125
20
91.668253125
30
0
0
VERTEX
8
0
10
37.490684375
20
91.6281625
30
0
0
VERTEX
8
0
10
37.5846375
20
91.58183125000001
30
0
0
VERTEX
8
0
10
37.6753625
20
91.52945000000001
30
0
0
VERTEX
8
0
10
37.762462500000005
20
91.47125
30
0
0
VERTEX
8
0
10
37.845571875000005
20
91.40747812500001
30
0
0
VERTEX
8
0
10
37.924334375
20
91.338409375
30
0
0
VERTEX
8
0
10
37.998409375
20
91.264334375
30
0
0
VERTEX
8
0
10
38.067478125
20
91.18557187500001
30
0
0
VERTEX
8
0
10
38.13125
20
91.1024625
30
0
0
VERTEX
8
0
10
38.18945
20
91.01536250000001
30
0
0
VERTEX
8
0
10
38.241831250000004
20
90.9246375
30
0
0
VERTEX
8
0
10
38.2881625
20
90.830684375
30
0
0
VERTEX
8
0
10
38.328253125
20
90.733903125
30
0
0
VERTEX
8
0
10
38.361925
20
90.634703125
30
0
0
VERTEX
8
0
10
38.3890375
20
90.533515625
30
0
0
VERTEX
8
0
10
38.409475
20
90.430771875
30
0
0
VERTEX
8
0
10
38.42315
20
90.3269125
30
0
0
VERTEX
8
0
10
38.43
20
90.222378125
30
0
0
VERTEX
8
0
10
38.43
20
90.117621875
30
0
0
SEQEND
0
POLYLINE
66
1
8
1_copper
10
0.0
20
0.0
30
0.0
70
1
0
VERTEX
8
0
10
7.104
20
91.559
30
0
0
VERTEX
8
0
10
5.596
20
91.559
30
0
0
VERTEX
8
0
10
5.596
20
90.051
30
0
0
VERTEX
8
0
10
7.104
20
90.051
30
0
0
SEQEND
0
POLYLINE
66
1
8
1_copper
10
0.0
20
0.0
30
0.0
70
1
0
VERTEX
8
0
10
57.269000000000005
20
89.65400000000001
30
0
0
VERTEX
8
0
10
55.761
20
89.65400000000001
30
0
0
VERTEX
8
0
10
55.761
20
88.146
30
0
0
VERTEX
8
0
10
57.269000000000005
20
88.146
30
0
0
SEQEND
0
POLYLINE
66
1
8
1_copper
10
0.0
20
0.0
30
0.0
70
1
0
VERTEX
8
0
10
32.504000000000005
20
87.114
30
0
0
VERTEX
8
0
10
30.996000000000002
20
87.114
30
0
0
VERTEX
8
0
10
30.996000000000002
20
85.60600000000001
30
0
0
VERTEX
8
0
10
32.504000000000005
20
85.60600000000001
30
0
0
SEQEND
0
POLYLINE
66
1
8
16_copper
10
0.0
20
0.0
30
0.0
70
1
0
VERTEX
8
0
10
7.104
20
91.559
30
0
0
VERTEX
8
0
10
5.596
20
91.559
30
0
0
VERTEX
8
0
10
5.596
20
90.051
30
0
0
VERTEX
8
0
10
7.104
20
90.051
30
0
0
SEQEND
0
POLYLINE
66
1
8
16_copper
10
0.0
20
0.0
30
0.0
70
1
0
VERTEX
8
0
10
57.269000000000005
20
89.65400000000001
30
0
0
VERTEX
8
0
10
55.761
20
89.65400000000001
30
0
0
VERTEX
8
0
10
55.761
20
88.146
30
0
0
VERTEX
8
0
10
57.269000000000005
20
88.146
30
0
0
SEQEND
0
POLYLINE
66
1
8
16_copper
10
0.0
20
0.0
30
0.0
70
1
0
VERTEX
8
0
10
32.504000000000005
20
87.114
30
0
0
VERTEX
8
0
10
30.996000000000002
20
87.114
30
0
0
VERTEX
8
0
10
30.996000000000002
20
85.60600000000001
30
0
0
VERTEX
8
0
10
32.504000000000005
20
85.60600000000001
30
0
0
SEQEND
0
POLYLINE
66
1
8
16_copper
10
0.0
20
0.0
30
0.0
70
1
0
VERTEX
8
0
10
19.05
20
90.9066
30
0
42
0.41421356237309503
0
VERTEX
8
0
10
18.9738
20
90.8304
30
0
0
VERTEX
8
0
10
18.9738
20
90.805
30
0
42
0.23669207798894895
0
VERTEX
8
0
10
19.018634375
20
90.73555625
30
0
0
VERTEX
8
0
10
19.039546875
20
90.72951875000001
30
0
0
VERTEX
8
0
10
19.061315625000002
20
90.72964375000001
30
0
0
VERTEX
8
0
10
19.082159375
20
90.73591875000001
30
0
0
VERTEX
8
0
10
19.100378125000002
20
90.747828125
30
0
0
VERTEX
8
0
10
19.105803125
20
90.7542
30
0
0
VERTEX
8
0
10
31.0896
20
90.7542
30
0
0
VERTEX
8
0
10
31.098028125000003
20
90.755415625
30
0
0
VERTEX
8
0
10
31.106493750000002
20
90.75609687500001
30
0
42
0.08765396656356698
0
VERTEX
8
0
10
31.13093125
20
90.76638125000001
30
0
0
VERTEX
8
0
10
31.136525000000002
20
90.771253125
30
0
0
VERTEX
8
0
10
31.14348125
20
90.77651875000001
30
0
0
VERTEX
8
0
10
31.242
20
90.8750375
30
0
0
VERTEX
8
0
10
35.433
20
86.6840375
30
0
0
VERTEX
8
0
10
35.433
20
55.473600000000005
30
0
0
VERTEX
8
0
10
35.434215625
20
55.465171875
30
0
0
VERTEX
8
0
10
35.434896875
20
55.45670625
30
0
42
0.08765396656356698
0
VERTEX
8
0
10
35.445181250000005
20
55.432268750000006
30
0
0
VERTEX
8
0
10
35.450053125000004
20
55.426675
30
0
0
VERTEX
8
0
10
35.45531875
20
55.41971875
30
0
0
VERTEX
8
0
10
53.4162
20
37.4588375
30
0
0
VERTEX
8
0
10
53.4162
20
32.4612
30
0
0
VERTEX
8
0
10
53.417415625000004
20
32.452771875
30
0
0
VERTEX
8
0
10
53.418096875
20
32.444306250000004
30
0
42
0.08765396656356698
0
VERTEX
8
0
10
53.42838125
20
32.41986875
30
0
0
VERTEX
8
0
10
53.433253125
20
32.414275
30
0
0
VERTEX
8
0
10
53.43851875
20
32.40731875
30
0
0
VERTEX
8
0
10
54.635400000000004
20
31.2104375
30
0
0
VERTEX
8
0
10
54.635400000000004
20
30.48
30
0
0
VERTEX
8
0
10
54.635906250000005
20
30.476481250000003
30
0
0
VERTEX
8
0
10
54.635728125
20
30.472921875
30
0
42
0.07178286701474199
0
VERTEX
8
0
10
54.640825
20
30.451759375
30
0
0
VERTEX
8
0
10
54.644706250000006
20
30.444940625
30
0
0
VERTEX
8
0
10
54.64758125
20
30.43866875
30
0
42
0.02040130218744678
0
VERTEX
8
0
10
54.651165625000004
20
30.433590625
30
0
0
VERTEX
8
0
10
54.689571875000006
20
30.383578125000003
30
0
0
VERTEX
8
0
10
54.705159375
20
30.368384375
30
0
42
0.752237809878194
0
VERTEX
8
0
10
54.82078125
20
30.458228125
30
0
0
VERTEX
8
0
10
54.810440625000005
20
30.476396875000002
30
0
0
VERTEX
8
0
10
54.787800000000004
20
30.505878125000002
30
0
0
VERTEX
8
0
10
54.787800000000004
20
31.242
30
0
0
VERTEX
8
0
10
54.786584375000004
20
31.250428125000003
30
0
0
VERTEX
8
0
10
54.785903125000004
20
31.258893750000002
30
0
42
0.08765396656356698
0
VERTEX
8
0
10
54.77561875
20
31.28333125
30
0
0
VERTEX
8
0
10
54.770746875
20
31.288925000000003
30
0
0
VERTEX
8
0
10
54.76548125
20
31.29588125
30
0
0
VERTEX
8
0
10
53.5686
20
32.492762500000005
30
0
0
VERTEX
8
0
10
53.5686
20
37.4904
30
0
0
VERTEX
8
0
10
53.567384375
20
37.498828125
30
0
0
VERTEX
8
0
10
53.566703125000004
20
37.50729375
30
0
42
0.08765396656356698
0
VERTEX
8
0
10
53.556418750000006
20
37.53173125
30
0
0
VERTEX
8
0
10
53.551546875
20
37.537325
30
0
0
VERTEX
8
0
10
53.54628125
20
37.544281250000004
30
0
0
VERTEX
8
0
10
35.5854
20
55.505162500000004
30
0
0
VERTEX
8
0
10
35.5854
20
86.71560000000001
30
0
0
VERTEX
8
0
10
35.584184375
20
86.724028125
30
0
0
VERTEX
8
0
10
35.583503125
20
86.73249375
30
0
42
0.08765396656356698
0
VERTEX
8
0
10
35.57321875
20
86.75693125000001
30
0
0
VERTEX
8
0
10
35.568346875
20
86.76252500000001
30
0
0
VERTEX
8
0
10
35.56308125
20
86.76948125
30
0
0
VERTEX
8
0
10
31.352671875000002
20
90.97989062500001
30
0
0
VERTEX
8
0
10
31.800975
20
91.3833625
30
0
0
VERTEX
8
0
10
31.804075
20
91.38708125000001
30
0
0
VERTEX
8
0
10
31.80774375
20
91.39027812500001
30
0
42
0.5484095900174472
0
VERTEX
8
0
10
31.77070625
20
91.51333125000001
30
0
0
VERTEX
8
0
10
31.764403125
20
91.51420625
30
0
0
VERTEX
8
0
10
31.758793750000002
20
91.515690625
30
0
42
0.019744285403721036
0
VERTEX
8
0
10
31.75
20
91.5162
30
0
0
VERTEX
8
0
10
31.6992
20
91.5162
30
0
42
0.14431046205070072
0
VERTEX
8
0
10
31.657868750000002
20
91.50401875
30
0
0
VERTEX
8
0
10
31.652275000000003
20
91.49914687500001
30
0
0
VERTEX
8
0
10
31.64531875
20
91.49388125
30
0
0
VERTEX
8
0
10
31.0580375
20
90.9066
30
0
0
SEQEND
0
POLYLINE
66
1
8
1_copper
10
0.0
20
0.0
30
0.0
70
1
0
VERTEX
8
0
10
11.441315625000001
20
82.34764375
30
0
0
VERTEX
8
0
10
11.462159375
20
82.35391875
30
0
42
0.1720261256716717
0
VERTEX
8
0
10
11.50333125
20
82.40229375
30
0
0
VERTEX
8
0
10
11.505209375
20
82.415846875
30
0
0
VERTEX
8
0
10
13.922281250000001
20
84.83291875
30
0
0
VERTEX
8
0
10
13.927353125000002
20
84.839703125
30
0
0
VERTEX
8
0
10
13.932887500000001
20
84.846203125
30
0
42
0.08765145259213399
0
VERTEX
8
0
10
13.942890625
20
84.87075625
30
0
0
VERTEX
8
0
10
13.9434
20
84.87813125000001
30
0
0
VERTEX
8
0
10
13.944600000000001
20
84.88680000000001
30
0
0
VERTEX
8
0
10
13.944600000000001
20
90.65126875
30
0
0
VERTEX
8
0
10
14.029503125000002
20
90.757396875
30
0
0
VERTEX
8
0
10
14.040534375
20
90.7761625
30
0
42
0.8660491598481912
0
VERTEX
8
0
10
13.910496875000002
20
90.852603125
30
0
0
VERTEX
8
0
10
13.808896875
20
90.725603125
30
0
0
VERTEX
8
0
10
13.806709375
20
90.721884375
30
0
0
VERTEX
8
0
10
13.803912500000001
20
90.718596875
30
0
42
0.14139383237721448
0
VERTEX
8
0
10
13.792200000000001
20
90.678
30
0
0
VERTEX
8
0
10
13.792200000000001
20
84.9183625
30
0
0
VERTEX
8
0
10
11.37611875
20
82.50228125000001
30
0
0
VERTEX
8
0
10
11.371046875000001
20
82.495496875
30
0
0
VERTEX
8
0
10
11.365512500000001
20
82.488996875
30
0
42
0.08765145259213399
0
VERTEX
8
0
10
11.355509375
20
82.46444375
30
0
0
VERTEX
8
0
10
11.355
20
82.45706875
30
0
0
VERTEX
8
0
10
11.3538
20
82.4484
30
0
0
VERTEX
8
0
10
11.3538
20
82.423
30
0
42
0.23669207798894895
0
VERTEX
8
0
10
11.398634375
20
82.35355625
30
0
0
VERTEX
8
0
10
11.419546875
20
82.34751875
30
0
0
SEQEND
0
POLYLINE
66
1
8
1_copper
10
0.0
20
0.0
30
0.0
70
1
0
VERTEX
8
0
10
14.0011375
20
82.607453125
30
0
42
0.1413904959520586
0
VERTEX
8
0
10
14.033403125000001
20
82.63473125
30
0
0
VERTEX
8
0
10
14.080021875
20
82.704659375
30
0
0
VERTEX
8
0
10
16.51308125
20
85.13771875
30
0
0
VERTEX
8
0
10
16.518153125
20
85.144503125
30
0
0
VERTEX
8
0
10
16.5236875
20
85.151003125
30
0
42
0.08765145259213399
0
VERTEX
8
0
10
16.533690625000002
20
85.17555625
30
0
0
VERTEX
8
0
10
16.534200000000002
20
85.18293125000001
30
0
0
VERTEX
8
0
10
16.5354
20
85.19160000000001
30
0
0
VERTEX
8
0
10
16.5354
20
90.663325
30
0
0
VERTEX
8
0
10
16.580750000000002
20
90.7767
30
0
0
VERTEX
8
0
10
16.585865625
20
90.79785625000001
30
0
42
0.8660582718761093
0
VERTEX
8
0
10
16.43925
20
90.83330000000001
30
0
0
VERTEX
8
0
10
16.388450000000002
20
90.7063
30
0
0
VERTEX
8
0
10
16.387503125000002
20
90.70238125
30
0
0
VERTEX
8
0
10
16.38586875
20
90.69870625
30
0
42
0.06890909149035641
0
VERTEX
8
0
10
16.383
20
90.678
30
0
0
VERTEX
8
0
10
16.383
20
85.2231625
30
0
0
VERTEX
8
0
10
13.966918750000001
20
82.80708125000001
30
0
0
VERTEX
8
0
10
13.962734375
20
82.80148750000001
30
0
0
VERTEX
8
0
10
13.957396875
20
82.79546875
30
0
0
VERTEX
8
0
10
13.906596875
20
82.71926875
30
0
0
VERTEX
8
0
10
13.897234375
20
82.69961875
30
0
42
0.5484067590696156
0
VERTEX
8
0
10
13.980203125000001
20
82.6014875
30
0
0
SEQEND
0
POLYLINE
66
1
8
1_copper
10
0.0
20
0.0
30
0.0
70
1
0
VERTEX
8
0
10
8.917434375000001
20
82.60590937500001
30
0
0
VERTEX
8
0
10
8.935718750000001
20
82.61604062500001
30
0
0
VERTEX
8
0
10
9.03731875
20
82.69224062500001
30
0
0
VERTEX
8
0
10
9.04098125
20
82.6959125
30
0
0
VERTEX
8
0
10
9.04548125
20
82.69931875
30
0
0
VERTEX
8
0
10
11.483881250000001
20
85.13771875
30
0
0
VERTEX
8
0
10
11.488953125
20
85.144503125
30
0
0
VERTEX
8
0
10
11.4944875
20
85.151003125
30
0
42
0.08765145259213399
0
VERTEX
8
0
10
11.504490625
20
85.17555625
30
0
0
VERTEX
8
0
10
11.505
20
85.18293125000001
30
0
0
VERTEX
8
0
10
11.5062
20
85.19160000000001
30
0
0
VERTEX
8
0
10
11.5062
20
90.805
30
0
0
VERTEX
8
0
10
11.503090625
20
90.82654375
30
0
42
0.8660508493283852
0
VERTEX
8
0
10
11.3538
20
90.805
30
0
0
VERTEX
8
0
10
11.3538
20
85.2231625
30
0
0
VERTEX
8
0
10
8.941543750000001
20
82.81090625
30
0
0
VERTEX
8
0
10
8.84428125
20
82.737959375
30
0
0
VERTEX
8
0
10
8.828909375
20
82.722546875
30
0
42
0.6456027190767527
0
VERTEX
8
0
10
8.896215625
20
82.601053125
30
0
0
SEQEND
0
POLYLINE
66
1
8
1_copper
10
0.0
20
0.0
30
0.0
70
1
0
VERTEX
8
0
10
6.364275
20
82.34815
30
0
0
VERTEX
8
0
10
6.384078125
20
82.35484375
30
0
0
VERTEX
8
0
10
6.434878125
20
82.38024375
30
0
42
0.011636993794010881
0
VERTEX
8
0
10
6.4380125
20
82.38190312500001
30
0
0
VERTEX
8
0
10
6.44630625
20
82.38817812500001
30
0
0
VERTEX
8
0
10
6.45275625
20
82.39265937500001
30
0
42
0.008781396370378374
0
VERTEX
8
0
10
6.45468125
20
82.39451875
30
0
0
VERTEX
8
0
10
8.89308125
20
84.83291875
30
0
0
VERTEX
8
0
10
8.898153125
20
84.839703125
30
0
0
VERTEX
8
0
10
8.9036875
20
84.846203125
30
0
42
0.08765145259213399
0
VERTEX
8
0
10
8.913690625000001
20
84.87075625
30
0
0
VERTEX
8
0
10
8.914200000000001
20
84.87813125000001
30
0
0
VERTEX
8
0
10
8.9154
20
84.88680000000001
30
0
0
VERTEX
8
0
10
8.9154
20
90.663325
30
0
0
VERTEX
8
0
10
8.96075
20
90.7767
30
0
0
VERTEX
8
0
10
8.965865625000001
20
90.79785625000001
30
0
42
0.8660582718761093
0
VERTEX
8
0
10
8.81925
20
90.83330000000001
30
0
0
VERTEX
8
0
10
8.76845
20
90.7063
30
0
0
VERTEX
8
0
10
8.767503125000001
20
90.70238125
30
0
0
VERTEX
8
0
10
8.765868750000001
20
90.69870625
30
0
42
0.06890909149035641
0
VERTEX
8
0
10
8.763
20
90.678
30
0
0
VERTEX
8
0
10
8.763
20
84.9183625
30
0
0
VERTEX
8
0
10
6.355665625
20
82.51102812500001
30
0
0
VERTEX
8
0
10
6.315921875
20
82.49115625
30
0
0
VERTEX
8
0
10
6.298043750000001
20
82.478740625
30
0
42
0.6456013766444079
0
VERTEX
8
0
10
6.342528125
20
82.347165625
30
0
0
SEQEND
0
POLYLINE
66
1
8
16_copper
10
0.0
20
0.0
30
0.0
70
1
0
VERTEX
8
0
10
31.771543750000003
20
7.546909375
30
0
42
0.6456004935987785
0
VERTEX
8
0
10
31.790596875000002
20
7.6844875
30
0
0
VERTEX
8
0
10
31.7754
20
7.69124375
30
0
0
VERTEX
8
0
10
31.7754
20
71.1708
30
0
0
VERTEX
8
0
10
31.774184375
20
71.17922812500001
30
0
0
VERTEX
8
0
10
31.773503125
20
71.18769375000001
30
0
42
0.08765396656356698
0
VERTEX
8
0
10
31.76321875
20
71.21213125
30
0
0
VERTEX
8
0
10
31.758346875
20
71.217725
30
0
0
VERTEX
8
0
10
31.75308125
20
71.22468125
30
0
0
VERTEX
8
0
10
27.99388125
20
74.98388125000001
30
0
0
VERTEX
8
0
10
27.98826875
20
74.988078125
30
0
0
VERTEX
8
0
10
27.983103125000003
20
74.99283750000001
30
0
42
0.4551096703147497
0
VERTEX
8
0
10
27.87184375
20
74.964078125
30
0
0
VERTEX
8
0
10
27.842103125
20
74.9046
30
0
0
VERTEX
8
0
10
13.868400000000001
20
74.9046
30
0
0
VERTEX
8
0
10
13.859971875000001
20
74.903384375
30
0
0
VERTEX
8
0
10
13.85150625
20
74.902703125
30
0
42
0.08765396656356698
0
VERTEX
8
0
10
13.82706875
20
74.89241875
30
0
0
VERTEX
8
0
10
13.821475000000001
20
74.887546875
30
0
0
VERTEX
8
0
10
13.814518750000001
20
74.88228125
30
0
0
VERTEX
8
0
10
11.37611875
20
72.44388125
30
0
0
VERTEX
8
0
10
11.371046875000001
20
72.43709687500001
30
0
0
VERTEX
8
0
10
11.365512500000001
20
72.430596875
30
0
42
0.08765145259213399
0
VERTEX
8
0
10
11.355509375
20
72.40604375000001
30
0
0
VERTEX
8
0
10
11.355
20
72.39866875
30
0
0
VERTEX
8
0
10
11.3538
20
72.39
30
0
0
VERTEX
8
0
10
11.3538
20
72.263
30
0
0
VERTEX
8
0
10
11.356909375
20
72.24145625
30
0
42
0.8660508493283852
0
VERTEX
8
0
10
11.5062
20
72.263
30
0
0
VERTEX
8
0
10
11.5062
20
72.35843750000001
30
0
0
VERTEX
8
0
10
13.8999625
20
74.7522
30
0
0
VERTEX
8
0
10
27.889200000000002
20
74.7522
30
0
0
VERTEX
8
0
10
27.898934375
20
74.75360625
30
0
0
VERTEX
8
0
10
27.908690625000002
20
74.754734375
30
0
42
0.15145499629190587
0
VERTEX
8
0
10
27.946943750000003
20
74.778678125
30
0
0
VERTEX
8
0
10
27.951128125
20
74.78524375
30
0
0
VERTEX
8
0
10
27.95735625
20
74.79432187500001
30
0
0
VERTEX
8
0
10
27.960875
20
74.80136250000001
30
0
0
VERTEX
8
0
10
31.623
20
71.13923750000001
30
0
0
VERTEX
8
0
10
31.623
20
7.62
30
0
0
VERTEX
8
0
10
31.623812500000003
20
7.61438125
30
0
42
0.39258815634569955
0
VERTEX
8
0
10
31.6992
20
7.5438
30
0
0
VERTEX
8
0
10
31.75
20
7.5438
30
0
0
SEQEND
0
POLYLINE
66
1
8
1_copper
10
0.0
20
0.0
30
0.0
70
1
0
VERTEX
8
0
10
22.632925
20
55.808715625000005
30
0
42
0.544696051737082
0
VERTEX
8
0
10
22.65988125
20
55.933881250000006
30
0
0
VERTEX
8
0
10
22.631400000000003
20
55.962362500000005
30
0
0
VERTEX
8
0
10
22.631400000000003
20
57.607200000000006
30
0
0
VERTEX
8
0
10
22.630184375000002
20
57.615628125
30
0
0
VERTEX
8
0
10
22.629503125
20
57.62409375
30
0
42
0.08765396656356698
0
VERTEX
8
0
10
22.61921875
20
57.648531250000005
30
0
0
VERTEX
8
0
10
22.614346875000003
20
57.654125
30
0
0
VERTEX
8
0
10
22.609081250000003
20
57.66108125
30
0
0
VERTEX
8
0
10
9.0678
20
71.2023625
30
0
0
VERTEX
8
0
10
9.0678
20
72.39
30
0
0
VERTEX
8
0
10
9.067184375
20
72.394265625
30
0
0
VERTEX
8
0
10
9.067315625
20
72.398584375
30
0
42
0.14139434791623104
0
VERTEX
8
0
10
9.051103125000001
20
72.43760312500001
30
0
0
VERTEX
8
0
10
8.949503125
20
72.564603125
30
0
0
VERTEX
8
0
10
8.933615625
20
72.57948125
30
0
42
0.8660553862756659
0
VERTEX
8
0
10
8.830496875
20
72.469396875
30
0
0
VERTEX
8
0
10
8.9154
20
72.36326875
30
0
0
VERTEX
8
0
10
8.9154
20
71.1708
30
0
0
VERTEX
8
0
10
8.916615625
20
71.162371875
30
0
0
VERTEX
8
0
10
8.917296875
20
71.15390625
30
0
42
0.08765396656356698
0
VERTEX
8
0
10
8.927581250000001
20
71.12946875
30
0
0
VERTEX
8
0
10
8.932453125
20
71.123875
30
0
0
VERTEX
8
0
10
8.93771875
20
71.11691875
30
0
0
VERTEX
8
0
10
22.479000000000003
20
57.575637500000006
30
0
0
VERTEX
8
0
10
22.479000000000003
20
55.930800000000005
30
0
0
VERTEX
8
0
10
22.480215625
20
55.922371875
30
0
0
VERTEX
8
0
10
22.480896875000003
20
55.913906250000004
30
0
42
0.08765396656356698
0
VERTEX
8
0
10
22.49118125
20
55.889468750000006
30
0
0
VERTEX
8
0
10
22.496053125
20
55.883875
30
0
0
VERTEX
8
0
10
22.50131875
20
55.87691875
30
0
0
VERTEX
8
0
10
22.55211875
20
55.82611875
30
0
0
VERTEX
8
0
10
22.56955
20
55.813084375
30
0
42
0.14430974683498565
0
VERTEX
8
0
10
22.611671875000003
20
55.804012500000006
30
0
0
SEQEND
0
POLYLINE
66
1
8
16_copper
10
0.0
20
0.0
30
0.0
70
1
0
VERTEX
8
0
10
25.157315625000003
20
55.804643750000004
30
0
42
0.29475366676537273
0
VERTEX
8
0
10
25.21933125
20
55.859293750000006
30
0
0
VERTEX
8
0
10
25.2222
20
55.88
30
0
42
0.29876313238556884
0
VERTEX
8
0
10
25.21001875
20
55.972131250000004
30
0
0
VERTEX
8
0
10
25.205146875
20
55.977725
30
0
0
VERTEX
8
0
10
25.19988125
20
55.98468125
30
0
0
VERTEX
8
0
10
23.98068125
20
57.20388125
30
0
0
VERTEX
8
0
10
23.973896875
20
57.208953125
30
0
0
VERTEX
8
0
10
23.967396875000002
20
57.214487500000004
30
0
42
0.08765145259213399
0
VERTEX
8
0
10
23.94284375
20
57.224490625
30
0
0
VERTEX
8
0
10
23.935468750000002
20
57.225
30
0
0
VERTEX
8
0
10
23.9268
20
57.226200000000006
30
0
0
VERTEX
8
0
10
22.586762500000003
20
57.226200000000006
30
0
0
VERTEX
8
0
10
7.521481250000001
20
72.29148125
30
0
0
VERTEX
8
0
10
7.514696875
20
72.296553125
30
0
0
VERTEX
8
0
10
7.508196875
20
72.3020875
30
0
42
0.08765145259213399
0
VERTEX
8
0
10
7.483643750000001
20
72.31209062500001
30
0
0
VERTEX
8
0
10
7.47626875
20
72.3126
30
0
0
VERTEX
8
0
10
7.4676
20
72.3138
30
0
0
VERTEX
8
0
10
6.418790625000001
20
72.3138
30
0
0
VERTEX
8
0
10
6.384078125
20
72.33115625
30
0
0
VERTEX
8
0
10
6.36341875
20
72.338009375
30
0
42
0.7522569111873343
0
VERTEX
8
0
10
6.298684375000001
20
72.20666875
30
0
0
VERTEX
8
0
10
6.315921875
20
72.19484375
30
0
42
0.2832727119592674
0
VERTEX
8
0
10
6.4008
20
72.1614
30
0
0
VERTEX
8
0
10
7.4360375
20
72.1614
30
0
0
VERTEX
8
0
10
22.50131875
20
57.09611875
30
0
0
VERTEX
8
0
10
22.508103125
20
57.091046875
30
0
0
VERTEX
8
0
10
22.514603125
20
57.0855125
30
0
42
0.08765145259213399
0
VERTEX
8
0
10
22.53915625
20
57.075509375
30
0
0
VERTEX
8
0
10
22.54653125
20
57.075
30
0
0
VERTEX
8
0
10
22.555200000000003
20
57.073800000000006
30
0
0
VERTEX
8
0
10
23.8952375
20
57.073800000000006
30
0
0
VERTEX
8
0
10
25.0698
20
55.899237500000005
30
0
0
VERTEX
8
0
10
25.0698
20
55.88
30
0
0
VERTEX
8
0
10
25.072909375000002
20
55.85845625
30
0
42
0.29475403398626154
0
VERTEX
8
0
10
25.135546875000003
20
55.80451875
30
0
0
SEQEND
0
POLYLINE
66
1
8
1_copper
10
0.0
20
0.0
30
0.0
70
1
0
VERTEX
8
0
10
34.301315625
20
55.804643750000004
30
0
42
0.3712023256762844
0
VERTEX
8
0
10
34.3662
20
55.88
30
0
0
VERTEX
8
0
10
34.3662
20
62.6364
30
0
0
VERTEX
8
0
10
34.364984375
20
62.644828125000004
30
0
0
VERTEX
8
0
10
34.364303125
20
62.65329375
30
0
42
0.08765396656356698
0
VERTEX
8
0
10
34.35401875
20
62.67773125
30
0
0
VERTEX
8
0
10
34.349146875
20
62.683325
30
0
0
VERTEX
8
0
10
34.34388125
20
62.690281250000005
30
0
0
VERTEX
8
0
10
28.117800000000003
20
68.9163625
30
0
0
VERTEX
8
0
10
28.117800000000003
20
69.7992
30
0
0
VERTEX
8
0
10
28.11639375
20
69.808934375
30
0
0
VERTEX
8
0
10
28.115265625000003
20
69.818690625
30
0
42
0.15145499629190587
0
VERTEX
8
0
10
28.091321875000002
20
69.85694375
30
0
0
VERTEX
8
0
10
28.08475625
20
69.86112812500001
30
0
0
VERTEX
8
0
10
28.075678125
20
69.86735625
30
0
0
VERTEX
8
0
10
27.974078125000002
20
69.91815625000001
30
0
0
VERTEX
8
0
10
27.95341875
20
69.925009375
30
0
42
0.8660557081395077
0
VERTEX
8
0
10
27.905921875
20
69.78184375000001
30
0
0
VERTEX
8
0
10
27.965400000000002
20
69.75210625
30
0
0
VERTEX
8
0
10
27.965400000000002
20
68.8848
30
0
0
VERTEX
8
0
10
27.966615625000003
20
68.876371875
30
0
0
VERTEX
8
0
10
27.967296875000002
20
68.86790625
30
0
42
0.08765396656356698
0
VERTEX
8
0
10
27.97758125
20
68.84346875
30
0
0
VERTEX
8
0
10
27.982453125000003
20
68.837875
30
0
0
VERTEX
8
0
10
27.987718750000003
20
68.83091875000001
30
0
0
VERTEX
8
0
10
34.2138
20
62.6048375
30
0
0
VERTEX
8
0
10
34.2138
20
55.88
30
0
0
VERTEX
8
0
10
34.216909375
20
55.85845625
30
0
42
0.29475403398626154
0
VERTEX
8
0
10
34.279546875
20
55.80451875
30
0
0
SEQEND
0
POLYLINE
66
1
8
1_copper
10
0.0
20
0.0
30
0.0
70
1
0
VERTEX
8
0
10
34.908028125
20
6.325815625000001
30
0
0
VERTEX
8
0
10
34.91649375
20
6.326496875
30
0
42
0.08765396656356698
0
VERTEX
8
0
10
34.94093125
20
6.3367812500000005
30
0
0
VERTEX
8
0
10
34.946525
20
6.341653125000001
30
0
0
VERTEX
8
0
10
34.95348125
20
6.34691875
30
0
0
VERTEX
8
0
10
36.1503625
20
7.5438
30
0
0
VERTEX
8
0
10
39.370000000000005
20
7.5438
30
0
0
VERTEX
8
0
10
39.391543750000004
20
7.546909375
30
0
42
0.8660508493283852
0
VERTEX
8
0
10
39.370000000000005
20
7.6962
30
0
0
VERTEX
8
0
10
36.1188
20
7.6962
30
0
0
VERTEX
8
0
10
36.110371875
20
7.694984375000001
30
0
0
VERTEX
8
0
10
36.10190625
20
7.694303125
30
0
42
0.08765396656356698
0
VERTEX
8
0
10
36.07746875
20
7.684018750000001
30
0
0
VERTEX
8
0
10
36.071875
20
7.679146875000001
30
0
0
VERTEX
8
0
10
36.064918750000004
20
7.67388125
30
0
0
VERTEX
8
0
10
34.8680375
20
6.477
30
0
0
VERTEX
8
0
10
26.0919625
20
6.477
30
0
0
VERTEX
8
0
10
25.527
20
7.0419625
30
0
0
VERTEX
8
0
10
25.527
20
41.148
30
0
0
VERTEX
8
0
10
25.525784375
20
41.156428125000005
30
0
0
VERTEX
8
0
10
25.525103125
20
41.164893750000005
30
0
42
0.08765396656356698
0
VERTEX
8
0
10
25.51481875
20
41.18933125
30
0
0
VERTEX
8
0
10
25.509946875
20
41.194925000000005
30
0
0
VERTEX
8
0
10
25.50468125
20
41.20188125
30
0
0
VERTEX
8
0
10
11.201400000000001
20
55.505162500000004
30
0
0
VERTEX
8
0
10
11.201400000000001
20
57.912000000000006
30
0
0
VERTEX
8
0
10
11.200184375000001
20
57.920428125
30
0
0
VERTEX
8
0
10
11.199503125
20
57.92889375
30
0
42
0.08765396656356698
0
VERTEX
8
0
10
11.18921875
20
57.953331250000005
30
0
0
VERTEX
8
0
10
11.184346875000001
20
57.958925
30
0
0
VERTEX
8
0
10
11.179081250000001
20
57.96588125
30
0
0
VERTEX
8
0
10
9.39
20
59.754962500000005
30
0
0
VERTEX
8
0
10
9.39
20
60.660000000000004
30
0
0
VERTEX
8
0
10
8.4849625
20
60.660000000000004
30
0
0
VERTEX
8
0
10
8.1534
20
60.9915625
30
0
0
VERTEX
8
0
10
8.1534
20
63.2144375
30
0
0
VERTEX
8
0
10
8.887040625000001
20
63.948078125
30
0
0
VERTEX
8
0
10
8.9306125
20
63.975525000000005
30
0
0
VERTEX
8
0
10
8.947184375
20
63.9896375
30
0
42
0.7522597977193285
0
VERTEX
8
0
10
8.868434375
20
64.113084375
30
0
0
VERTEX
8
0
10
8.8493875
20
64.10447500000001
30
0
0
VERTEX
8
0
10
8.7985875
20
64.072475
30
0
0
VERTEX
8
0
10
8.79276875
20
64.06751875
30
0
0
VERTEX
8
0
10
8.78531875
20
64.06188125
30
0
0
VERTEX
8
0
10
8.02331875
20
63.299881250000006
30
0
0
VERTEX
8
0
10
8.018246875
20
63.293096875
30
0
0
VERTEX
8
0
10
8.012712500000001
20
63.286596875
30
0
42
0.08765145259213399
0
VERTEX
8
0
10
8.002709375
20
63.262043750000004
30
0
0
VERTEX
8
0
10
8.0022
20
63.25466875
30
0
0
VERTEX
8
0
10
8.001000000000001
20
63.246
30
0
0
VERTEX
8
0
10
8.001000000000001
20
60.96
30
0
0
VERTEX
8
0
10
8.002215625
20
60.951571875000006
30
0
0
VERTEX
8
0
10
8.002896875000001
20
60.94310625
30
0
42
0.08765396656356698
0
VERTEX
8
0
10
8.01318125
20
60.91866875
30
0
0
VERTEX
8
0
10
8.018053125
20
60.913075000000006
30
0
0
VERTEX
8
0
10
8.02331875
20
60.906118750000005
30
0
0
VERTEX
8
0
10
8.39
20
60.539437500000005
30
0
0
VERTEX
8
0
10
8.39
20
59.56
30
0
0
VERTEX
8
0
10
9.3694375
20
59.56
30
0
0
VERTEX
8
0
10
11.049000000000001
20
57.8804375
30
0
0
VERTEX
8
0
10
11.049000000000001
20
55.473600000000005
30
0
0
VERTEX
8
0
10
11.050215625
20
55.465171875
30
0
0
VERTEX
8
0
10
11.050896875000001
20
55.45670625
30
0
42
0.08765396656356698
0
VERTEX
8
0
10
11.06118125
20
55.432268750000006
30
0
0
VERTEX
8
0
10
11.066053125
20
55.426675
30
0
0
VERTEX
8
0
10
11.07131875
20
55.41971875
30
0
0
VERTEX
8
0
10
25.3746
20
41.1164375
30
0
0
VERTEX
8
0
10
25.3746
20
7.010400000000001
30
0
0
VERTEX
8
0
10
25.375815625
20
7.001971875000001
30
0
0
VERTEX
8
0
10
25.376496875
20
6.99350625
30
0
42
0.08765396656356698
0
VERTEX
8
0
10
25.386781250000002
20
6.96906875
30
0
0
VERTEX
8
0
10
25.391653125
20
6.963475000000001
30
0
0
VERTEX
8
0
10
25.39691875
20
6.956518750000001
30
0
0
VERTEX
8
0
10
26.00651875
20
6.34691875
30
0
0
VERTEX
8
0
10
26.013303125
20
6.341846875
30
0
0
VERTEX
8
0
10
26.019803125000003
20
6.3363125
30
0
42
0.08765145259213399
0
VERTEX
8
0
10
26.04435625
20
6.326309375
30
0
0
VERTEX
8
0
10
26.05173125
20
6.3258
30
0
0
VERTEX
8
0
10
26.0604
20
6.3246
30
0
0
VERTEX
8
0
10
34.8996
20
6.3246
30
0
0
SEQEND
0
POLYLINE
66
1
8
1_copper
10
0.0
20
0.0
30
0.0
70
1
0
VERTEX
8
0
10
41.936925
20
7.548715625000001
30
0
42
0.544696051737082
0
VERTEX
8
0
10
41.96388125
20
7.67388125
30
0
0
VERTEX
8
0
10
38.1762
20
11.461562500000001
30
0
0
VERTEX
8
0
10
38.1762
20
81.9912
30
0
0
VERTEX
8
0
10
38.174984375
20
81.999628125
30
0
0
VERTEX
8
0
10
38.174303125
20
82.00809375
30
0
42
0.08765396656356698
0
VERTEX
8
0
10
38.164018750000004
20
82.03253125
30
0
0
VERTEX
8
0
10
38.159146875000005
20
82.03812500000001
30
0
0
VERTEX
8
0
10
38.153881250000005
20
82.04508125000001
30
0
0
VERTEX
8
0
10
31.9278
20
88.2711625
30
0
0
VERTEX
8
0
10
31.9278
20
88.84920000000001
30
0
0
VERTEX
8
0
10
31.926393750000003
20
88.858934375
30
0
0
VERTEX
8
0
10
31.925265625
20
88.868690625
30
0
42
0.15145499629190587
0
VERTEX
8
0
10
31.901321875
20
88.90694375000001
30
0
0
VERTEX
8
0
10
31.89475625
20
88.911128125
30
0
0
VERTEX
8
0
10
31.885678125000002
20
88.91735625
30
0
0
VERTEX
8
0
10
31.784078125
20
88.96815625
30
0
0
VERTEX
8
0
10
31.763418750000003
20
88.975009375
30
0
42
0.8660557081395077
0
VERTEX
8
0
10
31.715921875000003
20
88.83184375
30
0
0
VERTEX
8
0
10
31.7754
20
88.80210625000001
30
0
0
VERTEX
8
0
10
31.7754
20
88.23960000000001
30
0
0
VERTEX
8
0
10
31.776615625
20
88.231171875
30
0
0
VERTEX
8
0
10
31.777296875
20
88.22270625
30
0
42
0.08765396656356698
0
VERTEX
8
0
10
31.787581250000002
20
88.19826875000001
30
0
0
VERTEX
8
0
10
31.792453125
20
88.19267500000001
30
0
0
VERTEX
8
0
10
31.79771875
20
88.18571875
30
0
0
VERTEX
8
0
10
38.0238
20
81.9596375
30
0
0
VERTEX
8
0
10
38.0238
20
11.43
30
0
0
VERTEX
8
0
10
38.025015625
20
11.421571875
30
0
0
VERTEX
8
0
10
38.025696875
20
11.41310625
30
0
42
0.08765396656356698
0
VERTEX
8
0
10
38.03598125
20
11.38866875
30
0
0
VERTEX
8
0
10
38.040853125000005
20
11.383075
30
0
0
VERTEX
8
0
10
38.046118750000005
20
11.37611875
30
0
0
VERTEX
8
0
10
41.85611875
20
7.56611875
30
0
0
VERTEX
8
0
10
41.87355
20
7.553084375
30
0
42
0.14430974683498565
0
VERTEX
8
0
10
41.915671875
20
7.5440125
30
0
0
SEQEND
0
POLYLINE
66
1
8
1_copper
10
0.0
20
0.0
30
0.0
70
1
0
VERTEX
8
0
10
54.779478125000004
20
35.439718750000004
30
0
42
0.37121031020465717
0
VERTEX
8
0
10
54.823871875
20
35.5287
30
0
0
VERTEX
8
0
10
54.787800000000004
20
35.671096875
30
0
0
VERTEX
8
0
10
54.787800000000004
20
36.7284
30
0
0
VERTEX
8
0
10
54.786584375000004
20
36.736828125
30
0
0
VERTEX
8
0
10
54.785903125000004
20
36.74529375
30
0
42
0.08765396656356698
0
VERTEX
8
0
10
54.77561875
20
36.76973125
30
0
0
VERTEX
8
0
10
54.770746875
20
36.775325
30
0
0
VERTEX
8
0
10
54.76548125
20
36.782281250000004
30
0
0
VERTEX
8
0
10
43.205400000000004
20
48.3423625
30
0
0
VERTEX
8
0
10
43.205400000000004
20
66.294
30
0
0
VERTEX
8
0
10
43.204184375000004
20
66.302428125
30
0
0
VERTEX
8
0
10
43.203503125000005
20
66.31089375
30
0
42
0.08765396656356698
0
VERTEX
8
0
10
43.19321875
20
66.33533125000001
30
0
0
VERTEX
8
0
10
43.188346875
20
66.340925
30
0
0
VERTEX
8
0
10
43.18308125
20
66.34788125
30
0
0
VERTEX
8
0
10
42.281165625
20
67.249796875
30
0
0
VERTEX
8
0
10
42.2520875
20
67.33469062500001
30
0
0
VERTEX
8
0
10
42.242165625000005
20
67.354065625
30
0
42
0.8660452008151658
0
VERTEX
8
0
10
42.107912500000005
20
67.285309375
30
0
0
VERTEX
8
0
10
42.1427125
20
67.183709375
30
0
0
VERTEX
8
0
10
42.145834375
20
67.17761250000001
30
0
0
VERTEX
8
0
10
42.148303125000005
20
67.1711875
30
0
42
0.06890993509549369
0
VERTEX
8
0
10
42.16091875
20
67.15451875000001
30
0
0
VERTEX
8
0
10
43.053000000000004
20
66.2624375
30
0
0
VERTEX
8
0
10
43.053000000000004
20
48.3108
30
0
0
VERTEX
8
0
10
43.054215625000005
20
48.302371875000006
30
0
0
VERTEX
8
0
10
43.054896875000004
20
48.29390625
30
0
42
0.08765396656356698
0
VERTEX
8
0
10
43.06518125
20
48.26946875
30
0
0
VERTEX
8
0
10
43.070053125
20
48.263875000000006
30
0
0
VERTEX
8
0
10
43.07531875
20
48.256918750000004
30
0
0
VERTEX
8
0
10
54.635400000000004
20
36.6968375
30
0
0
VERTEX
8
0
10
54.635400000000004
20
35.6616
30
0
0
VERTEX
8
0
10
54.636515625
20
35.653878125
30
0
0
VERTEX
8
0
10
54.637734375
20
35.6428875
30
0
0
VERTEX
8
0
10
54.676140625
20
35.491275
30
0
0
VERTEX
8
0
10
54.68444375
20
35.47115625
30
0
42
0.2947618724471178
0
VERTEX
8
0
10
54.758409375
20
35.434253125000005
30
0
0
SEQEND
0
POLYLINE
66
1
8
1_copper
10
0.0
20
0.0
30
0.0
70
1
0
VERTEX
8
0
10
27.286
20
66.656
30
0
0
VERTEX
8
0
10
28.594
20
66.656
30
0
0
VERTEX
8
0
10
28.594
20
67.964
30
0
0
VERTEX
8
0
10
27.286
20
67.964
30
0
0
VERTEX
8
0
10
27.286
20
67.437
30
0
0
VERTEX
8
0
10
27.051000000000002
20
67.437
30
0
0
VERTEX
8
0
10
27.051000000000002
20
88.0556375
30
0
0
VERTEX
8
0
10
31.75308125
20
92.75771875000001
30
0
0
VERTEX
8
0
10
31.758153125
20
92.764503125
30
0
0
VERTEX
8
0
10
31.763687500000003
20
92.77100312500001
30
0
42
0.08765145259213399
0
VERTEX
8
0
10
31.773690625
20
92.79555625
30
0
0
VERTEX
8
0
10
31.7742
20
92.80293125
30
0
0
VERTEX
8
0
10
31.7754
20
92.8116
30
0
0
VERTEX
8
0
10
31.7754
20
93.860409375
30
0
0
VERTEX
8
0
10
31.81815625
20
93.94592187500001
30
0
0
VERTEX
8
0
10
31.825009375
20
93.96658125
30
0
42
0.8660557081395077
0
VERTEX
8
0
10
31.681843750000002
20
94.014078125
30
0
0
VERTEX
8
0
10
31.63104375
20
93.912478125
30
0
0
VERTEX
8
0
10
31.628781250000003
20
93.905653125
30
0
0
VERTEX
8
0
10
31.625868750000002
20
93.89910625
30
0
42
0.06890909149035641
0
VERTEX
8
0
10
31.623
20
93.8784
30
0
0
VERTEX
8
0
10
31.623
20
92.8431625
30
0
0
VERTEX
8
0
10
26.920918750000002
20
88.14108125
30
0
0
VERTEX
8
0
10
26.915846875
20
88.134296875
30
0
0
VERTEX
8
0
10
26.9103125
20
88.127796875
30
0
42
0.08765145259213399
0
VERTEX
8
0
10
26.900309375000003
20
88.10324375
30
0
0
VERTEX
8
0
10
26.899800000000003
20
88.09586875000001
30
0
0
VERTEX
8
0
10
26.898600000000002
20
88.08720000000001
30
0
0
VERTEX
8
0
10
26.898600000000002
20
67.437
30
0
0
VERTEX
8
0
10
19.0815625
20
67.437
30
0
0
VERTEX
8
0
10
14.085740625000001
20
72.432821875
30
0
0
VERTEX
8
0
10
14.040750000000001
20
72.5453
30
0
0
VERTEX
8
0
10
14.038893750000002
20
72.5485125
30
0
0
VERTEX
8
0
10
14.03768125
20
72.55200625
30
0
42
0.14430999249081183
0
VERTEX
8
0
10
14.007875
20
72.583121875
30
0
0
VERTEX
8
0
10
14.000737500000001
20
72.58599375
30
0
0
VERTEX
8
0
10
13.99471875
20
72.589078125
30
0
42
0.021352314166908814
0
VERTEX
8
0
10
13.988481250000001
20
72.590925
30
0
0
VERTEX
8
0
10
13.907356250000001
20
72.61120625000001
30
0
0
VERTEX
8
0
10
12.70308125
20
73.81548125
30
0
0
VERTEX
8
0
10
12.696296875
20
73.820553125
30
0
0
VERTEX
8
0
10
12.689796875
20
73.8260875
30
0
42
0.08765145259213399
0
VERTEX
8
0
10
12.66524375
20
73.836090625
30
0
0
VERTEX
8
0
10
12.65786875
20
73.8366
30
0
0
VERTEX
8
0
10
12.6492
20
73.8378
30
0
0
VERTEX
8
0
10
8.382
20
73.8378
30
0
0
VERTEX
8
0
10
8.373571875
20
73.836584375
30
0
0
VERTEX
8
0
10
8.36510625
20
73.835903125
30
0
42
0.08765396656356698
0
VERTEX
8
0
10
8.34066875
20
73.82561875
30
0
0
VERTEX
8
0
10
8.335075
20
73.820746875
30
0
0
VERTEX
8
0
10
8.32811875
20
73.81548125
30
0
0
VERTEX
8
0
10
7.56611875
20
73.05348125
30
0
0
VERTEX
8
0
10
7.561046875000001
20
73.04669687500001
30
0
0
VERTEX
8
0
10
7.555512500000001
20
73.040196875
30
0
42
0.08765145259213399
0
VERTEX
8
0
10
7.545509375
20
73.01564375000001
30
0
0
VERTEX
8
0
10
7.545
20
73.00826875
30
0
0
VERTEX
8
0
10
7.5438
20
72.9996
30
0
0
VERTEX
8
0
10
7.5438
20
72.0852
30
0
0
VERTEX
8
0
10
7.5450156250000004
20
72.076771875
30
0
0
VERTEX
8
0
10
7.545696875
20
72.06830625
30
0
42
0.08765396656356698
0
VERTEX
8
0
10
7.55598125
20
72.04386875
30
0
0
VERTEX
8
0
10
7.560853125
20
72.038275
30
0
0
VERTEX
8
0
10
7.56611875
20
72.03131875
30
0
0
VERTEX
8
0
10
8.763
20
70.8344375
30
0
0
VERTEX
8
0
10
8.763
20
68.1228
30
0
0
VERTEX
8
0
10
8.764496875
20
68.11242187500001
30
0
0
VERTEX
8
0
10
8.765865625
20
68.10210000000001
30
0
42
0.0028814416030623264
0
VERTEX
8
0
10
8.766109375000001
20
68.10125625
30
0
0
VERTEX
8
0
10
8.7689
20
68.09516875
30
0
0
VERTEX
8
0
10
8.77425
20
68.08295
30
0
0
VERTEX
8
0
10
8.825050000000001
20
68.00015
30
0
0
VERTEX
8
0
10
8.838965625
20
67.9834125
30
0
42
0.866054546080139
0
VERTEX
8
0
10
8.95495
20
68.07985000000001
30
0
0
VERTEX
8
0
10
8.9154
20
68.1443125
30
0
0
VERTEX
8
0
10
8.9154
20
70.866
30
0
0
VERTEX
8
0
10
8.914184375
20
70.87442812500001
30
0
0
VERTEX
8
0
10
8.913503125
20
70.88289375000001
30
0
42
0.08765396656356698
0
VERTEX
8
0
10
8.90321875
20
70.90733125
30
0
0
VERTEX
8
0
10
8.898346875
20
70.912925
30
0
0
VERTEX
8
0
10
8.89308125
20
70.91988125
30
0
0
VERTEX
8
0
10
7.6962
20
72.11676250000001
30
0
0
VERTEX
8
0
10
7.6962
20
72.96803750000001
30
0
0
VERTEX
8
0
10
8.413562500000001
20
73.6854
30
0
0
VERTEX
8
0
10
12.6176375
20
73.6854
30
0
0
VERTEX
8
0
10
13.814518750000001
20
72.48851875
30
0
0
VERTEX
8
0
10
13.82251875
20
72.4825375
30
0
0
VERTEX
8
0
10
13.830525000000002
20
72.47627812500001
30
0
42
0.0053516952725255525
0
VERTEX
8
0
10
13.83195
20
72.47548437500001
30
0
0
VERTEX
8
0
10
13.839028125
20
72.47285625
30
0
0
VERTEX
8
0
10
13.84991875
20
72.468475
30
0
0
VERTEX
8
0
10
13.913718750000001
20
72.45252500000001
30
0
0
VERTEX
8
0
10
13.950050000000001
20
72.3617
30
0
0
VERTEX
8
0
10
13.952525000000001
20
72.357415625
30
0
0
VERTEX
8
0
10
13.954303125000001
20
72.3527875
30
0
42
0.06890993509549369
0
VERTEX
8
0
10
13.966918750000001
20
72.33611875
30
0
0
VERTEX
8
0
10
18.99611875
20
67.30691875000001
30
0
0
VERTEX
8
0
10
19.002903125
20
67.30184687500001
30
0
0
VERTEX
8
0
10
19.009403125000002
20
67.2963125
30
0
42
0.08765145259213399
0
VERTEX
8
0
10
19.03395625
20
67.286309375
30
0
0
VERTEX
8
0
10
19.041331250000002
20
67.28580000000001
30
0
0
VERTEX
8
0
10
19.05
20
67.2846
30
0
0
VERTEX
8
0
10
26.289
20
67.2846
30
0
0
VERTEX
8
0
10
26.289
20
55.473600000000005
30
0
0
VERTEX
8
0
10
26.290215625000002
20
55.465171875
30
0
0
VERTEX
8
0
10
26.290896875
20
55.45670625
30
0
42
0.08765396656356698
0
VERTEX
8
0
10
26.301181250000003
20
55.432268750000006
30
0
0
VERTEX
8
0
10
26.306053125000002
20
55.426675
30
0
0
VERTEX
8
0
10
26.31131875
20
55.41971875
30
0
0
VERTEX
8
0
10
26.5938
20
55.137237500000005
30
0
0
VERTEX
8
0
10
26.5938
20
7.62
30
0
0
VERTEX
8
0
10
26.596909375000003
20
7.598456250000001
30
0
42
0.8660508493283852
0
VERTEX
8
0
10
26.7462
20
7.62
30
0
0
VERTEX
8
0
10
26.7462
20
55.168800000000005
30
0
0
VERTEX
8
0
10
26.744984375
20
55.177228125
30
0
0
VERTEX
8
0
10
26.744303125000002
20
55.185693750000006
30
0
42
0.08765396656356698
0
VERTEX
8
0
10
26.73401875
20
55.21013125
30
0
0
VERTEX
8
0
10
26.729146875
20
55.215725000000006
30
0
0
VERTEX
8
0
10
26.72388125
20
55.22268125
30
0
0
VERTEX
8
0
10
26.4414
20
55.505162500000004
30
0
0
VERTEX
8
0
10
26.4414
20
67.2846
30
0
0
VERTEX
8
0
10
27.286
20
67.2846
30
0
0
SEQEND
0
POLYLINE
66
1
8
16_copper
10
0.0
20
0.0
30
0.0
70
1
0
VERTEX
8
0
10
28.594
20
67.964
30
0
0
VERTEX
8
0
10
27.286
20
67.964
30
0
0
VERTEX
8
0
10
27.286
20
66.656
30
0
0
VERTEX
8
0
10
28.594
20
66.656
30
0
0
SEQEND
0
POLYLINE
66
1
8
1_copper
10
0.0
20
0.0
30
0.0
70
1
0
VERTEX
8
0
10
14.9369625
20
55.702681250000005
30
0
0
VERTEX
8
0
10
14.940871875000001
20
55.7024125
30
0
42
0.26405353948258586
0
VERTEX
8
0
10
15.003356250000001
20
55.744321875000004
30
0
0
VERTEX
8
0
10
15.05415625
20
55.845921875
30
0
0
VERTEX
8
0
10
15.061009375000001
20
55.86658125
30
0
42
0.8660557081395077
0
VERTEX
8
0
10
14.917843750000001
20
55.914078125
30
0
0
VERTEX
8
0
10
14.914325
20
55.9070375
30
0
0
VERTEX
8
0
10
9.39
20
61.431362500000006
30
0
0
VERTEX
8
0
10
9.39
20
62.36000000000001
30
0
0
VERTEX
8
0
10
8.39
20
62.36000000000001
30
0
0
VERTEX
8
0
10
8.39
20
61.260000000000005
30
0
0
VERTEX
8
0
10
9.3458375
20
61.260000000000005
30
0
0
VERTEX
8
0
10
14.88131875
20
55.72451875
30
0
0
VERTEX
8
0
10
14.88693125
20
55.720321875
30
0
0
VERTEX
8
0
10
14.892096875
20
55.715562500000004
30
0
42
0.14430379294282078
0
VERTEX
8
0
10
14.93306875
20
55.702231250000004
30
0
0
SEQEND
0
POLYLINE
66
1
8
1_copper
10
0.0
20
0.0
30
0.0
70
1
0
VERTEX
8
0
10
59.69561875
20
5.0046125
30
0
42
0.39258815634569955
0
VERTEX
8
0
10
59.766200000000005
20
5.08
30
0
0
VERTEX
8
0
10
59.766200000000005
20
100.1778
30
0
0
VERTEX
8
0
10
59.7653875
20
100.18341875
30
0
42
0.39258815634569955
0
VERTEX
8
0
10
59.690000000000005
20
100.254
30
0
0
VERTEX
8
0
10
1.27
20
100.254
30
0
0
VERTEX
8
0
10
1.26438125
20
100.25318750000001
30
0
42
0.39258815634569955
0
VERTEX
8
0
10
1.1938
20
100.1778
30
0
0
VERTEX
8
0
10
1.1938
20
56.754146875
30
0
0
VERTEX
8
0
10
1.1939375
20
56.753196875
30
0
0
VERTEX
8
0
10
1.1938250000000001
20
56.752253125
30
0
42
0.7522412617563078
0
VERTEX
8
0
10
1.335475
20
56.715165625000004
30
0
0
VERTEX
8
0
10
1.3404875
20
56.727046875
30
0
0
VERTEX
8
0
10
1.34333125
20
56.733440625
30
0
42
0.003360472159850895
0
VERTEX
8
0
10
1.343603125
20
56.734428125
30
0
0
VERTEX
8
0
10
1.383921875
20
56.884912500000006
30
0
0
VERTEX
8
0
10
1.7266812500000002
20
57.478584375000004
30
0
0
VERTEX
8
0
10
2.2114125000000002
20
57.963315625
30
0
0
VERTEX
8
0
10
2.8050843750000003
20
58.306075
30
0
0
VERTEX
8
0
10
3.467240625
20
58.483496875
30
0
0
VERTEX
8
0
10
4.15275625
20
58.483496875
30
0
0
VERTEX
8
0
10
4.8149125
20
58.306075
30
0
0
VERTEX
8
0
10
5.408584375
20
57.963315625
30
0
0
VERTEX
8
0
10
5.8933156250000005
20
57.478584375000004
30
0
0
VERTEX
8
0
10
6.2360750000000005
20
56.884912500000006
30
0
0
VERTEX
8
0
10
6.319053125
20
56.575218750000005
30
0
0
VERTEX
8
0
10
6.32055
20
56.571728125
30
0
0
VERTEX
8
0
10
6.3213718750000005
20
56.568015625
30
0
42
0.45857357158561096
0
VERTEX
8
0
10
6.429868750000001
20
56.52844375
30
0
0
VERTEX
8
0
10
6.43590625
20
56.533012500000005
30
0
0
VERTEX
8
0
10
6.441596875
20
56.536534375
30
0
42
0.021991156566380576
0
VERTEX
8
0
10
6.446537500000001
20
56.541059375
30
0
0
VERTEX
8
0
10
6.732928125
20
56.827453125000005
30
0
0
VERTEX
8
0
10
7.1436906250000005
20
56.997596875
30
0
0
VERTEX
8
0
10
7.5883062500000005
20
56.997596875
30
0
0
VERTEX
8
0
10
7.99906875
20
56.827453125000005
30
0
0
VERTEX
8
0
10
8.313453125
20
56.51306875
30
0
0
VERTEX
8
0
10
8.483596875
20
56.102306250000005
30
0
0
VERTEX
8
0
10
8.483596875
20
55.657690625
30
0
0
VERTEX
8
0
10
8.313453125
20
55.246928125000004
30
0
0
VERTEX
8
0
10
7.99906875
20
54.93254375
30
0
0
VERTEX
8
0
10
7.5883062500000005
20
54.7624
30
0
0
VERTEX
8
0
10
7.1436906250000005
20
54.7624
30
0
0
VERTEX
8
0
10
6.732928125
20
54.93254375
30
0
0
VERTEX
8
0
10
6.446537500000001
20
55.2189375
30
0
0
VERTEX
8
0
10
6.443503125
20
55.22120625
30
0
0
VERTEX
8
0
10
6.440928125
20
55.224018750000006
30
0
42
0.45856881271786387
0
VERTEX
8
0
10
6.327181250000001
20
55.204037500000005
30
0
0
VERTEX
8
0
10
6.324237500000001
20
55.197065625
30
0
0
VERTEX
8
0
10
6.32106875
20
55.191165625000004
30
0
42
0.021985649171908248
0
VERTEX
8
0
10
6.319053125
20
55.184778125
30
0
0
VERTEX
8
0
10
6.2360750000000005
20
54.875084375
30
0
0
VERTEX
8
0
10
5.8933156250000005
20
54.2814125
30
0
0
VERTEX
8
0
10
5.408584375
20
53.796681250000006
30
0
0
VERTEX
8
0
10
4.8149125
20
53.453921875000006
30
0
0
VERTEX
8
0
10
4.15275625
20
53.276500000000006
30
0
0
VERTEX
8
0
10
3.467240625
20
53.276500000000006
30
0
0
VERTEX
8
0
10
2.8050843750000003
20
53.453921875000006
30
0
0
VERTEX
8
0
10
2.2114125000000002
20
53.796681250000006
30
0
0
VERTEX
8
0
10
1.7266812500000002
20
54.2814125
30
0
0
VERTEX
8
0
10
1.383921875
20
54.875084375
30
0
0
VERTEX
8
0
10
1.343603125
20
55.025568750000005
30
0
0
VERTEX
8
0
10
1.343228125
20
55.026443750000006
30
0
0
VERTEX
8
0
10
1.343090625
20
55.02739375
30
0
42
0.7522484879196556
0
VERTEX
8
0
10
1.19666875
20
55.026556250000006
30
0
0
VERTEX
8
0
10
1.194903125
20
55.013803125
30
0
0
VERTEX
8
0
10
1.19380625
20
55.006875
30
0
42
0.003362946563043114
0
VERTEX
8
0
10
1.1938
20
55.00585
30
0
0
VERTEX
8
0
10
1.1938
20
9.9810125
30
0
0
VERTEX
8
0
10
1.19434375
20
9.97725625
30
0
0
VERTEX
8
0
10
1.194175
20
9.973453125
30
0
42
0.4585695399305796
0
VERTEX
8
0
10
1.288734375
20
9.90715
30
0
0
VERTEX
8
0
10
1.29575
20
9.910003125000001
30
0
0
VERTEX
8
0
10
1.302159375
20
9.91193125
30
0
42
0.021980788444165286
0
VERTEX
8
0
10
1.3081
20
9.915021875
30
0
0
VERTEX
8
0
10
1.535084375
20
10.046075
30
0
0
VERTEX
8
0
10
2.197240625
20
10.223496875
30
0
0
VERTEX
8
0
10
2.8827562500000004
20
10.223496875
30
0
0
VERTEX
8
0
10
3.5449125
20
10.046075
30
0
0
VERTEX
8
0
10
4.138584375
20
9.703315625
30
0
0
VERTEX
8
0
10
4.623315625
20
9.218584375
30
0
0
VERTEX
8
0
10
4.966075
20
8.6249125
30
0
0
VERTEX
8
0
10
5.143496875
20
7.96275625
30
0
0
VERTEX
8
0
10
5.143496875
20
7.277240625
30
0
0
VERTEX
8
0
10
4.966075
20
6.615084375
30
0
0
VERTEX
8
0
10
4.623315625
20
6.0214125
30
0
0
VERTEX
8
0
10
4.138584375
20
5.53668125
30
0
0
VERTEX
8
0
10
3.5449125
20
5.193921875
30
0
0
VERTEX
8
0
10
3.394428125
20
5.153603125
30
0
0
VERTEX
8
0
10
3.393553125
20
5.153228125
30
0
0
VERTEX
8
0
10
3.392603125
20
5.153090625
30
0
42
0.7522484879196556
0
VERTEX
8
0
10
3.393440625
20
5.00666875
30
0
0
VERTEX
8
0
10
3.4061937500000004
20
5.004903125
30
0
0
VERTEX
8
0
10
3.4131218750000003
20
5.00380625
30
0
42
0.003362946563043114
0
VERTEX
8
0
10
3.414146875
20
5.0038
30
0
0
VERTEX
8
0
10
59.690000000000005
20
5.0038
30
0
0
SEQEND
0
POLYLINE
66
1
8
1_copper
10
0.0
20
0.0
30
0.0
70
1
0
VERTEX
8
0
10
25.965709375000003
20
6.1722
30
0
0
VERTEX
8
0
10
25.2222
20
6.9157093750000005
30
0
0
VERTEX
8
0
10
25.2222
20
6.953303125000001
30
0
42
0.6592856154767068
0
VERTEX
8
0
10
25.081512500000002
20
6.9939
30
0
0
VERTEX
8
0
10
25.07918125
20
6.98865625
30
0
0
VERTEX
8
0
10
24.763068750000002
20
6.67254375
30
0
0
VERTEX
8
0
10
24.35230625
20
6.502400000000001
30
0
0
VERTEX
8
0
10
23.907690625
20
6.502400000000001
30
0
0
VERTEX
8
0
10
23.496928125
20
6.67254375
30
0
0
VERTEX
8
0
10
23.18254375
20
6.986928125
30
0
0
VERTEX
8
0
10
23.0124
20
7.397690625
30
0
0
VERTEX
8
0
10
23.0124
20
7.84230625
30
0
0
VERTEX
8
0
10
23.18254375
20
8.25306875
30
0
0
VERTEX
8
0
10
23.496928125
20
8.567453125
30
0
0
VERTEX
8
0
10
23.907690625
20
8.737596875000001
30
0
0
VERTEX
8
0
10
24.35230625
20
8.737596875000001
30
0
0
VERTEX
8
0
10
24.763068750000002
20
8.567453125
30
0
0
VERTEX
8
0
10
25.079290625000002
20
8.25123125
30
0
0
VERTEX
8
0
10
25.081981250000002
20
8.2453625
30
0
42
0.7477774313238661
0
VERTEX
8
0
10
25.2222
20
8.28669375
30
0
0
VERTEX
8
0
10
25.2222
20
41.021746875000005
30
0
0
VERTEX
8
0
10
25.220984375
20
41.030175
30
0
0
VERTEX
8
0
10
25.220303125
20
41.038640625
30
0
42
0.08765396656356698
0
VERTEX
8
0
10
25.21001875
20
41.063078125000004
30
0
0
VERTEX
8
0
10
25.205146875
20
41.068671875
30
0
0
VERTEX
8
0
10
25.19988125
20
41.075628125
30
0
0
VERTEX
8
0
10
10.985384375
20
55.290125
30
0
0
VERTEX
8
0
10
10.977640625000001
20
55.295915625
30
0
0
VERTEX
8
0
10
10.970040625000001
20
55.301981250000004
30
0
42
0.26025710324501267
0
VERTEX
8
0
10
10.896125000000001
20
55.302859375000004
30
0
0
VERTEX
8
0
10
10.887456250000001
20
55.298425
30
0
0
VERTEX
8
0
10
10.886575
20
55.297587500000006
30
0
0
VERTEX
8
0
10
10.885521875
20
55.29700625
30
0
42
0.05399806128491739
0
VERTEX
8
0
10
10.870218750000001
20
55.281528125
30
0
0
VERTEX
8
0
10
10.8665125
20
55.274628125
30
0
0
VERTEX
8
0
10
10.8611
20
55.2654
30
0
0
VERTEX
8
0
10
10.853446875000001
20
55.246921875000005
30
0
0
VERTEX
8
0
10
10.53906875
20
54.93254375
30
0
0
VERTEX
8
0
10
10.12830625
20
54.7624
30
0
0
VERTEX
8
0
10
9.683690625
20
54.7624
30
0
0
VERTEX
8
0
10
9.272928125
20
54.93254375
30
0
0
VERTEX
8
0
10
8.95854375
20
55.246928125000004
30
0
0
VERTEX
8
0
10
8.788400000000001
20
55.657690625
30
0
0
VERTEX
8
0
10
8.788400000000001
20
56.102306250000005
30
0
0
VERTEX
8
0
10
8.95854375
20
56.51306875
30
0
0
VERTEX
8
0
10
9.272928125
20
56.827453125000005
30
0
0
VERTEX
8
0
10
9.683690625
20
56.997596875
30
0
0
VERTEX
8
0
10
10.12830625
20
56.997596875
30
0
0
VERTEX
8
0
10
10.53906875
20
56.827453125000005
30
0
0
VERTEX
8
0
10
10.766518750000001
20
56.6
30
0
0
VERTEX
8
0
10
10.768796875000001
20
56.598296875
30
0
0
VERTEX
8
0
10
10.770678125
20
56.596137500000005
30
0
42
0.5484095900174472
0
VERTEX
8
0
10
10.89373125
20
56.633175
30
0
0
VERTEX
8
0
10
10.89493125
20
56.6418375
30
0
0
VERTEX
8
0
10
10.896446875
20
56.649078125
30
0
42
0.015770375218223928
0
VERTEX
8
0
10
10.896600000000001
20
56.653881250000005
30
0
0
VERTEX
8
0
10
10.896600000000001
20
57.785746875
30
0
0
VERTEX
8
0
10
10.895384375
20
57.794175
30
0
0
VERTEX
8
0
10
10.894703125000001
20
57.802640625
30
0
42
0.08765396656356698
0
VERTEX
8
0
10
10.88441875
20
57.827078125
30
0
0
VERTEX
8
0
10
10.879546875
20
57.832671875
30
0
0
VERTEX
8
0
10
10.874281250000001
20
57.839628125000004
30
0
0
VERTEX
8
0
10
9.32863125
20
59.385281250000006
30
0
0
VERTEX
8
0
10
9.321846875
20
59.390353125000004
30
0
0
VERTEX
8
0
10
9.315346875000001
20
59.3958875
30
0
42
0.08765145259213399
0
VERTEX
8
0
10
9.29079375
20
59.405890625000005
30
0
0
VERTEX
8
0
10
9.283418750000001
20
59.406400000000005
30
0
0
VERTEX
8
0
10
9.274750000000001
20
59.4076
30
0
0
VERTEX
8
0
10
8.326871875
20
59.4076
30
0
0
VERTEX
8
0
10
8.2376
20
59.496871875000004
30
0
0
VERTEX
8
0
10
8.2376
20
60.444746875
30
0
0
VERTEX
8
0
10
8.236384375
20
60.453175
30
0
0
VERTEX
8
0
10
8.235703125
20
60.461640625
30
0
42
0.08765396656356698
0
VERTEX
8
0
10
8.225418750000001
20
60.486078125000006
30
0
0
VERTEX
8
0
10
8.220546875
20
60.491671875
30
0
0
VERTEX
8
0
10
8.21528125
20
60.498628125
30
0
0
VERTEX
8
0
10
7.8486
20
60.865309375
30
0
0
VERTEX
8
0
10
7.8486
20
63.3406875
30
0
0
VERTEX
8
0
10
7.995631250000001
20
63.487715625
30
0
0
VERTEX
8
0
10
7.9966187500000006
20
63.4890375
30
0
0
VERTEX
8
0
10
7.997896875
20
63.49008125
30
0
42
0.21834535467815266
0
VERTEX
8
0
10
8.017425000000001
20
63.550528125
30
0
0
VERTEX
8
0
10
8.014725
20
63.56088125
30
0
0
VERTEX
8
0
10
8.013034375
20
63.568521875
30
0
42
0.007884456392637858
0
VERTEX
8
0
10
8.01215
20
63.57075625
30
0
0
VERTEX
8
0
10
7.8994
20
63.842953125
30
0
0
VERTEX
8
0
10
7.8994
20
64.23704375
30
0
0
VERTEX
8
0
10
8.050209375
20
64.601128125
30
0
0
VERTEX
8
0
10
8.32886875
20
64.8797875
30
0
0
VERTEX
8
0
10
8.692953125
20
65.030596875
30
0
0
VERTEX
8
0
10
9.087043750000001
20
65.030596875
30
0
0
VERTEX
8
0
10
9.451128125
20
64.8797875
30
0
0
VERTEX
8
0
10
9.7297875
20
64.601128125
30
0
0
VERTEX
8
0
10
9.880596875
20
64.23704375
30
0
0
VERTEX
8
0
10
9.880596875
20
63.842953125
30
0
0
VERTEX
8
0
10
9.7297875
20
63.478868750000004
30
0
0
VERTEX
8
0
10
9.451128125
20
63.200209375
30
0
0
VERTEX
8
0
10
9.087043750000001
20
63.049400000000006
30
0
0
VERTEX
8
0
10
8.692953125
20
63.049400000000006
30
0
0
VERTEX
8
0
10
8.411156250000001
20
63.166125
30
0
0
VERTEX
8
0
10
8.401775
20
63.168515625000005
30
0
0
VERTEX
8
0
10
8.39245
20
63.171206250000004
30
0
42
0.38348119112289003
0
VERTEX
8
0
10
8.308046875
20
63.114109375000005
30
0
0
VERTEX
8
0
10
8.307259375000001
20
63.106284375
30
0
0
VERTEX
8
0
10
8.305796875
20
63.095725
30
0
0
VERTEX
8
0
10
8.305796875
20
62.588596875
30
0
0
VERTEX
8
0
10
8.306609375
20
62.582978125000004
30
0
42
0.39258815634569955
0
VERTEX
8
0
10
8.381996875
20
62.512396875
30
0
0
VERTEX
8
0
10
9.453125
20
62.512396875
30
0
0
VERTEX
8
0
10
9.542396875
20
62.423125000000006
30
0
0
VERTEX
8
0
10
9.542396875
20
61.526046875000006
30
0
0
VERTEX
8
0
10
9.5436125
20
61.517618750000004
30
0
0
VERTEX
8
0
10
9.54429375
20
61.509153125000005
30
0
42
0.08765396656356698
0
VERTEX
8
0
10
9.554578125
20
61.484715625
30
0
0
VERTEX
8
0
10
9.55945
20
61.479121875000004
30
0
0
VERTEX
8
0
10
9.564715625
20
61.472165625
30
0
0
VERTEX
8
0
10
14.227296875
20
56.809584375
30
0
0
VERTEX
8
0
10
14.231846875
20
56.80618125
30
0
42
0.2562206302442681
0
VERTEX
8
0
10
14.302975
20
56.791046875
30
0
0
VERTEX
8
0
10
14.308103125
20
56.792181250000006
30
0
42
0.07872288589567694
0
VERTEX
8
0
10
14.335059375
20
56.809584375
30
0
0
VERTEX
8
0
10
14.352928125
20
56.827453125000005
30
0
0
VERTEX
8
0
10
14.763690625
20
56.997596875
30
0
0
VERTEX
8
0
10
15.208306250000001
20
56.997596875
30
0
0
VERTEX
8
0
10
15.61906875
20
56.827453125000005
30
0
0
VERTEX
8
0
10
15.933453125000002
20
56.51306875
30
0
0
VERTEX
8
0
10
16.103596875
20
56.102306250000005
30
0
0
VERTEX
8
0
10
16.103596875
20
55.657690625
30
0
0
VERTEX
8
0
10
15.933453125000002
20
55.246928125000004
30
0
0
VERTEX
8
0
10
15.61906875
20
54.93254375
30
0
0
VERTEX
8
0
10
15.208306250000001
20
54.7624
30
0
0
VERTEX
8
0
10
14.763690625
20
54.7624
30
0
0
VERTEX
8
0
10
14.352928125
20
54.93254375
30
0
0
VERTEX
8
0
10
14.03854375
20
55.246928125000004
30
0
0
VERTEX
8
0
10
13.868400000000001
20
55.657690625
30
0
0
VERTEX
8
0
10
13.868400000000001
20
56.102306250000005
30
0
0
VERTEX
8
0
10
13.971815625000001
20
56.351975
30
0
0
VERTEX
8
0
10
13.972221875
20
56.353571875
30
0
0
VERTEX
8
0
10
13.973003125
20
56.355025000000005
30
0
42
0.21835452448693754
0
VERTEX
8
0
10
13.9679125
20
56.418346875000005
30
0
0
VERTEX
8
0
10
13.961465625
20
56.426862500000006
30
0
0
VERTEX
8
0
10
13.956968750000001
20
56.433290625000005
30
0
42
0.007881903973716804
0
VERTEX
8
0
10
13.955296875
20
56.435015625000005
30
0
0
VERTEX
8
0
10
9.672478125
20
60.717834375
30
0
0
VERTEX
8
0
10
9.670200000000001
20
60.7195375
30
0
0
VERTEX
8
0
10
9.668318750000001
20
60.721696875000006
30
0
42
0.5484095900174472
0
VERTEX
8
0
10
9.545265625
20
60.684659375
30
0
0
VERTEX
8
0
10
9.544065625
20
60.675996875
30
0
0
VERTEX
8
0
10
9.54255
20
60.66875625
30
0
42
0.015770375218223928
0
VERTEX
8
0
10
9.542396875
20
60.663953125000006
30
0
0
VERTEX
8
0
10
9.542396875
20
59.849646875000005
30
0
0
VERTEX
8
0
10
9.5436125
20
59.84121875
30
0
0
VERTEX
8
0
10
9.54429375
20
59.832753125
30
0
42
0.08765396656356698
0
VERTEX
8
0
10
9.554578125
20
59.808315625000006
30
0
0
VERTEX
8
0
10
9.55945
20
59.802721875
30
0
0
VERTEX
8
0
10
9.564715625
20
59.795765625
30
0
0
VERTEX
8
0
10
11.353796875
20
58.006687500000005
30
0
0
VERTEX
8
0
10
11.353796875
20
56.54669375
30
0
0
VERTEX
8
0
10
11.35478125
20
56.539871875
30
0
0
VERTEX
8
0
10
11.355040625
20
56.532984375000005
30
0
42
0.6005942515498801
0
VERTEX
8
0
10
11.494484375
20
56.506096875000004
30
0
0
VERTEX
8
0
10
11.496815625
20
56.511340625
30
0
0
VERTEX
8
0
10
11.812928125000001
20
56.827453125000005
30
0
0
VERTEX
8
0
10
12.223690625
20
56.997596875
30
0
0
VERTEX
8
0
10
12.66830625
20
56.997596875
30
0
0
VERTEX
8
0
10
13.079068750000001
20
56.827453125000005
30
0
0
VERTEX
8
0
10
13.393453125
20
56.51306875
30
0
0
VERTEX
8
0
10
13.563596875
20
56.102306250000005
30
0
0
VERTEX
8
0
10
13.563596875
20
55.657690625
30
0
0
VERTEX
8
0
10
13.393453125
20
55.246928125000004
30
0
0
VERTEX
8
0
10
13.079068750000001
20
54.93254375
30
0
0
VERTEX
8
0
10
12.66830625
20
54.7624
30
0
0
VERTEX
8
0
10
12.34364375
20
54.7624
30
0
0
VERTEX
8
0
10
12.3408125
20
54.761990625
30
0
0
VERTEX
8
0
10
12.337971875000001
20
54.7621875
30
0
42
0.548409711059846
0
VERTEX
8
0
10
12.277146875000001
20
54.648987500000004
30
0
0
VERTEX
8
0
10
12.282421875
20
54.642018750000005
30
0
0
VERTEX
8
0
10
12.286471875
20
54.635821875000005
30
0
42
0.015772426617527556
0
VERTEX
8
0
10
12.2897625
20
54.63231875
30
0
0
VERTEX
8
0
10
25.679396875000002
20
41.2426875
30
0
0
VERTEX
8
0
10
25.679396875000002
20
8.39388125
30
0
0
VERTEX
8
0
10
25.679806250000002
20
8.391053125000001
30
0
0
VERTEX
8
0
10
25.679609375000002
20
8.388209375
30
0
42
0.548409711059846
0
VERTEX
8
0
10
25.792809375
20
8.327384375000001
30
0
0
VERTEX
8
0
10
25.799778125
20
8.332659375
30
0
0
VERTEX
8
0
10
25.805975
20
8.336709375
30
0
42
0.015772426617527556
0
VERTEX
8
0
10
25.809478125000002
20
8.34
30
0
0
VERTEX
8
0
10
26.036928125000003
20
8.567453125
30
0
0
VERTEX
8
0
10
26.394359375
20
8.71550625
30
0
0
VERTEX
8
0
10
26.395778125
20
8.71635
30
0
0
VERTEX
8
0
10
26.397359375
20
8.716825
30
0
42
0.2183495123382137
0
VERTEX
8
0
10
26.43853125
20
8.7652
30
0
0
VERTEX
8
0
10
26.439993750000003
20
8.775759375
30
0
0
VERTEX
8
0
10
26.4413625
20
8.783503125000001
30
0
42
0.00788569762177906
0
VERTEX
8
0
10
26.4414
20
8.78590625
30
0
0
VERTEX
8
0
10
26.4414
20
55.042546875
30
0
0
VERTEX
8
0
10
26.440184375
20
55.050975
30
0
0
VERTEX
8
0
10
26.439503125
20
55.059440625
30
0
42
0.08765396656356698
0
VERTEX
8
0
10
26.42921875
20
55.083878125000005
30
0
0
VERTEX
8
0
10
26.424346875
20
55.089471875
30
0
0
VERTEX
8
0
10
26.41908125
20
55.096428125
30
0
0
VERTEX
8
0
10
26.292828125
20
55.22268125
30
0
0
VERTEX
8
0
10
26.2253875
20
55.290125
30
0
0
VERTEX
8
0
10
26.21763125
20
55.295925000000004
30
0
0
VERTEX
8
0
10
26.210046875
20
55.301978125000005
30
0
42
0.2605589972966869
0
VERTEX
8
0
10
26.136056250000003
20
55.302821875
30
0
0
VERTEX
8
0
10
26.127465625000003
20
55.298428125
30
0
0
VERTEX
8
0
10
26.126590625000002
20
55.297596875
30
0
0
VERTEX
8
0
10
26.125525
20
55.297009375
30
0
42
0.05400085613271398
0
VERTEX
8
0
10
26.110221875
20
55.281528125
30
0
0
VERTEX
8
0
10
26.1065
20
55.274603125000006
30
0
0
VERTEX
8
0
10
26.10110625
20
55.265403125000006
30
0
0
VERTEX
8
0
10
26.093453125
20
55.246928125000004
30
0
0
VERTEX
8
0
10
25.77906875
20
54.93254375
30
0
0
VERTEX
8
0
10
25.36830625
20
54.7624
30
0
0
VERTEX
8
0
10
24.923690625000003
20
54.7624
30
0
0
VERTEX
8
0
10
24.512928125000002
20
54.93254375
30
0
0
VERTEX
8
0
10
24.198543750000002
20
55.246928125000004
30
0
0
VERTEX
8
0
10
24.0284
20
55.657690625
30
0
0
VERTEX
8
0
10
24.0284
20
56.102306250000005
30
0
0
VERTEX
8
0
10
24.198543750000002
20
56.51306875
30
0
0
VERTEX
8
0
10
24.512928125000002
20
56.827453125000005
30
0
0
VERTEX
8
0
10
24.923690625000003
20
56.997596875
30
0
0
VERTEX
8
0
10
25.36830625
20
56.997596875
30
0
0
VERTEX
8
0
10
25.77906875
20
56.827453125000005
30
0
0
VERTEX
8
0
10
26.00651875
20
56.6
30
0
0
VERTEX
8
0
10
26.008796875
20
56.598296875
30
0
0
VERTEX
8
0
10
26.010678125000002
20
56.596137500000005
30
0
42
0.5484095900174472
0
VERTEX
8
0
10
26.13373125
20
56.633175
30
0
0
VERTEX
8
0
10
26.13493125
20
56.6418375
30
0
0
VERTEX
8
0
10
26.136446875
20
56.649078125
30
0
42
0.015770375218223928
0
VERTEX
8
0
10
26.1366
20
56.653881250000005
30
0
0
VERTEX
8
0
10
26.1366
20
67.056
30
0
0
VERTEX
8
0
10
26.135787500000003
20
67.06161875000001
30
0
42
0.39258815634569955
0
VERTEX
8
0
10
26.0604
20
67.1322
30
0
0
VERTEX
8
0
10
18.955309375000002
20
67.1322
30
0
0
VERTEX
8
0
10
14.559453125000001
20
71.52805625
30
0
0
VERTEX
8
0
10
14.55813125
20
71.52904375
30
0
0
VERTEX
8
0
10
14.557087500000002
20
71.530321875
30
0
42
0.21834535467815266
0
VERTEX
8
0
10
14.496640625000001
20
71.54985
30
0
0
VERTEX
8
0
10
14.486287500000001
20
71.54715
30
0
0
VERTEX
8
0
10
14.478646875
20
71.54545937500001
30
0
42
0.007884456392637858
0
VERTEX
8
0
10
14.4764125
20
71.54457500000001
30
0
0
VERTEX
8
0
10
14.187253125
20
71.4248
30
0
0
VERTEX
8
0
10
13.75274375
20
71.4248
30
0
0
VERTEX
8
0
10
13.351315625
20
71.59107812500001
30
0
0
VERTEX
8
0
10
13.044078125
20
71.89831562500001
30
0
0
VERTEX
8
0
10
12.8778
20
72.29974375
30
0
0
VERTEX
8
0
10
12.8778
20
72.73425312500001
30
0
0
VERTEX
8
0
10
12.997575000000001
20
73.0234125
30
0
0
VERTEX
8
0
10
12.99798125
20
73.02500937500001
30
0
0
VERTEX
8
0
10
12.9987625
20
73.02646250000001
30
0
42
0.21835452448693754
0
VERTEX
8
0
10
12.993671875
20
73.08978437500001
30
0
0
VERTEX
8
0
10
12.987225
20
73.09830000000001
30
0
0
VERTEX
8
0
10
12.982728125000001
20
73.10472812500001
30
0
42
0.007881903973716804
0
VERTEX
8
0
10
12.98105625
20
73.106453125
30
0
0
VERTEX
8
0
10
12.576828125
20
73.51068125
30
0
0
VERTEX
8
0
10
12.57004375
20
73.515753125
30
0
0
VERTEX
8
0
10
12.563543750000001
20
73.5212875
30
0
42
0.08765145259213399
0
VERTEX
8
0
10
12.538990625
20
73.531290625
30
0
0
VERTEX
8
0
10
12.531615625
20
73.5318
30
0
0
VERTEX
8
0
10
12.522946875
20
73.533
30
0
0
VERTEX
8
0
10
9.602559375
20
73.533
30
0
0
VERTEX
8
0
10
9.599728125
20
73.532590625
30
0
0
VERTEX
8
0
10
9.596887500000001
20
73.5327875
30
0
42
0.548409711059846
0
VERTEX
8
0
10
9.5360625
20
73.4195875
30
0
0
VERTEX
8
0
10
9.541337500000001
20
73.41261875000001
30
0
0
VERTEX
8
0
10
9.5453875
20
73.406421875
30
0
42
0.015772426617527556
0
VERTEX
8
0
10
9.548678125
20
73.40291875
30
0
0
VERTEX
8
0
10
9.81591875
20
73.13568125
30
0
0
VERTEX
8
0
10
9.982196875
20
72.73425312500001
30
0
0
VERTEX
8
0
10
9.982196875
20
72.29974375
30
0
0
VERTEX
8
0
10
9.81591875
20
71.89831562500001
30
0
0
VERTEX
8
0
10
9.50868125
20
71.59107812500001
30
0
0
VERTEX
8
0
10
9.2672375
20
71.49106875
30
0
0
VERTEX
8
0
10
9.265818750000001
20
71.49022500000001
30
0
0
VERTEX
8
0
10
9.2642375
20
71.48975
30
0
42
0.2183495123382137
0
VERTEX
8
0
10
9.223065625
20
71.44137500000001
30
0
0
VERTEX
8
0
10
9.221603125
20
71.43081562500001
30
0
0
VERTEX
8
0
10
9.220234375
20
71.423071875
30
0
42
0.00788569762177906
0
VERTEX
8
0
10
9.220196875000001
20
71.42066875
30
0
0
VERTEX
8
0
10
9.220196875000001
20
71.29705
30
0
0
VERTEX
8
0
10
9.2210125
20
71.29140000000001
30
0
0
VERTEX
8
0
10
9.221040625
20
71.286484375
30
0
0
VERTEX
8
0
10
9.221784375
20
71.28401562500001
30
0
0
VERTEX
8
0
10
9.22209375
20
71.28015625
30
0
42
0.015770042330091556
0
VERTEX
8
0
10
9.22330625
20
71.27550625
30
0
0
VERTEX
8
0
10
9.226334375
20
71.26890312500001
30
0
0
VERTEX
8
0
10
9.227315625000001
20
71.265640625
30
0
0
VERTEX
8
0
10
9.228175
20
71.264325
30
0
0
VERTEX
8
0
10
9.2299
20
71.2598375
30
0
42
0.015773954014740632
0
VERTEX
8
0
10
9.232378125
20
71.25571875
30
0
0
VERTEX
8
0
10
9.237250000000001
20
71.250125
30
0
0
VERTEX
8
0
10
9.238771875000001
20
71.248115625
30
0
0
VERTEX
8
0
10
9.239225000000001
20
71.247421875
30
0
0
VERTEX
8
0
10
9.239425
20
71.24725000000001
30
0
0
VERTEX
8
0
10
9.242515625000001
20
71.24316875000001
30
0
0
VERTEX
8
0
10
22.783796875
20
57.701887500000005
30
0
0
VERTEX
8
0
10
22.783796875
20
57.066946875
30
0
0
VERTEX
8
0
10
22.784034375
20
57.065309375000005
30
0
0
VERTEX
8
0
10
22.78386875
20
57.063671875000004
30
0
42
0.21834638570063183
0
VERTEX
8
0
10
22.812803125000002
20
57.007121875
30
0
0
VERTEX
8
0
10
22.822015625000002
20
57.00171875
30
0
0
VERTEX
8
0
10
22.82863125
20
56.997503125
30
0
42
0.007889569284554799
0
VERTEX
8
0
10
22.8308375
20
56.996546875
30
0
0
VERTEX
8
0
10
23.23906875
20
56.827453125000005
30
0
0
VERTEX
8
0
10
23.553453125
20
56.51306875
30
0
0
VERTEX
8
0
10
23.723596875000002
20
56.102306250000005
30
0
0
VERTEX
8
0
10
23.723596875000002
20
55.657690625
30
0
0
VERTEX
8
0
10
23.553453125
20
55.246928125000004
30
0
0
VERTEX
8
0
10
23.23906875
20
54.93254375
30
0
0
VERTEX
8
0
10
22.82830625
20
54.7624
30
0
0
VERTEX
8
0
10
22.383690625
20
54.7624
30
0
0
VERTEX
8
0
10
21.972928125000003
20
54.93254375
30
0
0
VERTEX
8
0
10
21.65854375
20
55.246928125000004
30
0
0
VERTEX
8
0
10
21.488400000000002
20
55.657690625
30
0
0
VERTEX
8
0
10
21.488400000000002
20
56.102306250000005
30
0
0
VERTEX
8
0
10
21.65854375
20
56.51306875
30
0
0
VERTEX
8
0
10
21.972928125000003
20
56.827453125000005
30
0
0
VERTEX
8
0
10
22.279559375
20
56.954462500000005
30
0
0
VERTEX
8
0
10
22.280978125
20
56.95530625
30
0
0
VERTEX
8
0
10
22.282559375
20
56.95578125
30
0
42
0.2183495123382137
0
VERTEX
8
0
10
22.32373125
20
57.00415625
30
0
0
VERTEX
8
0
10
22.32519375
20
57.014715625
30
0
0
VERTEX
8
0
10
22.3265625
20
57.022459375000004
30
0
42
0.00788569762177906
0
VERTEX
8
0
10
22.326600000000003
20
57.024862500000005
30
0
0
VERTEX
8
0
10
22.326600000000003
20
57.480946875
30
0
0
VERTEX
8
0
10
22.325384375000002
20
57.489375
30
0
0
VERTEX
8
0
10
22.324703125000003
20
57.497840625
30
0
42
0.08765396656356698
0
VERTEX
8
0
10
22.31441875
20
57.522278125
30
0
0
VERTEX
8
0
10
22.309546875000002
20
57.527871875
30
0
0
VERTEX
8
0
10
22.304281250000003
20
57.534828125000004
30
0
0
VERTEX
8
0
10
9.197878125
20
70.64123437500001
30
0
0
VERTEX
8
0
10
9.1956
20
70.6429375
30
0
0
VERTEX
8
0
10
9.19371875
20
70.64509687500001
30
0
42
0.5484095900174472
0
VERTEX
8
0
10
9.070665625
20
70.608059375
30
0
0
VERTEX
8
0
10
9.069465625000001
20
70.599396875
30
0
0
VERTEX
8
0
10
9.06795
20
70.59215625
30
0
42
0.015770375218223928
0
VERTEX
8
0
10
9.067796875
20
70.587353125
30
0
0
VERTEX
8
0
10
9.067796875
20
69.089484375
30
0
0
VERTEX
8
0
10
9.068034375
20
69.087846875
30
0
0
VERTEX
8
0
10
9.06786875
20
69.08620937500001
30
0
42
0.21834638570063183
0
VERTEX
8
0
10
9.096803125000001
20
69.02965937500001
30
0
0
VERTEX
8
0
10
9.106015625000001
20
69.02425625000001
30
0
0
VERTEX
8
0
10
9.1063875
20
69.02401875
30
0
42
0.0049214906490037515
0
VERTEX
8
0
10
9.107643750000001
20
69.02321875
30
0
0
VERTEX
8
0
10
9.11263125
20
69.02004062500001
30
0
42
0.007889569284554799
0
VERTEX
8
0
10
9.1148375
20
69.019084375
30
0
0
VERTEX
8
0
10
9.451128125
20
68.8797875
30
0
0
VERTEX
8
0
10
9.7297875
20
68.601128125
30
0
0
VERTEX
8
0
10
9.880596875
20
68.23704375
30
0
0
VERTEX
8
0
10
9.880596875
20
67.84295312500001
30
0
0
VERTEX
8
0
10
9.7297875
20
67.47886875
30
0
0
VERTEX
8
0
10
9.451128125
20
67.200209375
30
0
0
VERTEX
8
0
10
9.087043750000001
20
67.0494
30
0
0
VERTEX
8
0
10
8.692953125
20
67.0494
30
0
0
VERTEX
8
0
10
8.32886875
20
67.200209375
30
0
0
VERTEX
8
0
10
8.050209375
20
67.47886875
30
0
0
VERTEX
8
0
10
7.8994
20
67.84295312500001
30
0
0
VERTEX
8
0
10
7.8994
20
68.23704375
30
0
0
VERTEX
8
0
10
8.050209375
20
68.601128125
30
0
0
VERTEX
8
0
10
8.32886875
20
68.8797875
30
0
0
VERTEX
8
0
10
8.563559375
20
68.977
30
0
0
VERTEX
8
0
10
8.564978125
20
68.97784375
30
0
0
VERTEX
8
0
10
8.566559375
20
68.97831875
30
0
42
0.2183495123382137
0
VERTEX
8
0
10
8.60773125
20
69.02669375
30
0
0
VERTEX
8
0
10
8.609193750000001
20
69.037253125
30
0
0
VERTEX
8
0
10
8.6105625
20
69.04499687500001
30
0
42
0.00788569762177906
0
VERTEX
8
0
10
8.6106
20
69.04740000000001
30
0
0
VERTEX
8
0
10
8.6106
20
70.73974687500001
30
0
0
VERTEX
8
0
10
8.609384375000001
20
70.748175
30
0
0
VERTEX
8
0
10
8.608703125
20
70.756640625
30
0
42
0.08765396656356698
0
VERTEX
8
0
10
8.59841875
20
70.78107812500001
30
0
0
VERTEX
8
0
10
8.593546875000001
20
70.78667187500001
30
0
0
VERTEX
8
0
10
8.58828125
20
70.793628125
30
0
0
VERTEX
8
0
10
7.491778125000001
20
71.89013125000001
30
0
0
VERTEX
8
0
10
7.484021875000001
20
71.89593125
30
0
0
VERTEX
8
0
10
7.4764375
20
71.901984375
30
0
42
0.3834733377546366
0
VERTEX
8
0
10
7.3766125
20
71.881534375
30
0
0
VERTEX
8
0
10
7.372890625
20
71.874609375
30
0
0
VERTEX
8
0
10
7.3674968750000005
20
71.865409375
30
0
0
VERTEX
8
0
10
7.275918750000001
20
71.644315625
30
0
0
VERTEX
8
0
10
6.96868125
20
71.337078125
30
0
0
VERTEX
8
0
10
6.567253125000001
20
71.1708
30
0
0
VERTEX
8
0
10
6.13274375
20
71.1708
30
0
0
VERTEX
8
0
10
5.731315625000001
20
71.337078125
30
0
0
VERTEX
8
0
10
5.424078125
20
71.644315625
30
0
0
VERTEX
8
0
10
5.2578000000000005
20
72.04574375
30
0
0
VERTEX
8
0
10
5.2578000000000005
20
72.480253125
30
0
0
VERTEX
8
0
10
5.424078125
20
72.88168125
30
0
0
VERTEX
8
0
10
5.731315625000001
20
73.18891875
30
0
0
VERTEX
8
0
10
6.13274375
20
73.355196875
30
0
0
VERTEX
8
0
10
6.567253125000001
20
73.355196875
30
0
0
VERTEX
8
0
10
6.96868125
20
73.18891875
30
0
0
VERTEX
8
0
10
7.26131875
20
72.89627812500001
30
0
0
VERTEX
8
0
10
7.263596875
20
72.894575
30
0
0
VERTEX
8
0
10
7.2654781250000005
20
72.892415625
30
0
42
0.5484095900174472
0
VERTEX
8
0
10
7.388531250000001
20
72.92945312500001
30
0
0
VERTEX
8
0
10
7.3897312500000005
20
72.93811562500001
30
0
0
VERTEX
8
0
10
7.391246875
20
72.94535625
30
0
42
0.015770375218223928
0
VERTEX
8
0
10
7.3914
20
72.950159375
30
0
0
VERTEX
8
0
10
7.3914
20
73.09428750000001
30
0
0
VERTEX
8
0
10
8.287309375
20
73.99019687500001
30
0
0
VERTEX
8
0
10
12.743887500000001
20
73.99019687500001
30
0
0
VERTEX
8
0
10
13.272778125
20
73.461303125
30
0
0
VERTEX
8
0
10
13.2741
20
73.460315625
30
0
0
VERTEX
8
0
10
13.27514375
20
73.45903750000001
30
0
42
0.21834535467815266
0
VERTEX
8
0
10
13.335590625
20
73.439509375
30
0
0
VERTEX
8
0
10
13.34594375
20
73.442209375
30
0
0
VERTEX
8
0
10
13.353584375
20
73.4439
30
0
42
0.007884456392637858
0
VERTEX
8
0
10
13.355818750000001
20
73.444784375
30
0
0
VERTEX
8
0
10
13.75274375
20
73.60919687500001
30
0
0
VERTEX
8
0
10
14.187253125
20
73.60919687500001
30
0
0
VERTEX
8
0
10
14.58868125
20
73.44291875
30
0
0
VERTEX
8
0
10
14.89591875
20
73.13568125
30
0
0
VERTEX
8
0
10
15.062196875000001
20
72.73425312500001
30
0
0
VERTEX
8
0
10
15.062196875000001
20
72.29974375
30
0
0
VERTEX
8
0
10
14.897784375
20
71.902821875
30
0
0
VERTEX
8
0
10
14.897378125000001
20
71.901225
30
0
0
VERTEX
8
0
10
14.896596875
20
71.899771875
30
0
42
0.21835452448693754
0
VERTEX
8
0
10
14.901687500000001
20
71.83645
30
0
0
VERTEX
8
0
10
14.908134375000001
20
71.827934375
30
0
0
VERTEX
8
0
10
14.91263125
20
71.82150625
30
0
42
0.007881903973716804
0
VERTEX
8
0
10
14.914303125
20
71.81978125
30
0
0
VERTEX
8
0
10
19.12236875
20
67.611715625
30
0
0
VERTEX
8
0
10
19.129153125000002
20
67.60664375
30
0
0
VERTEX
8
0
10
19.135653125
20
67.60110937500001
30
0
42
0.08765145259213399
0
VERTEX
8
0
10
19.16020625
20
67.59110625000001
30
0
0
VERTEX
8
0
10
19.16758125
20
67.590596875
30
0
0
VERTEX
8
0
10
19.17625
20
67.589396875
30
0
0
VERTEX
8
0
10
26.67
20
67.589396875
30
0
0
VERTEX
8
0
10
26.67561875
20
67.590209375
30
0
42
0.39258815634569955
0
VERTEX
8
0
10
26.7462
20
67.665596875
30
0
0
VERTEX
8
0
10
26.7462
20
88.1818875
30
0
0
VERTEX
8
0
10
31.44828125
20
92.88396875000001
30
0
0
VERTEX
8
0
10
31.45159375
20
92.8884
30
0
0
VERTEX
8
0
10
31.45214375
20
92.888878125
30
0
0
VERTEX
8
0
10
31.45325
20
92.8906125
30
0
0
VERTEX
8
0
10
31.453353125000003
20
92.890753125
30
0
0
VERTEX
8
0
10
31.458887500000003
20
92.897253125
30
0
42
0.015769721011977475
0
VERTEX
8
0
10
31.461315625
20
92.90140000000001
30
0
0
VERTEX
8
0
10
31.462975
20
92.905871875
30
0
0
VERTEX
8
0
10
31.463843750000002
20
92.907234375
30
0
0
VERTEX
8
0
10
31.464803125000003
20
92.910559375
30
0
0
VERTEX
8
0
10
31.46773125
20
92.91714375000001
30
0
42
0.015766932116074574
0
VERTEX
8
0
10
31.468890625
20
92.92180625
30
0
0
VERTEX
8
0
10
31.469153125000002
20
92.925628125
30
0
0
VERTEX
8
0
10
31.46988125
20
92.92814687500001
30
0
0
VERTEX
8
0
10
31.469856250000003
20
92.93248125000001
30
0
0
VERTEX
8
0
10
31.4706
20
92.93785
30
0
0
VERTEX
8
0
10
31.4706
20
93.06373437500001
30
0
0
VERTEX
8
0
10
31.4703625
20
93.06537187500001
30
0
0
VERTEX
8
0
10
31.470528125
20
93.067009375
30
0
42
0.21834638570063183
0
VERTEX
8
0
10
31.441593750000003
20
93.123559375
30
0
0
VERTEX
8
0
10
31.432381250000002
20
93.1289625
30
0
0
VERTEX
8
0
10
31.425765625
20
93.133178125
30
0
42
0.007889569284554799
0
VERTEX
8
0
10
31.423559375
20
93.134134375
30
0
0
VERTEX
8
0
10
31.2365625
20
93.211590625
30
0
0
VERTEX
8
0
10
30.981590625000003
20
93.46656250000001
30
0
0
VERTEX
8
0
10
30.843600000000002
20
93.79970312500001
30
0
0
VERTEX
8
0
10
30.843600000000002
20
94.16029375000001
30
0
0
VERTEX
8
0
10
30.981590625000003
20
94.493434375
30
0
0
VERTEX
8
0
10
31.2365625
20
94.74840625
30
0
0
VERTEX
8
0
10
31.569703125
20
94.886396875
30
0
0
VERTEX
8
0
10
31.93029375
20
94.886396875
30
0
0
VERTEX
8
0
10
32.263434375
20
94.74840625
30
0
0
VERTEX
8
0
10
32.51840625
20
94.493434375
30
0
0
VERTEX
8
0
10
32.656396875
20
94.16029375000001
30
0
0
VERTEX
8
0
10
32.656396875
20
93.79970312500001
30
0
0
VERTEX
8
0
10
32.51840625
20
93.46656250000001
30
0
0
VERTEX
8
0
10
32.263434375
20
93.211590625
30
0
0
VERTEX
8
0
10
31.974837500000003
20
93.09205
30
0
0
VERTEX
8
0
10
31.97341875
20
93.09120625
30
0
0
VERTEX
8
0
10
31.971837500000003
20
93.09073125
30
0
42
0.2183495123382137
0
VERTEX
8
0
10
31.930665625000003
20
93.04235625
30
0
0
VERTEX
8
0
10
31.929203125
20
93.031796875
30
0
0
VERTEX
8
0
10
31.927834375
20
93.02405312500001
30
0
42
0.00788569762177906
0
VERTEX
8
0
10
31.927796875000002
20
93.02165000000001
30
0
0
VERTEX
8
0
10
31.927796875000002
20
92.716909375
30
0
0
VERTEX
8
0
10
31.687362500000003
20
92.476478125
30
0
0
VERTEX
8
0
10
31.685659375
20
92.47420000000001
30
0
0
VERTEX
8
0
10
31.683500000000002
20
92.47231875
30
0
42
0.5484095900174472
0
VERTEX
8
0
10
31.720537500000002
20
92.349265625
30
0
0
VERTEX
8
0
10
31.729200000000002
20
92.348065625
30
0
0
VERTEX
8
0
10
31.736440625
20
92.34655000000001
30
0
42
0.015770375218223928
0
VERTEX
8
0
10
31.741243750000002
20
92.34639687500001
30
0
0
VERTEX
8
0
10
31.93029375
20
92.34639687500001
30
0
0
VERTEX
8
0
10
32.263434375
20
92.20840625000001
30
0
0
VERTEX
8
0
10
32.51840625
20
91.953434375
30
0
0
VERTEX
8
0
10
32.656396875
20
91.62029375
30
0
0
VERTEX
8
0
10
32.656396875
20
91.259703125
30
0
0
VERTEX
8
0
10
32.51840625
20
90.9265625
30
0
0
VERTEX
8
0
10
32.263434375
20
90.67159062500001
30
0
0
VERTEX
8
0
10
31.93029375
20
90.5336
30
0
0
VERTEX
8
0
10
31.569703125
20
90.5336
30
0
0
VERTEX
8
0
10
31.2365625
20
90.67159062500001
30
0
0
VERTEX
8
0
10
30.981590625000003
20
90.9265625
30
0
0
VERTEX
8
0
10
30.843600000000002
20
91.259703125
30
0
0
VERTEX
8
0
10
30.843600000000002
20
91.44875312500001
30
0
0
VERTEX
8
0
10
30.843190625000002
20
91.45158437500001
30
0
0
VERTEX
8
0
10
30.843387500000002
20
91.454425
30
0
42
0.548409711059846
0
VERTEX
8
0
10
30.730187500000003
20
91.51525000000001
30
0
0
VERTEX
8
0
10
30.72321875
20
91.50997500000001
30
0
0
VERTEX
8
0
10
30.717021875
20
91.505925
30
0
42
0.015772426617527556
0
VERTEX
8
0
10
30.713518750000002
20
91.502634375
30
0
0
VERTEX
8
0
10
27.225715625000003
20
88.01482812500001
30
0
0
VERTEX
8
0
10
27.22064375
20
88.00804375
30
0
0
VERTEX
8
0
10
27.215109375
20
88.00154375000001
30
0
42
0.08765145259213399
0
VERTEX
8
0
10
27.20510625
20
87.976990625
30
0
0
VERTEX
8
0
10
27.204596875
20
87.969615625
30
0
0
VERTEX
8
0
10
27.203396875000003
20
87.960946875
30
0
0
VERTEX
8
0
10
27.203396875000003
20
75.517775
30
0
0
VERTEX
8
0
10
27.203806250000003
20
75.514946875
30
0
0
VERTEX
8
0
10
27.203609375000003
20
75.5121
30
0
42
0.5483964118425825
0
VERTEX
8
0
10
27.316809375000002
20
75.451278125
30
0
0
VERTEX
8
0
10
27.323778125
20
75.456553125
30
0
0
VERTEX
8
0
10
27.329975
20
75.460603125
30
0
42
0.015772426617527556
0
VERTEX
8
0
10
27.333478125000003
20
75.46389375
30
0
0
VERTEX
8
0
10
27.483209375
20
75.613628125
30
0
0
VERTEX
8
0
10
27.77959375
20
75.736396875
30
0
0
VERTEX
8
0
10
28.100403125
20
75.736396875
30
0
0
VERTEX
8
0
10
28.396787500000002
20
75.613628125
30
0
0
VERTEX
8
0
10
28.623628125
20
75.3867875
30
0
0
VERTEX
8
0
10
28.746396875000002
20
75.09040312500001
30
0
0
VERTEX
8
0
10
28.746396875000002
20
74.76959375
30
0
0
VERTEX
8
0
10
28.623628125
20
74.47320937500001
30
0
0
VERTEX
8
0
10
28.396787500000002
20
74.24636875
30
0
0
VERTEX
8
0
10
28.100403125
20
74.12360000000001
30
0
0
VERTEX
8
0
10
27.77959375
20
74.12360000000001
30
0
0
VERTEX
8
0
10
27.483209375
20
74.24636875
30
0
0
VERTEX
8
0
10
27.333478125000003
20
74.39610312500001
30
0
0
VERTEX
8
0
10
27.331200000000003
20
74.39780625
30
0
0
VERTEX
8
0
10
27.329318750000002
20
74.39996562500001
30
0
42
0.5484095900174472
0
VERTEX
8
0
10
27.206265625
20
74.36292812500001
30
0
0
VERTEX
8
0
10
27.205065625
20
74.35426875
30
0
0
VERTEX
8
0
10
27.20355
20
74.34702812500001
30
0
42
0.015780610188008838
0
VERTEX
8
0
10
27.203396875000003
20
74.342221875
30
0
0
VERTEX
8
0
10
27.203396875000003
20
72.97777500000001
30
0
0
VERTEX
8
0
10
27.203806250000003
20
72.974946875
30
0
0
VERTEX
8
0
10
27.203609375000003
20
72.9721
30
0
42
0.5483964118425825
0
VERTEX
8
0
10
27.316809375000002
20
72.91127812500001
30
0
0
VERTEX
8
0
10
27.323778125
20
72.91655312500001
30
0
0
VERTEX
8
0
10
27.329975
20
72.920603125
30
0
42
0.015772426617527556
0
VERTEX
8
0
10
27.333478125000003
20
72.92389375
30
0
0
VERTEX
8
0
10
27.483209375
20
73.073628125
30
0
0
VERTEX
8
0
10
27.77959375
20
73.196396875
30
0
0
VERTEX
8
0
10
28.100403125
20
73.196396875
30
0
0
VERTEX
8
0
10
28.396787500000002
20
73.073628125
30
0
0
VERTEX
8
0
10
28.623628125
20
72.8467875
30
0
0
VERTEX
8
0
10
28.746396875000002
20
72.550403125
30
0
0
VERTEX
8
0
10
28.746396875000002
20
72.22959375
30
0
0
VERTEX
8
0
10
28.623628125
20
71.933209375
30
0
0
VERTEX
8
0
10
28.396787500000002
20
71.70636875000001
30
0
0
VERTEX
8
0
10
28.100403125
20
71.5836
30
0
0
VERTEX
8
0
10
27.77959375
20
71.5836
30
0
0
VERTEX
8
0
10
27.483209375
20
71.70636875000001
30
0
0
VERTEX
8
0
10
27.333478125000003
20
71.856103125
30
0
0
VERTEX
8
0
10
27.331200000000003
20
71.85780625000001
30
0
0
VERTEX
8
0
10
27.329318750000002
20
71.859965625
30
0
42
0.5484095900174472
0
VERTEX
8
0
10
27.206265625
20
71.822928125
30
0
0
VERTEX
8
0
10
27.205065625
20
71.814271875
30
0
0
VERTEX
8
0
10
27.20355
20
71.807028125
30
0
42
0.015780610188008838
0
VERTEX
8
0
10
27.203396875000003
20
71.802221875
30
0
0
VERTEX
8
0
10
27.203396875000003
20
70.437775
30
0
0
VERTEX
8
0
10
27.203806250000003
20
70.43494687500001
30
0
0
VERTEX
8
0
10
27.203609375000003
20
70.4321
30
0
42
0.5483964118425825
0
VERTEX
8
0
10
27.316809375000002
20
70.371278125
30
0
0
VERTEX
8
0
10
27.323778125
20
70.376553125
30
0
0
VERTEX
8
0
10
27.329975
20
70.38060312500001
30
0
42
0.015772426617527556
0
VERTEX
8
0
10
27.333478125000003
20
70.38389375
30
0
0
VERTEX
8
0
10
27.483209375
20
70.533628125
30
0
0
VERTEX
8
0
10
27.77959375
20
70.656396875
30
0
0
VERTEX
8
0
10
28.100403125
20
70.656396875
30
0
0
VERTEX
8
0
10
28.396787500000002
20
70.533628125
30
0
0
VERTEX
8
0
10
28.623628125
20
70.3067875
30
0
0
VERTEX
8
0
10
28.746396875000002
20
70.010403125
30
0
0
VERTEX
8
0
10
28.746396875000002
20
69.68959375
30
0
0
VERTEX
8
0
10
28.623628125
20
69.393209375
30
0
0
VERTEX
8
0
10
28.396787500000002
20
69.16636875
30
0
0
VERTEX
8
0
10
28.3172375
20
69.13341875
30
0
0
VERTEX
8
0
10
28.315818750000002
20
69.132575
30
0
0
VERTEX
8
0
10
28.3142375
20
69.13210000000001
30
0
42
0.2183495123382137
0
VERTEX
8
0
10
28.273065625
20
69.083725
30
0
0
VERTEX
8
0
10
28.271603125000002
20
69.07316875000001
30
0
0
VERTEX
8
0
10
28.270234375
20
69.065421875
30
0
42
0.005360865193668896
0
VERTEX
8
0
10
28.270196875
20
69.06301875
30
0
0
VERTEX
8
0
10
28.270196875
20
69.01105
30
0
0
VERTEX
8
0
10
28.2710125
20
69.00540000000001
30
0
0
VERTEX
8
0
10
28.271040625
20
69.000484375
30
0
0
VERTEX
8
0
10
28.271784375000003
20
68.99801562500001
30
0
0
VERTEX
8
0
10
28.27209375
20
68.99415625
30
0
42
0.015770042330091556
0
VERTEX
8
0
10
28.27330625
20
68.98950625
30
0
0
VERTEX
8
0
10
28.276334375
20
68.982903125
30
0
0
VERTEX
8
0
10
28.277315625
20
68.979640625
30
0
0
VERTEX
8
0
10
28.278175
20
68.978325
30
0
0
VERTEX
8
0
10
28.2799
20
68.9738375
30
0
42
0.015773954014740632
0
VERTEX
8
0
10
28.282378125
20
68.96971875
30
0
0
VERTEX
8
0
10
28.28725
20
68.96412500000001
30
0
0
VERTEX
8
0
10
28.288771875000002
20
68.96211562500001
30
0
0
VERTEX
8
0
10
28.289225000000002
20
68.961421875
30
0
0
VERTEX
8
0
10
28.289425
20
68.96125
30
0
0
VERTEX
8
0
10
28.292515625
20
68.95716875000001
30
0
0
VERTEX
8
0
10
34.518596875
20
62.7310875
30
0
0
VERTEX
8
0
10
34.518596875
20
57.04590625
30
0
0
VERTEX
8
0
10
34.518834375000004
20
57.04426875
30
0
0
VERTEX
8
0
10
34.51866875
20
57.04263125
30
0
0
VERTEX
8
0
10
34.519431250000004
20
57.03858125
30
0
0
VERTEX
8
0
10
34.519440625
20
57.037084375000006
30
0
0
VERTEX
8
0
10
34.520171875
20
57.034653125000006
30
0
0
VERTEX
8
0
10
34.520378125
20
57.033556250000004
30
0
0
VERTEX
8
0
10
34.52170625
20
57.0243625
30
0
42
0.15529207298828224
0
VERTEX
8
0
10
34.547603125
20
56.986081250000005
30
0
0
VERTEX
8
0
10
34.556815625
20
56.980678125000004
30
0
0
VERTEX
8
0
10
34.56343125
20
56.976462500000004
30
0
42
0.007889569284554799
0
VERTEX
8
0
10
34.5656375
20
56.97550625
30
0
0
VERTEX
8
0
10
34.92306875
20
56.827453125000005
30
0
0
VERTEX
8
0
10
35.237453125
20
56.51306875
30
0
0
VERTEX
8
0
10
35.407596875
20
56.102306250000005
30
0
0
VERTEX
8
0
10
35.407596875
20
55.657690625
30
0
0
VERTEX
8
0
10
35.237453125
20
55.246928125000004
30
0
0
VERTEX
8
0
10
34.92306875
20
54.93254375
30
0
0
VERTEX
8
0
10
34.51230625
20
54.7624
30
0
0
VERTEX
8
0
10
34.067690625000004
20
54.7624
30
0
0
VERTEX
8
0
10
33.656928125
20
54.93254375
30
0
0
VERTEX
8
0
10
33.342543750000004
20
55.246928125000004
30
0
0
VERTEX
8
0
10
33.1724
20
55.657690625
30
0
0
VERTEX
8
0
10
33.1724
20
56.102306250000005
30
0
0
VERTEX
8
0
10
33.342543750000004
20
56.51306875
30
0
0
VERTEX
8
0
10
33.656928125
20
56.827453125000005
30
0
0
VERTEX
8
0
10
34.014359375000005
20
56.97550625
30
0
0
VERTEX
8
0
10
34.015778125000004
20
56.976350000000004
30
0
0
VERTEX
8
0
10
34.017359375000005
20
56.976825000000005
30
0
42
0.2183495123382137
0
VERTEX
8
0
10
34.05853125
20
57.025200000000005
30
0
0
VERTEX
8
0
10
34.05994375
20
57.035390625000005
30
0
0
VERTEX
8
0
10
34.06068125
20
57.037946875
30
0
0
VERTEX
8
0
10
34.060671875000004
20
57.03959375
30
0
0
VERTEX
8
0
10
34.0613625
20
57.043503125
30
0
42
0.00788569762177906
0
VERTEX
8
0
10
34.0614
20
57.04590625
30
0
0
VERTEX
8
0
10
34.0614
20
62.510146875000004
30
0
0
VERTEX
8
0
10
34.060184375
20
62.518575000000006
30
0
0
VERTEX
8
0
10
34.059503125
20
62.527040625000005
30
0
42
0.08765396656356698
0
VERTEX
8
0
10
34.04921875
20
62.551478125
30
0
0
VERTEX
8
0
10
34.044346875
20
62.557071875000005
30
0
0
VERTEX
8
0
10
34.03908125
20
62.564028125
30
0
0
VERTEX
8
0
10
28.876478125000002
20
67.726634375
30
0
0
VERTEX
8
0
10
28.874200000000002
20
67.72833750000001
30
0
0
VERTEX
8
0
10
28.87231875
20
67.730496875
30
0
42
0.5484095900174472
0
VERTEX
8
0
10
28.749265625
20
67.693459375
30
0
0
VERTEX
8
0
10
28.748065625000002
20
67.684796875
30
0
0
VERTEX
8
0
10
28.746550000000003
20
67.67755625000001
30
0
42
0.015770375218223928
0
VERTEX
8
0
10
28.746396875000002
20
67.672753125
30
0
0
VERTEX
8
0
10
28.746396875000002
20
66.592871875
30
0
0
VERTEX
8
0
10
28.657125
20
66.5036
30
0
0
VERTEX
8
0
10
27.222871875000003
20
66.5036
30
0
0
VERTEX
8
0
10
27.1336
20
66.592871875
30
0
0
VERTEX
8
0
10
27.1336
20
67.056
30
0
0
VERTEX
8
0
10
27.132787500000003
20
67.06161875000001
30
0
42
0.39258815634569955
0
VERTEX
8
0
10
27.0574
20
67.1322
30
0
0
VERTEX
8
0
10
26.669996875000002
20
67.1322
30
0
0
VERTEX
8
0
10
26.664378125000002
20
67.1313875
30
0
42
0.39258815634569955
0
VERTEX
8
0
10
26.593796875000002
20
67.056
30
0
0
VERTEX
8
0
10
26.593796875000002
20
56.546696875
30
0
0
VERTEX
8
0
10
26.594778125
20
56.539893750000005
30
0
0
VERTEX
8
0
10
26.5950375
20
56.532996875
30
0
42
0.6006579100213704
0
VERTEX
8
0
10
26.734484375
20
56.5061
30
0
0
VERTEX
8
0
10
26.736812500000003
20
56.5113375
30
0
0
VERTEX
8
0
10
27.052928125
20
56.827453125000005
30
0
0
VERTEX
8
0
10
27.463690625
20
56.997596875
30
0
0
VERTEX
8
0
10
27.908306250000003
20
56.997596875
30
0
0
VERTEX
8
0
10
28.319068750000003
20
56.827453125000005
30
0
0
VERTEX
8
0
10
28.633453125000003
20
56.51306875
30
0
0
VERTEX
8
0
10
28.803596875
20
56.102306250000005
30
0
0
VERTEX
8
0
10
28.803596875
20
55.657690625
30
0
0
VERTEX
8
0
10
28.633453125000003
20
55.246928125000004
30
0
0
VERTEX
8
0
10
28.319068750000003
20
54.93254375
30
0
0
VERTEX
8
0
10
27.908306250000003
20
54.7624
30
0
0
VERTEX
8
0
10
27.463690625
20
54.7624
30
0
0
VERTEX
8
0
10
27.05293125
20
54.93254375
30
0
0
VERTEX
8
0
10
27.02868125
20
54.95679375
30
0
42
0.5729108245516616
0
VERTEX
8
0
10
26.901465625
20
54.923621875
30
0
0
VERTEX
8
0
10
26.900265625000003
20
54.91496875
30
0
0
VERTEX
8
0
10
26.89875
20
54.907721875
30
0
42
0.015780610188008838
0
VERTEX
8
0
10
26.898596875000003
20
54.902915625000006
30
0
0
VERTEX
8
0
10
26.898596875000003
20
8.78590625
30
0
0
VERTEX
8
0
10
26.898834375
20
8.78426875
30
0
0
VERTEX
8
0
10
26.898668750000002
20
8.78263125
30
0
42
0.21834638570063183
0
VERTEX
8
0
10
26.927603125
20
8.72608125
30
0
0
VERTEX
8
0
10
26.936815625
20
8.720678125000001
30
0
0
VERTEX
8
0
10
26.94343125
20
8.7164625
30
0
42
0.007889569284554799
0
VERTEX
8
0
10
26.9456375
20
8.71550625
30
0
0
VERTEX
8
0
10
27.30306875
20
8.567453125
30
0
0
VERTEX
8
0
10
27.617453125
20
8.25306875
30
0
0
VERTEX
8
0
10
27.787596875000002
20
7.84230625
30
0
0
VERTEX
8
0
10
27.787596875000002
20
7.397690625
30
0
0
VERTEX
8
0
10
27.617453125
20
6.986928125
30
0
0
VERTEX
8
0
10
27.39
20
6.759478125
30
0
0
VERTEX
8
0
10
27.388296875
20
6.7572
30
0
0
VERTEX
8
0
10
27.3861375
20
6.755318750000001
30
0
42
0.5484095900174472
0
VERTEX
8
0
10
27.423175
20
6.6322656250000005
30
0
0
VERTEX
8
0
10
27.4318375
20
6.631065625000001
30
0
0
VERTEX
8
0
10
27.439078125
20
6.62955
30
0
42
0.015770375218223928
0
VERTEX
8
0
10
27.44388125
20
6.629396875
30
0
0
VERTEX
8
0
10
28.436115625000003
20
6.629396875
30
0
0
VERTEX
8
0
10
28.43894375
20
6.629806250000001
30
0
0
VERTEX
8
0
10
28.4417875
20
6.629609375
30
0
42
0.548409711059846
0
VERTEX
8
0
10
28.5026125
20
6.742809375
30
0
0
VERTEX
8
0
10
28.4973375
20
6.749778125000001
30
0
0
VERTEX
8
0
10
28.4932875
20
6.755975
30
0
42
0.015772426617527556
0
VERTEX
8
0
10
28.489996875000003
20
6.759478125
30
0
0
VERTEX
8
0
10
28.262543750000003
20
6.986928125
30
0
0
VERTEX
8
0
10
28.0924
20
7.397690625
30
0
0
VERTEX
8
0
10
28.0924
20
7.84230625
30
0
0
VERTEX
8
0
10
28.262543750000003
20
8.25306875
30
0
0
VERTEX
8
0
10
28.576928125000002
20
8.567453125
30
0
0
VERTEX
8
0
10
28.987690625000003
20
8.737596875000001
30
0
0
VERTEX
8
0
10
29.43230625
20
8.737596875000001
30
0
0
VERTEX
8
0
10
29.84306875
20
8.567453125
30
0
0
VERTEX
8
0
10
30.157453125
20
8.25306875
30
0
0
VERTEX
8
0
10
30.327596875
20
7.84230625
30
0
0
VERTEX
8
0
10
30.327596875
20
7.397690625
30
0
0
VERTEX
8
0
10
30.157453125
20
6.986928125
30
0
0
VERTEX
8
0
10
29.93
20
6.759478125
30
0
0
VERTEX
8
0
10
29.928296875
20
6.7572
30
0
0
VERTEX
8
0
10
29.926137500000003
20
6.755318750000001
30
0
42
0.5484095900174472
0
VERTEX
8
0
10
29.963175
20
6.6322656250000005
30
0
0
VERTEX
8
0
10
29.971837500000003
20
6.631065625000001
30
0
0
VERTEX
8
0
10
29.979078125
20
6.62955
30
0
42
0.015770375218223928
0
VERTEX
8
0
10
29.983881250000003
20
6.629396875
30
0
0
VERTEX
8
0
10
30.976115625000002
20
6.629396875
30
0
0
VERTEX
8
0
10
30.978943750000003
20
6.629806250000001
30
0
0
VERTEX
8
0
10
30.981787500000003
20
6.629609375
30
0
42
0.548409711059846
0
VERTEX
8
0
10
31.0426125
20
6.742809375
30
0
0
VERTEX
8
0
10
31.037337500000003
20
6.749778125000001
30
0
0
VERTEX
8
0
10
31.0332875
20
6.755975
30
0
42
0.015772426617527556
0
VERTEX
8
0
10
31.029996875000002
20
6.759478125
30
0
0
VERTEX
8
0
10
30.80254375
20
6.986928125
30
0
0
VERTEX
8
0
10
30.6324
20
7.397690625
30
0
0
VERTEX
8
0
10
30.6324
20
7.84230625
30
0
0
VERTEX
8
0
10
30.80254375
20
8.25306875
30
0
0
VERTEX
8
0
10
31.116928125
20
8.567453125
30
0
0
VERTEX
8
0
10
31.527690625
20
8.737596875000001
30
0
0
VERTEX
8
0
10
31.972306250000003
20
8.737596875000001
30
0
0
VERTEX
8
0
10
32.38306875
20
8.567453125
30
0
0
VERTEX
8
0
10
32.697453125
20
8.25306875
30
0
0
VERTEX
8
0
10
32.867596875000004
20
7.84230625
30
0
0
VERTEX
8
0
10
32.867596875000004
20
7.397690625
30
0
0
VERTEX
8
0
10
32.697453125
20
6.986928125
30
0
0
VERTEX
8
0
10
32.47
20
6.759478125
30
0
0
VERTEX
8
0
10
32.468296875
20
6.7572
30
0
0
VERTEX
8
0
10
32.4661375
20
6.755318750000001
30
0
42
0.5484095900174472
0
VERTEX
8
0
10
32.503175
20
6.6322656250000005
30
0
0
VERTEX
8
0
10
32.5118375
20
6.631065625000001
30
0
0
VERTEX
8
0
10
32.519078125
20
6.62955
30
0
42
0.015770375218223928
0
VERTEX
8
0
10
32.52388125
20
6.629396875
30
0
0
VERTEX
8
0
10
33.516115625000005
20
6.629396875
30
0
0
VERTEX
8
0
10
33.51894375
20
6.629806250000001
30
0
0
VERTEX
8
0
10
33.5217875
20
6.629609375
30
0
42
0.548409711059846
0
VERTEX
8
0
10
33.5826125
20
6.742809375
30
0
0
VERTEX
8
0
10
33.5773375
20
6.749778125000001
30
0
0
VERTEX
8
0
10
33.5732875
20
6.755975
30
0
42
0.015772426617527556
0
VERTEX
8
0
10
33.569996875
20
6.759478125
30
0
0
VERTEX
8
0
10
33.342543750000004
20
6.986928125
30
0
0
VERTEX
8
0
10
33.1724
20
7.397690625
30
0
0
VERTEX
8
0
10
33.1724
20
7.84230625
30
0
0
VERTEX
8
0
10
33.342543750000004
20
8.25306875
30
0
0
VERTEX
8
0
10
33.656928125
20
8.567453125
30
0
0
VERTEX
8
0
10
34.067690625000004
20
8.737596875000001
30
0
0
VERTEX
8
0
10
34.51230625
20
8.737596875000001
30
0
0
VERTEX
8
0
10
34.92306875
20
8.567453125
30
0
0
VERTEX
8
0
10
35.237453125
20
8.25306875
30
0
0
VERTEX
8
0
10
35.407596875
20
7.84230625
30
0
0
VERTEX
8
0
10
35.407596875
20
7.41604375
30
0
0
VERTEX
8
0
10
35.40800625
20
7.4132125
30
0
0
VERTEX
8
0
10
35.407809375
20
7.410371875
30
0
42
0.548409711059846
0
VERTEX
8
0
10
35.521009375
20
7.349546875000001
30
0
0
VERTEX
8
0
10
35.527978125000004
20
7.354821875000001
30
0
0
VERTEX
8
0
10
35.534175000000005
20
7.358871875
30
0
42
0.015772426617527556
0
VERTEX
8
0
10
35.537678125
20
7.3621625
30
0
0
VERTEX
8
0
10
36.024109375
20
7.848596875
30
0
0
VERTEX
8
0
10
38.204090625
20
7.848596875
30
0
0
VERTEX
8
0
10
38.205728125
20
7.848834375
30
0
0
VERTEX
8
0
10
38.207365625
20
7.848668750000001
30
0
42
0.21834638570063183
0
VERTEX
8
0
10
38.263915625
20
7.877603125
30
0
0
VERTEX
8
0
10
38.269318750000004
20
7.8868156250000006
30
0
0
VERTEX
8
0
10
38.273534375000004
20
7.893431250000001
30
0
42
0.007889569284554799
0
VERTEX
8
0
10
38.274490625
20
7.8956375
30
0
0
VERTEX
8
0
10
38.42254375
20
8.25306875
30
0
0
VERTEX
8
0
10
38.736928125
20
8.567453125
30
0
0
VERTEX
8
0
10
39.147690625
20
8.737596875000001
30
0
0
VERTEX
8
0
10
39.59230625
20
8.737596875000001
30
0
0
VERTEX
8
0
10
40.003068750000004
20
8.567453125
30
0
0
VERTEX
8
0
10
40.317453125
20
8.25306875
30
0
0
VERTEX
8
0
10
40.487596875
20
7.84230625
30
0
0
VERTEX
8
0
10
40.487596875
20
7.397690625
30
0
0
VERTEX
8
0
10
40.317453125
20
6.986928125
30
0
0
VERTEX
8
0
10
40.003068750000004
20
6.67254375
30
0
0
VERTEX
8
0
10
39.59230625
20
6.502400000000001
30
0
0
VERTEX
8
0
10
39.147690625
20
6.502400000000001
30
0
0
VERTEX
8
0
10
38.736928125
20
6.67254375
30
0
0
VERTEX
8
0
10
38.42254375
20
6.986928125
30
0
0
VERTEX
8
0
10
38.274490625
20
7.344359375000001
30
0
0
VERTEX
8
0
10
38.273646875000004
20
7.345778125000001
30
0
0
VERTEX
8
0
10
38.273171875
20
7.347359375
30
0
42
0.2183495123382137
0
VERTEX
8
0
10
38.224796875
20
7.388531250000001
30
0
0
VERTEX
8
0
10
38.2142375
20
7.38999375
30
0
0
VERTEX
8
0
10
38.20649375
20
7.3913625000000005
30
0
42
0.00788569762177906
0
VERTEX
8
0
10
38.204090625
20
7.3914
30
0
0
VERTEX
8
0
10
36.24505
20
7.3914
30
0
0
VERTEX
8
0
10
36.236621875000004
20
7.3901843750000005
30
0
0
VERTEX
8
0
10
36.228156250000005
20
7.389503125
30
0
42
0.08765396656356698
0
VERTEX
8
0
10
36.20371875
20
7.379218750000001
30
0
0
VERTEX
8
0
10
36.198125000000005
20
7.3743468750000005
30
0
0
VERTEX
8
0
10
36.19116875
20
7.369081250000001
30
0
0
VERTEX
8
0
10
34.9942875
20
6.1722
30
0
0
SEQEND
0
POLYLINE
66
1
8
1_copper
10
0.0
20
0.0
30
0.0
70
1
0
VERTEX
8
0
10
36.48559375
20
87.554
30
0
0
VERTEX
8
0
10
35.820259375
20
87.732275
30
0
0
VERTEX
8
0
10
35.2237375
20
88.076678125
30
0
0
VERTEX
8
0
10
34.736678125000005
20
88.5637375
30
0
0
VERTEX
8
0
10
34.392275000000005
20
89.16025937500001
30
0
0
VERTEX
8
0
10
34.214
20
89.82559375000001
30
0
0
VERTEX
8
0
10
34.214
20
90.514403125
30
0
0
VERTEX
8
0
10
34.392275000000005
20
91.1797375
30
0
0
VERTEX
8
0
10
34.736678125000005
20
91.77625937500001
30
0
0
VERTEX
8
0
10
35.2237375
20
92.26331875000001
30
0
0
VERTEX
8
0
10
35.820259375
20
92.60772187500001
30
0
0
VERTEX
8
0
10
36.48559375
20
92.78599687500001
30
0
0
VERTEX
8
0
10
37.174403125000005
20
92.78599687500001
30
0
0
VERTEX
8
0
10
37.839737500000005
20
92.60772187500001
30
0
0
VERTEX
8
0
10
38.436259375
20
92.26331875000001
30
0
0
VERTEX
8
0
10
38.92331875
20
91.77625937500001
30
0
0
VERTEX
8
0
10
39.267721875
20
91.1797375
30
0
0
VERTEX
8
0
10
39.445996875
20
90.514403125
30
0
0
VERTEX
8
0
10
39.445996875
20
89.82559375000001
30
0
0
VERTEX
8
0
10
39.267721875
20
89.16025937500001
30
0
0
VERTEX
8
0
10
38.92331875
20
88.5637375
30
0
0
VERTEX
8
0
10
38.436259375
20
88.076678125
30
0
0
VERTEX
8
0
10
37.839737500000005
20
87.732275
30
0
0
VERTEX
8
0
10
37.174403125000005
20
87.554
30
0
0
SEQEND
0
POLYLINE
66
1
8
1_copper
10
0.0
20
0.0
30
0.0
70
1
0
VERTEX
8
0
10
56.334703125000004
20
90.5336
30
0
0
VERTEX
8
0
10
56.001562500000006
20
90.67159062500001
30
0
0
VERTEX
8
0
10
55.746590625
20
90.9265625
30
0
0
VERTEX
8
0
10
55.6086
20
91.259703125
30
0
0
VERTEX
8
0
10
55.6086
20
91.62029375
30
0
0
VERTEX
8
0
10
55.746590625
20
91.953434375
30
0
0
VERTEX
8
0
10
56.001562500000006
20
92.20840625000001
30
0
0
VERTEX
8
0
10
56.334703125000004
20
92.34639687500001
30
0
0
VERTEX
8
0
10
56.695293750000005
20
92.34639687500001
30
0
0
VERTEX
8
0
10
57.028434375
20
92.20840625000001
30
0
0
VERTEX
8
0
10
57.283406250000006
20
91.953434375
30
0
0
VERTEX
8
0
10
57.421396875
20
91.62029375
30
0
0
VERTEX
8
0
10
57.421396875
20
91.259703125
30
0
0
VERTEX
8
0
10
57.283406250000006
20
90.9265625
30
0
0
VERTEX
8
0
10
57.028434375
20
90.67159062500001
30
0
0
VERTEX
8
0
10
56.695293750000005
20
90.5336
30
0
0
SEQEND
0
POLYLINE
66
1
8
1_copper
10
0.0
20
0.0
30
0.0
70
1
0
VERTEX
8
0
10
18.869703125
20
89.8986
30
0
0
VERTEX
8
0
10
18.536562500000002
20
90.036590625
30
0
0
VERTEX
8
0
10
18.281590625
20
90.2915625
30
0
0
VERTEX
8
0
10
18.1436
20
90.62470312500001
30
0
0
VERTEX
8
0
10
18.1436
20
90.98529375000001
30
0
0
VERTEX
8
0
10
18.281590625
20
91.31843437500001
30
0
0
VERTEX
8
0
10
18.536562500000002
20
91.57340625
30
0
0
VERTEX
8
0
10
18.869703125
20
91.711396875
30
0
0
VERTEX
8
0
10
19.23029375
20
91.711396875
30
0
0
VERTEX
8
0
10
19.563434375
20
91.57340625
30
0
0
VERTEX
8
0
10
19.818406250000002
20
91.31843437500001
30
0
0
VERTEX
8
0
10
19.956396875
20
90.98529375000001
30
0
0
VERTEX
8
0
10
19.956396875
20
90.62470312500001
30
0
0
VERTEX
8
0
10
19.818406250000002
20
90.2915625
30
0
0
VERTEX
8
0
10
19.563434375
20
90.036590625
30
0
0
VERTEX
8
0
10
19.23029375
20
89.8986
30
0
0
SEQEND
0
POLYLINE
66
1
8
1_copper
10
0.0
20
0.0
30
0.0
70
1
0
VERTEX
8
0
10
13.75274375
20
81.5848
30
0
0
VERTEX
8
0
10
13.351315625
20
81.751078125
30
0
0
VERTEX
8
0
10
13.044078125
20
82.058315625
30
0
0
VERTEX
8
0
10
12.8778
20
82.45974375
30
0
0
VERTEX
8
0
10
12.8778
20
82.894253125
30
0
0
VERTEX
8
0
10
13.044078125
20
83.29568125
30
0
0
VERTEX
8
0
10
13.351315625
20
83.60291875
30
0
0
VERTEX
8
0
10
13.75274375
20
83.769196875
30
0
0
VERTEX
8
0
10
14.18725
20
83.769196875
30
0
0
VERTEX
8
0
10
14.51233125
20
83.634540625
30
0
0
VERTEX
8
0
10
14.513934375
20
83.63413125000001
30
0
0
VERTEX
8
0
10
14.515384375
20
83.633353125
30
0
42
0.21835452448693754
0
VERTEX
8
0
10
14.578706250000002
20
83.63844375000001
30
0
0
VERTEX
8
0
10
14.5872375
20
83.6449
30
0
0
VERTEX
8
0
10
14.59365
20
83.6493875
30
0
42
0.007881903973716804
0
VERTEX
8
0
10
14.595375
20
83.651059375
30
0
0
VERTEX
8
0
10
16.208281250000002
20
85.26396875
30
0
0
VERTEX
8
0
10
16.211593750000002
20
85.2684
30
0
0
VERTEX
8
0
10
16.21214375
20
85.268878125
30
0
0
VERTEX
8
0
10
16.213250000000002
20
85.2706125
30
0
0
VERTEX
8
0
10
16.213353125
20
85.270753125
30
0
0
VERTEX
8
0
10
16.2188875
20
85.277253125
30
0
42
0.015769721011977475
0
VERTEX
8
0
10
16.221315625
20
85.2814
30
0
0
VERTEX
8
0
10
16.222975
20
85.285871875
30
0
0
VERTEX
8
0
10
16.22384375
20
85.287234375
30
0
0
VERTEX
8
0
10
16.224803125
20
85.290559375
30
0
0
VERTEX
8
0
10
16.22773125
20
85.29714375
30
0
42
0.015766932116074574
0
VERTEX
8
0
10
16.228890625000002
20
85.30180625
30
0
0
VERTEX
8
0
10
16.229153125
20
85.305628125
30
0
0
VERTEX
8
0
10
16.229881250000002
20
85.308146875
30
0
0
VERTEX
8
0
10
16.22985625
20
85.31248125
30
0
0
VERTEX
8
0
10
16.2306
20
85.31785
30
0
0
VERTEX
8
0
10
16.2306
20
89.8887375
30
0
0
VERTEX
8
0
10
16.230362500000002
20
89.890375
30
0
0
VERTEX
8
0
10
16.230528125
20
89.8920125
30
0
42
0.21835303827521493
0
VERTEX
8
0
10
16.20159375
20
89.948565625
30
0
0
VERTEX
8
0
10
16.192353125
20
89.953984375
30
0
0
VERTEX
8
0
10
16.185765625000002
20
89.95818125000001
30
0
42
0.007889569284554799
0
VERTEX
8
0
10
16.183559375
20
89.95913750000001
30
0
0
VERTEX
8
0
10
15.996562500000001
20
90.036590625
30
0
0
VERTEX
8
0
10
15.741590625
20
90.2915625
30
0
0
VERTEX
8
0
10
15.6036
20
90.62470312500001
30
0
0
VERTEX
8
0
10
15.6036
20
90.98529375000001
30
0
0
VERTEX
8
0
10
15.741590625
20
91.31843437500001
30
0
0
VERTEX
8
0
10
15.996562500000001
20
91.57340625
30
0
0
VERTEX
8
0
10
16.329703125
20
91.711396875
30
0
0
VERTEX
8
0
10
16.690293750000002
20
91.711396875
30
0
0
VERTEX
8
0
10
17.023434375
20
91.57340625
30
0
0
VERTEX
8
0
10
17.27840625
20
91.31843437500001
30
0
0
VERTEX
8
0
10
17.416396875
20
90.98529375000001
30
0
0
VERTEX
8
0
10
17.416396875
20
90.62470312500001
30
0
0
VERTEX
8
0
10
17.27840625
20
90.2915625
30
0
0
VERTEX
8
0
10
17.023434375
20
90.036590625
30
0
0
VERTEX
8
0
10
16.7348375
20
89.91705312500001
30
0
0
VERTEX
8
0
10
16.733418750000002
20
89.91620937500001
30
0
0
VERTEX
8
0
10
16.7318375
20
89.915734375
30
0
42
0.2183495123382137
0
VERTEX
8
0
10
16.690665625
20
89.867359375
30
0
0
VERTEX
8
0
10
16.689203125000002
20
89.856803125
30
0
0
VERTEX
8
0
10
16.687834375
20
89.84905625
30
0
42
0.00788569762177906
0
VERTEX
8
0
10
16.687796875
20
89.846653125
30
0
0
VERTEX
8
0
10
16.687796875
20
85.09690937500001
30
0
0
VERTEX
8
0
10
14.929181250000001
20
83.338296875
30
0
0
VERTEX
8
0
10
14.92819375
20
83.33697500000001
30
0
0
VERTEX
8
0
10
14.926915625000001
20
83.33593125
30
0
42
0.21834535467815266
0
VERTEX
8
0
10
14.9073875
20
83.275484375
30
0
0
VERTEX
8
0
10
14.910087500000001
20
83.26513125000001
30
0
0
VERTEX
8
0
10
14.911778125000001
20
83.257490625
30
0
42
0.007884456392637858
0
VERTEX
8
0
10
14.912662500000001
20
83.25525625
30
0
0
VERTEX
8
0
10
15.062196875000001
20
82.894253125
30
0
0
VERTEX
8
0
10
15.062196875000001
20
82.45974375
30
0
0
VERTEX
8
0
10
14.89591875
20
82.058315625
30
0
0
VERTEX
8
0
10
14.58868125
20
81.751078125
30
0
0
VERTEX
8
0
10
14.187253125
20
81.5848
30
0
0
SEQEND
0
POLYLINE
66
1
8
1_copper
10
0.0
20
0.0
30
0.0
70
1
0
VERTEX
8
0
10
8.67274375
20
81.5848
30
0
0
VERTEX
8
0
10
8.271315625
20
81.751078125
30
0
0
VERTEX
8
0
10
7.964078125
20
82.058315625
30
0
0
VERTEX
8
0
10
7.7978000000000005
20
82.45974375
30
0
0
VERTEX
8
0
10
7.7978000000000005
20
82.894253125
30
0
0
VERTEX
8
0
10
7.964078125
20
83.29568125
30
0
0
VERTEX
8
0
10
8.271315625
20
83.60291875
30
0
0
VERTEX
8
0
10
8.67274375
20
83.769196875
30
0
0
VERTEX
8
0
10
9.107253125
20
83.769196875
30
0
0
VERTEX
8
0
10
9.46825625
20
83.6196625
30
0
0
VERTEX
8
0
10
9.469853125
20
83.61925625
30
0
0
VERTEX
8
0
10
9.47130625
20
83.618475
30
0
42
0.21835452448693754
0
VERTEX
8
0
10
9.534628125000001
20
83.623565625
30
0
0
VERTEX
8
0
10
9.54314375
20
83.6300125
30
0
0
VERTEX
8
0
10
9.549571875
20
83.63450937500001
30
0
42
0.007881903973716804
0
VERTEX
8
0
10
9.551296875
20
83.63618125
30
0
0
VERTEX
8
0
10
11.179081250000001
20
85.26396875
30
0
0
VERTEX
8
0
10
11.182393750000001
20
85.2684
30
0
0
VERTEX
8
0
10
11.18294375
20
85.268878125
30
0
0
VERTEX
8
0
10
11.184050000000001
20
85.2706125
30
0
0
VERTEX
8
0
10
11.184153125
20
85.270753125
30
0
0
VERTEX
8
0
10
11.1896875
20
85.277253125
30
0
42
0.015769721011977475
0
VERTEX
8
0
10
11.192115625000001
20
85.2814
30
0
0
VERTEX
8
0
10
11.193775
20
85.285871875
30
0
0
VERTEX
8
0
10
11.194643750000001
20
85.287234375
30
0
0
VERTEX
8
0
10
11.195603125
20
85.290559375
30
0
0
VERTEX
8
0
10
11.19853125
20
85.29714375
30
0
42
0.015766932116074574
0
VERTEX
8
0
10
11.199690625
20
85.30180625
30
0
0
VERTEX
8
0
10
11.199953125
20
85.305628125
30
0
0
VERTEX
8
0
10
11.20068125
20
85.308146875
30
0
0
VERTEX
8
0
10
11.20065625
20
85.31248125
30
0
0
VERTEX
8
0
10
11.201400000000001
20
85.31785
30
0
0
VERTEX
8
0
10
11.201400000000001
20
89.86769375
30
0
0
VERTEX
8
0
10
11.2011625
20
89.86933125
30
0
0
VERTEX
8
0
10
11.201328125
20
89.87096875
30
0
42
0.21834638570063183
0
VERTEX
8
0
10
11.172393750000001
20
89.92751875
30
0
0
VERTEX
8
0
10
11.163181250000001
20
89.932921875
30
0
0
VERTEX
8
0
10
11.156565625
20
89.9371375
30
0
42
0.007889569284554799
0
VERTEX
8
0
10
11.154359375
20
89.93809375000001
30
0
0
VERTEX
8
0
10
10.916562500000001
20
90.036590625
30
0
0
VERTEX
8
0
10
10.661590625
20
90.2915625
30
0
0
VERTEX
8
0
10
10.5236
20
90.62470312500001
30
0
0
VERTEX
8
0
10
10.5236
20
90.98529375000001
30
0
0
VERTEX
8
0
10
10.661590625
20
91.31843437500001
30
0
0
VERTEX
8
0
10
10.916562500000001
20
91.57340625
30
0
0
VERTEX
8
0
10
11.249703125
20
91.711396875
30
0
0
VERTEX
8
0
10
11.61029375
20
91.711396875
30
0
0
VERTEX
8
0
10
11.943434375
20
91.57340625
30
0
0
VERTEX
8
0
10
12.198406250000001
20
91.31843437500001
30
0
0
VERTEX
8
0
10
12.336396875
20
90.98529375000001
30
0
0
VERTEX
8
0
10
12.336396875
20
90.62470312500001
30
0
0
VERTEX
8
0
10
12.198406250000001
20
90.2915625
30
0
0
VERTEX
8
0
10
11.943434375
20
90.036590625
30
0
0
VERTEX
8
0
10
11.7056375
20
89.93809375000001
30
0
0
VERTEX
8
0
10
11.70421875
20
89.93725
30
0
0
VERTEX
8
0
10
11.7026375
20
89.936775
30
0
42
0.2183495123382137
0
VERTEX
8
0
10
11.661465625
20
89.8884
30
0
0
VERTEX
8
0
10
11.660003125000001
20
89.877840625
30
0
0
VERTEX
8
0
10
11.658634375
20
89.870096875
30
0
42
0.00788569762177906
0
VERTEX
8
0
10
11.658596875
20
89.86769375
30
0
0
VERTEX
8
0
10
11.658596875
20
85.09690937500001
30
0
0
VERTEX
8
0
10
9.864059375
20
83.302375
30
0
0
VERTEX
8
0
10
9.863071875000001
20
83.30105312500001
30
0
0
VERTEX
8
0
10
9.86179375
20
83.300009375
30
0
42
0.21834535467815266
0
VERTEX
8
0
10
9.842265625000001
20
83.2395625
30
0
0
VERTEX
8
0
10
9.84496875
20
83.2292
30
0
0
VERTEX
8
0
10
9.84665625
20
83.22156875
30
0
42
0.007893929092387245
0
VERTEX
8
0
10
9.847540625
20
83.21933125000001
30
0
0
VERTEX
8
0
10
9.982196875
20
82.89425
30
0
0
VERTEX
8
0
10
9.982196875
20
82.45974375
30
0
0
VERTEX
8
0
10
9.81591875
20
82.058315625
30
0
0
VERTEX
8
0
10
9.50868125
20
81.751078125
30
0
0
VERTEX
8
0
10
9.107253125
20
81.5848
30
0
0
SEQEND
0
POLYLINE
66
1
8
1_copper
10
0.0
20
0.0
30
0.0
70
1
0
VERTEX
8
0
10
11.212743750000001
20
81.33080000000001
30
0
0
VERTEX
8
0
10
10.811315625
20
81.497078125
30
0
0
VERTEX
8
0
10
10.504078125000001
20
81.804315625
30
0
0
VERTEX
8
0
10
10.3378
20
82.20574375000001
30
0
0
VERTEX
8
0
10
10.3378
20
82.640253125
30
0
0
VERTEX
8
0
10
10.504078125000001
20
83.04168125000001
30
0
0
VERTEX
8
0
10
10.811315625
20
83.34891875000001
30
0
0
VERTEX
8
0
10
11.212743750000001
20
83.515196875
30
0
0
VERTEX
8
0
10
11.647250000000001
20
83.515196875
30
0
0
VERTEX
8
0
10
11.97233125
20
83.38054062500001
30
0
0
VERTEX
8
0
10
11.973934375
20
83.38013125
30
0
0
VERTEX
8
0
10
11.975384375
20
83.37935312500001
30
0
42
0.21835452448693754
0
VERTEX
8
0
10
12.03870625
20
83.38444375
30
0
0
VERTEX
8
0
10
12.047237500000001
20
83.3909
30
0
0
VERTEX
8
0
10
12.053650000000001
20
83.3953875
30
0
42
0.007881903973716804
0
VERTEX
8
0
10
12.055375
20
83.397059375
30
0
0
VERTEX
8
0
10
13.61748125
20
84.95916875
30
0
0
VERTEX
8
0
10
13.62079375
20
84.9636
30
0
0
VERTEX
8
0
10
13.621343750000001
20
84.964078125
30
0
0
VERTEX
8
0
10
13.62245
20
84.9658125
30
0
0
VERTEX
8
0
10
13.622553125000001
20
84.965953125
30
0
0
VERTEX
8
0
10
13.628087500000001
20
84.972453125
30
0
42
0.015769721011977475
0
VERTEX
8
0
10
13.630515625000001
20
84.9766
30
0
0
VERTEX
8
0
10
13.632175
20
84.981071875
30
0
0
VERTEX
8
0
10
13.63304375
20
84.98243437500001
30
0
0
VERTEX
8
0
10
13.634003125000001
20
84.985759375
30
0
0
VERTEX
8
0
10
13.63693125
20
84.99234375
30
0
42
0.015766932116074574
0
VERTEX
8
0
10
13.638090625
20
84.99700625
30
0
0
VERTEX
8
0
10
13.638353125
20
85.000828125
30
0
0
VERTEX
8
0
10
13.63908125
20
85.003346875
30
0
0
VERTEX
8
0
10
13.639056250000001
20
85.00768125
30
0
0
VERTEX
8
0
10
13.639800000000001
20
85.01305
30
0
0
VERTEX
8
0
10
13.639800000000001
20
89.909778125
30
0
0
VERTEX
8
0
10
13.6395625
20
89.911415625
30
0
0
VERTEX
8
0
10
13.639728125000001
20
89.913053125
30
0
42
0.21835303827521493
0
VERTEX
8
0
10
13.610793750000001
20
89.96960625
30
0
0
VERTEX
8
0
10
13.601553125
20
89.975025
30
0
0
VERTEX
8
0
10
13.594965625
20
89.97922187500001
30
0
42
0.007889569284554799
0
VERTEX
8
0
10
13.592759375
20
89.98017812500001
30
0
0
VERTEX
8
0
10
13.4565625
20
90.036590625
30
0
0
VERTEX
8
0
10
13.201590625000001
20
90.2915625
30
0
0
VERTEX
8
0
10
13.063600000000001
20
90.62470312500001
30
0
0
VERTEX
8
0
10
13.063600000000001
20
90.98529375000001
30
0
0
VERTEX
8
0
10
13.201590625000001
20
91.31843437500001
30
0
0
VERTEX
8
0
10
13.4565625
20
91.57340625
30
0
0
VERTEX
8
0
10
13.789703125
20
91.711396875
30
0
0
VERTEX
8
0
10
14.150293750000001
20
91.711396875
30
0
0
VERTEX
8
0
10
14.483434375
20
91.57340625
30
0
0
VERTEX
8
0
10
14.73840625
20
91.31843437500001
30
0
0
VERTEX
8
0
10
14.876396875000001
20
90.98529375000001
30
0
0
VERTEX
8
0
10
14.876396875000001
20
90.62470312500001
30
0
0
VERTEX
8
0
10
14.73840625
20
90.2915625
30
0
0
VERTEX
8
0
10
14.483434375
20
90.036590625
30
0
0
VERTEX
8
0
10
14.144037500000001
20
89.896009375
30
0
0
VERTEX
8
0
10
14.14261875
20
89.895165625
30
0
0
VERTEX
8
0
10
14.141037500000001
20
89.89469062500001
30
0
42
0.2183495123382137
0
VERTEX
8
0
10
14.099865625000001
20
89.846315625
30
0
0
VERTEX
8
0
10
14.098403125
20
89.83575625
30
0
0
VERTEX
8
0
10
14.097034375000002
20
89.8280125
30
0
42
0.00788569762177906
0
VERTEX
8
0
10
14.096996875
20
89.825609375
30
0
0
VERTEX
8
0
10
14.096996875
20
84.79210937500001
30
0
0
VERTEX
8
0
10
12.38918125
20
83.084296875
30
0
0
VERTEX
8
0
10
12.388193750000001
20
83.082975
30
0
0
VERTEX
8
0
10
12.386915625
20
83.08193125000001
30
0
42
0.21834535467815266
0
VERTEX
8
0
10
12.367387500000001
20
83.021484375
30
0
0
VERTEX
8
0
10
12.3700875
20
83.01113125
30
0
0
VERTEX
8
0
10
12.371778125
20
83.003490625
30
0
42
0.007884456392637858
0
VERTEX
8
0
10
12.3726625
20
83.00125625
30
0
0
VERTEX
8
0
10
12.522196875
20
82.640253125
30
0
0
VERTEX
8
0
10
12.522196875
20
82.20574375000001
30
0
0
VERTEX
8
0
10
12.35591875
20
81.804315625
30
0
0
VERTEX
8
0
10
12.048681250000001
20
81.497078125
30
0
0
VERTEX
8
0
10
11.647253125
20
81.33080000000001
30
0
0
SEQEND
0
POLYLINE
66
1
8
1_copper
10
0.0
20
0.0
30
0.0
70
1
0
VERTEX
8
0
10
5.5328718750000005
20
89.8986
30
0
0
VERTEX
8
0
10
5.4436
20
89.98787187500001
30
0
0
VERTEX
8
0
10
5.4436
20
91.62212500000001
30
0
0
VERTEX
8
0
10
5.5328718750000005
20
91.711396875
30
0
0
VERTEX
8
0
10
7.167125
20
91.711396875
30
0
0
VERTEX
8
0
10
7.256396875
20
91.62212500000001
30
0
0
VERTEX
8
0
10
7.256396875
20
89.98787187500001
30
0
0
VERTEX
8
0
10
7.167125
20
89.8986
30
0
0
SEQEND
0
POLYLINE
66
1
8
1_copper
10
0.0
20
0.0
30
0.0
70
1
0
VERTEX
8
0
10
6.13274375
20
81.33080000000001
30
0
0
VERTEX
8
0
10
5.731315625000001
20
81.497078125
30
0
0
VERTEX
8
0
10
5.424078125
20
81.804315625
30
0
0
VERTEX
8
0
10
5.2578000000000005
20
82.20574375000001
30
0
0
VERTEX
8
0
10
5.2578000000000005
20
82.640253125
30
0
0
VERTEX
8
0
10
5.424078125
20
83.04168125000001
30
0
0
VERTEX
8
0
10
5.731315625000001
20
83.34891875000001
30
0
0
VERTEX
8
0
10
6.13274375
20
83.515196875
30
0
0
VERTEX
8
0
10
6.567253125000001
20
83.515196875
30
0
0
VERTEX
8
0
10
6.9282562500000004
20
83.3656625
30
0
0
VERTEX
8
0
10
6.929853125
20
83.36525625
30
0
0
VERTEX
8
0
10
6.9313062500000004
20
83.364475
30
0
42
0.21835452448693754
0
VERTEX
8
0
10
6.994628125
20
83.369565625
30
0
0
VERTEX
8
0
10
7.0031437500000004
20
83.3760125
30
0
0
VERTEX
8
0
10
7.009571875000001
20
83.380509375
30
0
42
0.007881903973716804
0
VERTEX
8
0
10
7.011296875
20
83.38218125
30
0
0
VERTEX
8
0
10
8.58828125
20
84.95916875
30
0
0
VERTEX
8
0
10
8.591593750000001
20
84.9636
30
0
0
VERTEX
8
0
10
8.59214375
20
84.964078125
30
0
0
VERTEX
8
0
10
8.593250000000001
20
84.9658125
30
0
0
VERTEX
8
0
10
8.593353125
20
84.965953125
30
0
0
VERTEX
8
0
10
8.5988875
20
84.972453125
30
0
42
0.015769721011977475
0
VERTEX
8
0
10
8.601315625
20
84.9766
30
0
0
VERTEX
8
0
10
8.602975
20
84.981071875
30
0
0
VERTEX
8
0
10
8.603843750000001
20
84.98243437500001
30
0
0
VERTEX
8
0
10
8.604803125
20
84.985759375
30
0
0
VERTEX
8
0
10
8.60773125
20
84.99234375
30
0
42
0.015766932116074574
0
VERTEX
8
0
10
8.608890625
20
84.99700625
30
0
0
VERTEX
8
0
10
8.609153125
20
85.000828125
30
0
0
VERTEX
8
0
10
8.60988125
20
85.003346875
30
0
0
VERTEX
8
0
10
8.60985625
20
85.00768125
30
0
0
VERTEX
8
0
10
8.6106
20
85.01305
30
0
0
VERTEX
8
0
10
8.6106
20
89.888734375
30
0
0
VERTEX
8
0
10
8.6103625
20
89.890371875
30
0
0
VERTEX
8
0
10
8.610528125
20
89.892009375
30
0
42
0.21834638570063183
0
VERTEX
8
0
10
8.58159375
20
89.948559375
30
0
0
VERTEX
8
0
10
8.572381250000001
20
89.9539625
30
0
0
VERTEX
8
0
10
8.565765625000001
20
89.958178125
30
0
42
0.007889569284554799
0
VERTEX
8
0
10
8.563559375
20
89.959134375
30
0
0
VERTEX
8
0
10
8.3765625
20
90.036590625
30
0
0
VERTEX
8
0
10
8.121590625
20
90.2915625
30
0
0
VERTEX
8
0
10
7.9836
20
90.62470312500001
30
0
0
VERTEX
8
0
10
7.9836
20
90.98529375000001
30
0
0
VERTEX
8
0
10
8.121590625
20
91.31843437500001
30
0
0
VERTEX
8
0
10
8.3765625
20
91.57340625
30
0
0
VERTEX
8
0
10
8.709703125
20
91.711396875
30
0
0
VERTEX
8
0
10
9.070293750000001
20
91.711396875
30
0
0
VERTEX
8
0
10
9.403434375
20
91.57340625
30
0
0
VERTEX
8
0
10
9.65840625
20
91.31843437500001
30
0
0
VERTEX
8
0
10
9.796396875000001
20
90.98529375000001
30
0
0
VERTEX
8
0
10
9.796396875000001
20
90.62470312500001
30
0
0
VERTEX
8
0
10
9.65840625
20
90.2915625
30
0
0
VERTEX
8
0
10
9.403434375
20
90.036590625
30
0
0
VERTEX
8
0
10
9.1148375
20
89.91705
30
0
0
VERTEX
8
0
10
9.113418750000001
20
89.91620625
30
0
0
VERTEX
8
0
10
9.1118375
20
89.91573125000001
30
0
42
0.2183495123382137
0
VERTEX
8
0
10
9.070665625
20
89.86735625
30
0
0
VERTEX
8
0
10
9.069203125
20
89.856796875
30
0
0
VERTEX
8
0
10
9.067834375
20
89.849053125
30
0
42
0.00788569762177906
0
VERTEX
8
0
10
9.067796875
20
89.84665000000001
30
0
0
VERTEX
8
0
10
9.067796875
20
84.79210937500001
30
0
0
VERTEX
8
0
10
7.324059375
20
83.04837500000001
30
0
0
VERTEX
8
0
10
7.323071875
20
83.047053125
30
0
0
VERTEX
8
0
10
7.32179375
20
83.046009375
30
0
42
0.21834535467815266
0
VERTEX
8
0
10
7.302265625
20
82.9855625
30
0
0
VERTEX
8
0
10
7.3049687500000005
20
82.9752
30
0
0
VERTEX
8
0
10
7.3066562500000005
20
82.96756875
30
0
42
0.007893929092387245
0
VERTEX
8
0
10
7.307540625000001
20
82.96533125
30
0
0
VERTEX
8
0
10
7.4421968750000005
20
82.64025000000001
30
0
0
VERTEX
8
0
10
7.4421968750000005
20
82.20574375000001
30
0
0
VERTEX
8
0
10
7.275918750000001
20
81.804315625
30
0
0
VERTEX
8
0
10
6.96868125
20
81.497078125
30
0
0
VERTEX
8
0
10
6.567253125000001
20
81.33080000000001
30
0
0
SEQEND
0
POLYLINE
66
1
8
1_copper
10
0.0
20
0.0
30
0.0
70
1
0
VERTEX
8
0
10
55.697871875000004
20
87.9936
30
0
0
VERTEX
8
0
10
55.6086
20
88.08287187500001
30
0
0
VERTEX
8
0
10
55.6086
20
89.71712500000001
30
0
0
VERTEX
8
0
10
55.697871875000004
20
89.806396875
30
0
0
VERTEX
8
0
10
57.332125000000005
20
89.806396875
30
0
0
VERTEX
8
0
10
57.421396875
20
89.71712500000001
30
0
0
VERTEX
8
0
10
57.421396875
20
88.08287187500001
30
0
0
VERTEX
8
0
10
57.332125000000005
20
87.9936
30
0
0
SEQEND
0
POLYLINE
66
1
8
1_copper
10
0.0
20
0.0
30
0.0
70
1
0
VERTEX
8
0
10
41.687690625
20
6.502400000000001
30
0
0
VERTEX
8
0
10
41.276928125000005
20
6.67254375
30
0
0
VERTEX
8
0
10
40.96254375
20
6.986928125
30
0
0
VERTEX
8
0
10
40.7924
20
7.397690625
30
0
0
VERTEX
8
0
10
40.7924
20
7.84230625
30
0
0
VERTEX
8
0
10
40.940453125000005
20
8.199737500000001
30
0
0
VERTEX
8
0
10
40.940859375
20
8.20133125
30
0
0
VERTEX
8
0
10
40.941640625000005
20
8.202787500000001
30
0
42
0.21835452448693754
0
VERTEX
8
0
10
40.936550000000004
20
8.266109375000001
30
0
0
VERTEX
8
0
10
40.930103125
20
8.274625
30
0
0
VERTEX
8
0
10
40.92560625
20
8.281053125
30
0
42
0.007881903973716804
0
VERTEX
8
0
10
40.923934375
20
8.282778125
30
0
0
VERTEX
8
0
10
37.8714
20
11.335309375000001
30
0
0
VERTEX
8
0
10
37.8714
20
55.156915625
30
0
0
VERTEX
8
0
10
37.870990625000005
20
55.159746875
30
0
0
VERTEX
8
0
10
37.871187500000005
20
55.1625875
30
0
42
0.548409711059846
0
VERTEX
8
0
10
37.7579875
20
55.2234125
30
0
0
VERTEX
8
0
10
37.75101875
20
55.218137500000005
30
0
0
VERTEX
8
0
10
37.744821875
20
55.214087500000005
30
0
42
0.015772426617527556
0
VERTEX
8
0
10
37.741318750000005
20
55.210796875
30
0
0
VERTEX
8
0
10
37.463068750000005
20
54.93254375
30
0
0
VERTEX
8
0
10
37.05230625
20
54.7624
30
0
0
VERTEX
8
0
10
36.607690625000004
20
54.7624
30
0
0
VERTEX
8
0
10
36.196928125
20
54.93254375
30
0
0
VERTEX
8
0
10
35.88254375
20
55.246928125000004
30
0
0
VERTEX
8
0
10
35.7124
20
55.657690625
30
0
0
VERTEX
8
0
10
35.7124
20
56.102306250000005
30
0
0
VERTEX
8
0
10
35.88254375
20
56.51306875
30
0
0
VERTEX
8
0
10
36.196928125
20
56.827453125000005
30
0
0
VERTEX
8
0
10
36.607690625000004
20
56.997596875
30
0
0
VERTEX
8
0
10
37.05230625
20
56.997596875
30
0
0
VERTEX
8
0
10
37.463068750000005
20
56.827453125000005
30
0
0
VERTEX
8
0
10
37.741318750000005
20
56.549200000000006
30
0
0
VERTEX
8
0
10
37.743596875
20
56.547496875
30
0
0
VERTEX
8
0
10
37.745478125000005
20
56.5453375
30
0
42
0.5484095900174472
0
VERTEX
8
0
10
37.868531250000004
20
56.582375000000006
30
0
0
VERTEX
8
0
10
37.86973125
20
56.591037500000006
30
0
0
VERTEX
8
0
10
37.871246875000004
20
56.598278125
30
0
42
0.015770375218223928
0
VERTEX
8
0
10
37.8714
20
56.60308125
30
0
0
VERTEX
8
0
10
37.8714
20
81.864946875
30
0
0
VERTEX
8
0
10
37.870184375
20
81.87337500000001
30
0
0
VERTEX
8
0
10
37.869503125
20
81.88184062500001
30
0
42
0.08765396656356698
0
VERTEX
8
0
10
37.859218750000004
20
81.906278125
30
0
0
VERTEX
8
0
10
37.854346875000005
20
81.911871875
30
0
0
VERTEX
8
0
10
37.849081250000005
20
81.918828125
30
0
0
VERTEX
8
0
10
32.786478125
20
86.981434375
30
0
0
VERTEX
8
0
10
32.7842
20
86.9831375
30
0
0
VERTEX
8
0
10
32.78231875
20
86.985296875
30
0
42
0.5484095900174472
0
VERTEX
8
0
10
32.659265625
20
86.948259375
30
0
0
VERTEX
8
0
10
32.658065625
20
86.939596875
30
0
0
VERTEX
8
0
10
32.65655
20
86.93235625
30
0
42
0.015770375218223928
0
VERTEX
8
0
10
32.656396875
20
86.927553125
30
0
0
VERTEX
8
0
10
32.656396875
20
85.542871875
30
0
0
VERTEX
8
0
10
32.567125000000004
20
85.45360000000001
30
0
0
VERTEX
8
0
10
30.932871875
20
85.45360000000001
30
0
0
VERTEX
8
0
10
30.843600000000002
20
85.542871875
30
0
0
VERTEX
8
0
10
30.843600000000002
20
87.177125
30
0
0
VERTEX
8
0
10
30.932871875
20
87.266396875
30
0
0
VERTEX
8
0
10
32.317553125
20
87.266396875
30
0
0
VERTEX
8
0
10
32.320384375
20
87.26680625
30
0
0
VERTEX
8
0
10
32.323225
20
87.266609375
30
0
42
0.548409711059846
0
VERTEX
8
0
10
32.38405
20
87.37980937500001
30
0
0
VERTEX
8
0
10
32.378775000000005
20
87.386778125
30
0
0
VERTEX
8
0
10
32.374725000000005
20
87.392975
30
0
42
0.015772426617527556
0
VERTEX
8
0
10
32.371434375
20
87.396478125
30
0
0
VERTEX
8
0
10
31.79663125
20
87.97128125
30
0
0
VERTEX
8
0
10
31.789846875000002
20
87.976353125
30
0
0
VERTEX
8
0
10
31.783346875000003
20
87.9818875
30
0
42
0.08765145259213399
0
VERTEX
8
0
10
31.758793750000002
20
87.99189062500001
30
0
0
VERTEX
8
0
10
31.751418750000003
20
87.9924
30
0
0
VERTEX
8
0
10
31.74275
20
87.9936
30
0
0
VERTEX
8
0
10
31.569703125
20
87.9936
30
0
0
VERTEX
8
0
10
31.2365625
20
88.131590625
30
0
0
VERTEX
8
0
10
30.981590625000003
20
88.38656250000001
30
0
0
VERTEX
8
0
10
30.843600000000002
20
88.71970312500001
30
0
0
VERTEX
8
0
10
30.843600000000002
20
89.08029375000001
30
0
0
VERTEX
8
0
10
30.981590625000003
20
89.41343437500001
30
0
0
VERTEX
8
0
10
31.2365625
20
89.66840625
30
0
0
VERTEX
8
0
10
31.569703125
20
89.806396875
30
0
0
VERTEX
8
0
10
31.93029375
20
89.806396875
30
0
0
VERTEX
8
0
10
32.263434375
20
89.66840625
30
0
0
VERTEX
8
0
10
32.51840625
20
89.41343437500001
30
0
0
VERTEX
8
0
10
32.656396875
20
89.08029375000001
30
0
0
VERTEX
8
0
10
32.656396875
20
88.71970312500001
30
0
0
VERTEX
8
0
10
32.51840625
20
88.38656250000001
30
0
0
VERTEX
8
0
10
32.32704375
20
88.1952
30
0
0
VERTEX
8
0
10
32.323640625
20
88.19065
30
0
42
0.39256960445629635
0
VERTEX
8
0
10
32.32704375
20
88.08743750000001
30
0
0
VERTEX
8
0
10
38.172368750000004
20
82.24211562500001
30
0
0
VERTEX
8
0
10
38.328596875
20
82.0858875
30
0
0
VERTEX
8
0
10
38.328596875
20
56.60308125
30
0
0
VERTEX
8
0
10
38.32900625
20
56.60025
30
0
0
VERTEX
8
0
10
38.328809375
20
56.597409375000005
30
0
42
0.548409711059846
0
VERTEX
8
0
10
38.442009375000005
20
56.536584375000004
30
0
0
VERTEX
8
0
10
38.448978125000004
20
56.541859375
30
0
0
VERTEX
8
0
10
38.455175000000004
20
56.545909375
30
0
42
0.015772426617527556
0
VERTEX
8
0
10
38.458678125
20
56.549200000000006
30
0
0
VERTEX
8
0
10
38.736928125
20
56.827453125000005
30
0
0
VERTEX
8
0
10
39.147690625
20
56.997596875
30
0
0
VERTEX
8
0
10
39.59230625
20
56.997596875
30
0
0
VERTEX
8
0
10
40.003068750000004
20
56.827453125000005
30
0
0
VERTEX
8
0
10
40.317453125
20
56.51306875
30
0
0
VERTEX
8
0
10
40.487596875
20
56.102306250000005
30
0
0
VERTEX
8
0
10
40.487596875
20
55.657690625
30
0
0
VERTEX
8
0
10
40.317453125
20
55.246928125000004
30
0
0
VERTEX
8
0
10
40.003068750000004
20
54.93254375
30
0
0
VERTEX
8
0
10
39.59230625
20
54.7624
30
0
0
VERTEX
8
0
10
39.147690625
20
54.7624
30
0
0
VERTEX
8
0
10
38.736928125
20
54.93254375
30
0
0
VERTEX
8
0
10
38.458678125
20
55.210796875
30
0
0
VERTEX
8
0
10
38.4564
20
55.212500000000006
30
0
0
VERTEX
8
0
10
38.45451875
20
55.214659375000004
30
0
42
0.5484095900174472
0
VERTEX
8
0
10
38.331465625
20
55.177621875
30
0
0
VERTEX
8
0
10
38.330265625
20
55.168959375
30
0
0
VERTEX
8
0
10
38.32875
20
55.161718750000006
30
0
42
0.015770375218223928
0
VERTEX
8
0
10
38.328596875
20
55.156915625
30
0
0
VERTEX
8
0
10
38.328596875
20
11.55625
30
0
0
VERTEX
8
0
10
38.329412500000004
20
11.550600000000001
30
0
0
VERTEX
8
0
10
38.329440625000004
20
11.545684375
30
0
0
VERTEX
8
0
10
38.330184375
20
11.543215625
30
0
0
VERTEX
8
0
10
38.33049375
20
11.53935625
30
0
42
0.015770042330091556
0
VERTEX
8
0
10
38.33170625
20
11.534706250000001
30
0
0
VERTEX
8
0
10
38.334734375000004
20
11.528103125000001
30
0
0
VERTEX
8
0
10
38.335715625
20
11.524840625000001
30
0
0
VERTEX
8
0
10
38.336575
20
11.523525000000001
30
0
0
VERTEX
8
0
10
38.338300000000004
20
11.519037500000001
30
0
42
0.015773954014740632
0
VERTEX
8
0
10
38.340778125
20
11.514918750000001
30
0
0
VERTEX
8
0
10
38.34565
20
11.509325
30
0
0
VERTEX
8
0
10
38.347171875
20
11.507315625
30
0
0
VERTEX
8
0
10
38.347625
20
11.506621875
30
0
0
VERTEX
8
0
10
38.347825
20
11.506450000000001
30
0
0
VERTEX
8
0
10
38.350915625
20
11.50236875
30
0
0
VERTEX
8
0
10
41.24721875
20
8.6060625
30
0
0
VERTEX
8
0
10
41.248540625000004
20
8.605075000000001
30
0
0
VERTEX
8
0
10
41.249584375000005
20
8.603796875
30
0
0
VERTEX
8
0
10
41.256553125
20
8.5990375
30
0
0
VERTEX
8
0
10
41.25905
20
8.5969125
30
0
0
VERTEX
8
0
10
41.26005
20
8.59646875
30
0
0
VERTEX
8
0
10
41.26465
20
8.593028125
30
0
42
0.15529434844823056
0
VERTEX
8
0
10
41.31003125
20
8.58426875
30
0
0
VERTEX
8
0
10
41.320384375
20
8.58696875
30
0
0
VERTEX
8
0
10
41.328025000000004
20
8.588659375
30
0
42
0.007884456392637858
0
VERTEX
8
0
10
41.330259375000004
20
8.58954375
30
0
0
VERTEX
8
0
10
41.687690625
20
8.737596875000001
30
0
0
VERTEX
8
0
10
42.13230625
20
8.737596875000001
30
0
0
VERTEX
8
0
10
42.54306875
20
8.567453125
30
0
0
VERTEX
8
0
10
42.857453125
20
8.25306875
30
0
0
VERTEX
8
0
10
43.027596875
20
7.84230625
30
0
0
VERTEX
8
0
10
43.027596875
20
7.397690625
30
0
0
VERTEX
8
0
10
42.857453125
20
6.986928125
30
0
0
VERTEX
8
0
10
42.54306875
20
6.67254375
30
0
0
VERTEX
8
0
10
42.13230625
20
6.502400000000001
30
0
0
SEQEND
0
POLYLINE
66
1
8
1_copper
10
0.0
20
0.0
30
0.0
70
1
0
VERTEX
8
0
10
18.832743750000002
20
81.5848
30
0
0
VERTEX
8
0
10
18.431315625
20
81.751078125
30
0
0
VERTEX
8
0
10
18.124078125
20
82.058315625
30
0
0
VERTEX
8
0
10
17.957800000000002
20
82.45974375
30
0
0
VERTEX
8
0
10
17.957800000000002
20
82.894253125
30
0
0
VERTEX
8
0
10
18.124078125
20
83.29568125
30
0
0
VERTEX
8
0
10
18.431315625
20
83.60291875
30
0
0
VERTEX
8
0
10
18.832743750000002
20
83.769196875
30
0
0
VERTEX
8
0
10
19.267253125
20
83.769196875
30
0
0
VERTEX
8
0
10
19.668681250000002
20
83.60291875
30
0
0
VERTEX
8
0
10
19.97591875
20
83.29568125
30
0
0
VERTEX
8
0
10
20.142196875
20
82.894253125
30
0
0
VERTEX
8
0
10
20.142196875
20
82.45974375
30
0
0
VERTEX
8
0
10
19.97591875
20
82.058315625
30
0
0
VERTEX
8
0
10
19.668681250000002
20
81.751078125
30
0
0
VERTEX
8
0
10
19.267253125
20
81.5848
30
0
0
SEQEND
0
POLYLINE
66
1
8
1_copper
10
0.0
20
0.0
30
0.0
70
1
0
VERTEX
8
0
10
16.29274375
20
81.33080000000001
30
0
0
VERTEX
8
0
10
15.891315625
20
81.497078125
30
0
0
VERTEX
8
0
10
15.584078125000001
20
81.804315625
30
0
0
VERTEX
8
0
10
15.417800000000002
20
82.20574375000001
30
0
0
VERTEX
8
0
10
15.417800000000002
20
82.640253125
30
0
0
VERTEX
8
0
10
15.584078125000001
20
83.04168125000001
30
0
0
VERTEX
8
0
10
15.891315625
20
83.34891875000001
30
0
0
VERTEX
8
0
10
16.29274375
20
83.515196875
30
0
0
VERTEX
8
0
10
16.727253125
20
83.515196875
30
0
0
VERTEX
8
0
10
17.12868125
20
83.34891875000001
30
0
0
VERTEX
8
0
10
17.435918750000003
20
83.04168125000001
30
0
0
VERTEX
8
0
10
17.602196875
20
82.640253125
30
0
0
VERTEX
8
0
10
17.602196875
20
82.20574375000001
30
0
0
VERTEX
8
0
10
17.435918750000003
20
81.804315625
30
0
0
VERTEX
8
0
10
17.12868125
20
81.497078125
30
0
0
VERTEX
8
0
10
16.727253125
20
81.33080000000001
30
0
0
SEQEND
0
POLYLINE
66
1
8
1_copper
10
0.0
20
0.0
30
0.0
70
1
0
VERTEX
8
0
10
44.720231250000005
20
69.6986
30
0
0
VERTEX
8
0
10
43.87069375
20
70.05049062500001
30
0
0
VERTEX
8
0
10
43.220490625000004
20
70.70069375
30
0
0
VERTEX
8
0
10
42.8686
20
71.55023125000001
30
0
0
VERTEX
8
0
10
42.8686
20
72.46976562500001
30
0
0
VERTEX
8
0
10
43.220490625000004
20
73.319303125
30
0
0
VERTEX
8
0
10
43.87069375
20
73.96950625000001
30
0
0
VERTEX
8
0
10
44.720231250000005
20
74.321396875
30
0
0
VERTEX
8
0
10
45.639765625
20
74.321396875
30
0
0
VERTEX
8
0
10
46.489303125
20
73.96950625000001
30
0
0
VERTEX
8
0
10
47.139506250000004
20
73.319303125
30
0
0
VERTEX
8
0
10
47.491396875
20
72.46976562500001
30
0
0
VERTEX
8
0
10
47.491396875
20
71.55023125000001
30
0
0
VERTEX
8
0
10
47.139506250000004
20
70.70069375
30
0
0
VERTEX
8
0
10
46.489303125
20
70.05049062500001
30
0
0
VERTEX
8
0
10
45.639765625
20
69.6986
30
0
0
SEQEND
0
POLYLINE
66
1
8
1_copper
10
0.0
20
0.0
30
0.0
70
1
0
VERTEX
8
0
10
18.832743750000002
20
71.4248
30
0
0
VERTEX
8
0
10
18.431315625
20
71.59107812500001
30
0
0
VERTEX
8
0
10
18.124078125
20
71.89831562500001
30
0
0
VERTEX
8
0
10
17.957800000000002
20
72.29974375
30
0
0
VERTEX
8
0
10
17.957800000000002
20
72.73425312500001
30
0
0
VERTEX
8
0
10
18.124078125
20
73.13568125
30
0
0
VERTEX
8
0
10
18.431315625
20
73.44291875
30
0
0
VERTEX
8
0
10
18.832743750000002
20
73.60919687500001
30
0
0
VERTEX
8
0
10
19.267253125
20
73.60919687500001
30
0
0
VERTEX
8
0
10
19.668681250000002
20
73.44291875
30
0
0
VERTEX
8
0
10
19.97591875
20
73.13568125
30
0
0
VERTEX
8
0
10
20.142196875
20
72.73425312500001
30
0
0
VERTEX
8
0
10
20.142196875
20
72.29974375
30
0
0
VERTEX
8
0
10
19.97591875
20
71.89831562500001
30
0
0
VERTEX
8
0
10
19.668681250000002
20
71.59107812500001
30
0
0
VERTEX
8
0
10
19.267253125
20
71.4248
30
0
0
SEQEND
0
POLYLINE
66
1
8
1_copper
10
0.0
20
0.0
30
0.0
70
1
0
VERTEX
8
0
10
16.29274375
20
71.1708
30
0
0
VERTEX
8
0
10
15.891315625
20
71.337078125
30
0
0
VERTEX
8
0
10
15.584078125000001
20
71.644315625
30
0
0
VERTEX
8
0
10
15.417800000000002
20
72.04574375
30
0
0
VERTEX
8
0
10
15.417800000000002
20
72.480253125
30
0
0
VERTEX
8
0
10
15.584078125000001
20
72.88168125
30
0
0
VERTEX
8
0
10
15.891315625
20
73.18891875
30
0
0
VERTEX
8
0
10
16.29274375
20
73.355196875
30
0
0
VERTEX
8
0
10
16.727253125
20
73.355196875
30
0
0
VERTEX
8
0
10
17.12868125
20
73.18891875
30
0
0
VERTEX
8
0
10
17.435918750000003
20
72.88168125
30
0
0
VERTEX
8
0
10
17.602196875
20
72.480253125
30
0
0
VERTEX
8
0
10
17.602196875
20
72.04574375
30
0
0
VERTEX
8
0
10
17.435918750000003
20
71.644315625
30
0
0
VERTEX
8
0
10
17.12868125
20
71.337078125
30
0
0
VERTEX
8
0
10
16.727253125
20
71.1708
30
0
0
SEQEND
0
POLYLINE
66
1
8
1_copper
10
0.0
20
0.0
30
0.0
70
1
0
VERTEX
8
0
10
11.212743750000001
20
71.1708
30
0
0
VERTEX
8
0
10
10.811315625
20
71.337078125
30
0
0
VERTEX
8
0
10
10.504078125000001
20
71.644315625
30
0
0
VERTEX
8
0
10
10.3378
20
72.04574375
30
0
0
VERTEX
8
0
10
10.3378
20
72.480253125
30
0
0
VERTEX
8
0
10
10.504078125000001
20
72.88168125
30
0
0
VERTEX
8
0
10
10.811315625
20
73.18891875
30
0
0
VERTEX
8
0
10
11.212743750000001
20
73.355196875
30
0
0
VERTEX
8
0
10
11.647253125
20
73.355196875
30
0
0
VERTEX
8
0
10
12.048681250000001
20
73.18891875
30
0
0
VERTEX
8
0
10
12.35591875
20
72.88168125
30
0
0
VERTEX
8
0
10
12.522196875
20
72.480253125
30
0
0
VERTEX
8
0
10
12.522196875
20
72.04574375
30
0
0
VERTEX
8
0
10
12.35591875
20
71.644315625
30
0
0
VERTEX
8
0
10
12.048681250000001
20
71.337078125
30
0
0
VERTEX
8
0
10
11.647253125
20
71.1708
30
0
0
SEQEND
0
POLYLINE
66
1
8
1_copper
10
0.0
20
0.0
30
0.0
70
1
0
VERTEX
8
0
10
47.720231250000005
20
64.9986
30
0
0
VERTEX
8
0
10
46.87069375
20
65.350490625
30
0
0
VERTEX
8
0
10
46.220490625000004
20
66.00069375
30
0
0
VERTEX
8
0
10
45.8686
20
66.85023125000001
30
0
0
VERTEX
8
0
10
45.8686
20
67.769765625
30
0
0
VERTEX
8
0
10
46.220490625000004
20
68.619303125
30
0
0
VERTEX
8
0
10
46.87069375
20
69.26950625
30
0
0
VERTEX
8
0
10
47.720231250000005
20
69.621396875
30
0
0
VERTEX
8
0
10
48.639765625
20
69.621396875
30
0
0
VERTEX
8
0
10
49.489303125
20
69.26950625
30
0
0
VERTEX
8
0
10
50.139506250000004
20
68.619303125
30
0
0
VERTEX
8
0
10
50.491396875
20
67.769765625
30
0
0
VERTEX
8
0
10
50.491396875
20
66.85023125000001
30
0
0
VERTEX
8
0
10
50.139506250000004
20
66.00069375
30
0
0
VERTEX
8
0
10
49.489303125
20
65.350490625
30
0
0
VERTEX
8
0
10
48.639765625
20
64.9986
30
0
0
SEQEND
0
POLYLINE
66
1
8
1_copper
10
0.0
20
0.0
30
0.0
70
1
0
VERTEX
8
0
10
54.527696875000004
20
34.3923875
30
0
0
VERTEX
8
0
10
54.116934375
20
34.56253125
30
0
0
VERTEX
8
0
10
53.802550000000004
20
34.876915625
30
0
0
VERTEX
8
0
10
53.63240625
20
35.287678125
30
0
0
VERTEX
8
0
10
53.63240625
20
35.732293750000004
30
0
0
VERTEX
8
0
10
53.802550000000004
20
36.14305625
30
0
0
VERTEX
8
0
10
54.116934375
20
36.457440625000004
30
0
0
VERTEX
8
0
10
54.395065625
20
36.572643750000005
30
0
0
VERTEX
8
0
10
54.403428125000005
20
36.577609375
30
0
0
VERTEX
8
0
10
54.411887500000006
20
36.58228125
30
0
42
0.3834763853360074
0
VERTEX
8
0
10
54.431196875000005
20
36.682334375
30
0
0
VERTEX
8
0
10
54.426218750000004
20
36.688425
30
0
0
VERTEX
8
0
10
54.419787500000005
20
36.696925
30
0
0
VERTEX
8
0
10
43.056828125
20
48.059881250000004
30
0
0
VERTEX
8
0
10
42.900600000000004
20
48.216109375
30
0
0
VERTEX
8
0
10
42.900600000000004
20
55.106115625
30
0
0
VERTEX
8
0
10
42.900190625
20
55.10894375
30
0
0
VERTEX
8
0
10
42.9003875
20
55.111787500000005
30
0
42
0.548409711059846
0
VERTEX
8
0
10
42.7871875
20
55.1726125
30
0
0
VERTEX
8
0
10
42.78021875
20
55.1673375
30
0
0
VERTEX
8
0
10
42.774021875
20
55.1632875
30
0
42
0.015772426617527556
0
VERTEX
8
0
10
42.77051875
20
55.159996875000004
30
0
0
VERTEX
8
0
10
42.54306875
20
54.93254375
30
0
0
VERTEX
8
0
10
42.13230625
20
54.7624
30
0
0
VERTEX
8
0
10
41.687690625
20
54.7624
30
0
0
VERTEX
8
0
10
41.276928125000005
20
54.93254375
30
0
0
VERTEX
8
0
10
40.96254375
20
55.246928125000004
30
0
0
VERTEX
8
0
10
40.7924
20
55.657690625
30
0
0
VERTEX
8
0
10
40.7924
20
56.102306250000005
30
0
0
VERTEX
8
0
10
40.96254375
20
56.51306875
30
0
0
VERTEX
8
0
10
41.276928125000005
20
56.827453125000005
30
0
0
VERTEX
8
0
10
41.687690625
20
56.997596875
30
0
0
VERTEX
8
0
10
42.13230625
20
56.997596875
30
0
0
VERTEX
8
0
10
42.54306875
20
56.827453125000005
30
0
0
VERTEX
8
0
10
42.77051875
20
56.6
30
0
0
VERTEX
8
0
10
42.772796875000004
20
56.598296875
30
0
0
VERTEX
8
0
10
42.774678125
20
56.596137500000005
30
0
42
0.5484095900174472
0
VERTEX
8
0
10
42.89773125
20
56.633175
30
0
0
VERTEX
8
0
10
42.898931250000004
20
56.6418375
30
0
0
VERTEX
8
0
10
42.900446875
20
56.649078125
30
0
42
0.015770375218223928
0
VERTEX
8
0
10
42.900600000000004
20
56.653881250000005
30
0
0
VERTEX
8
0
10
42.900600000000004
20
64.992603125
30
0
0
VERTEX
8
0
10
42.89921875
20
65.00218125
30
0
0
VERTEX
8
0
10
42.898134375000005
20
65.01183125
30
0
42
0.38348358509216557
0
VERTEX
8
0
10
42.813084375
20
65.067959375
30
0
0
VERTEX
8
0
10
42.80558125
20
65.0657
30
0
0
VERTEX
8
0
10
42.7952375
20
65.06300312500001
30
0
0
VERTEX
8
0
10
42.6397625
20
64.9986
30
0
0
VERTEX
8
0
10
41.720231250000005
20
64.9986
30
0
0
VERTEX
8
0
10
40.87069375
20
65.350490625
30
0
0
VERTEX
8
0
10
40.220490625000004
20
66.00069375
30
0
0
VERTEX
8
0
10
39.8686
20
66.85023125000001
30
0
0
VERTEX
8
0
10
39.8686
20
67.769765625
30
0
0
VERTEX
8
0
10
40.220490625000004
20
68.619303125
30
0
0
VERTEX
8
0
10
40.87069375
20
69.26950625
30
0
0
VERTEX
8
0
10
41.720231250000005
20
69.621396875
30
0
0
VERTEX
8
0
10
42.639765625
20
69.621396875
30
0
0
VERTEX
8
0
10
43.489303125
20
69.26950625
30
0
0
VERTEX
8
0
10
44.139506250000004
20
68.619303125
30
0
0
VERTEX
8
0
10
44.491396875
20
67.769765625
30
0
0
VERTEX
8
0
10
44.491396875
20
66.85023125000001
30
0
0
VERTEX
8
0
10
44.139506250000004
20
66.00069375
30
0
0
VERTEX
8
0
10
43.489303125
20
65.350490625
30
0
0
VERTEX
8
0
10
43.4048375
20
65.315503125
30
0
0
VERTEX
8
0
10
43.40341875
20
65.314659375
30
0
0
VERTEX
8
0
10
43.4018375
20
65.314184375
30
0
42
0.2183495123382137
0
VERTEX
8
0
10
43.360665625
20
65.265809375
30
0
0
VERTEX
8
0
10
43.359203125
20
65.25525
30
0
0
VERTEX
8
0
10
43.357834375
20
65.24750625
30
0
42
0.00788569762177906
0
VERTEX
8
0
10
43.357796875000005
20
65.245103125
30
0
0
VERTEX
8
0
10
43.357796875000005
20
56.546696875
30
0
0
VERTEX
8
0
10
43.358778125
20
56.539893750000005
30
0
0
VERTEX
8
0
10
43.3590375
20
56.532996875
30
0
42
0.6006579100213704
0
VERTEX
8
0
10
43.498484375000004
20
56.5061
30
0
0
VERTEX
8
0
10
43.5008125
20
56.5113375
30
0
0
VERTEX
8
0
10
43.816928125000004
20
56.827453125000005
30
0
0
VERTEX
8
0
10
44.227690625
20
56.997596875
30
0
0
VERTEX
8
0
10
44.672306250000005
20
56.997596875
30
0
0
VERTEX
8
0
10
45.08306875
20
56.827453125000005
30
0
0
VERTEX
8
0
10
45.397453125000006
20
56.51306875
30
0
0
VERTEX
8
0
10
45.567596875
20
56.102306250000005
30
0
0
VERTEX
8
0
10
45.567596875
20
55.657690625
30
0
0
VERTEX
8
0
10
45.397453125000006
20
55.246928125000004
30
0
0
VERTEX
8
0
10
45.08306875
20
54.93254375
30
0
0
VERTEX
8
0
10
44.672306250000005
20
54.7624
30
0
0
VERTEX
8
0
10
44.227690625
20
54.7624
30
0
0
VERTEX
8
0
10
43.816928125000004
20
54.93254375
30
0
0
VERTEX
8
0
10
43.500703125
20
55.24876875
30
0
0
VERTEX
8
0
10
43.498015625
20
55.25463125
30
0
42
0.7477774313238661
0
VERTEX
8
0
10
43.357796875000005
20
55.213300000000004
30
0
0
VERTEX
8
0
10
43.357796875000005
20
48.43705
30
0
0
VERTEX
8
0
10
43.3586125
20
48.431400000000004
30
0
0
VERTEX
8
0
10
43.358640625
20
48.426484375
30
0
0
VERTEX
8
0
10
43.359384375000005
20
48.424015625
30
0
0
VERTEX
8
0
10
43.359693750000005
20
48.420156250000005
30
0
42
0.015770042330091556
0
VERTEX
8
0
10
43.36090625
20
48.41550625
30
0
0
VERTEX
8
0
10
43.363934375
20
48.408903125
30
0
0
VERTEX
8
0
10
43.364915625
20
48.405640625000004
30
0
0
VERTEX
8
0
10
43.365775
20
48.404325
30
0
0
VERTEX
8
0
10
43.3675
20
48.399837500000004
30
0
42
0.015773954014740632
0
VERTEX
8
0
10
43.369978125
20
48.39571875
30
0
0
VERTEX
8
0
10
43.37485
20
48.390125000000005
30
0
0
VERTEX
8
0
10
43.376371875000004
20
48.388115625000005
30
0
0
VERTEX
8
0
10
43.376825000000004
20
48.387421875
30
0
0
VERTEX
8
0
10
43.377025
20
48.38725
30
0
0
VERTEX
8
0
10
43.380115625
20
48.38316875
30
0
0
VERTEX
8
0
10
52.003234375000005
20
39.760046875
30
0
0
VERTEX
8
0
10
52.00475625
20
39.758909375
30
0
0
VERTEX
8
0
10
52.005975
20
39.7574375
30
0
42
0.6456051260479226
0
VERTEX
8
0
10
52.133309375
20
39.812906250000005
30
0
0
VERTEX
8
0
10
52.13204375
20
39.82303125
30
0
0
VERTEX
8
0
10
52.13141875
20
39.830821875000005
30
0
42
0.009559556443401911
0
VERTEX
8
0
10
52.13071875
20
39.83365
30
0
0
VERTEX
8
0
10
52.0065
20
40.297240625
30
0
0
VERTEX
8
0
10
52.0065
20
40.98275625
30
0
0
VERTEX
8
0
10
52.183921875
20
41.644912500000004
30
0
0
VERTEX
8
0
10
52.52668125
20
42.238584375
30
0
0
VERTEX
8
0
10
53.011412500000006
20
42.723315625000005
30
0
0
VERTEX
8
0
10
53.605084375000004
20
43.066075000000005
30
0
0
VERTEX
8
0
10
54.267240625
20
43.243496875000005
30
0
0
VERTEX
8
0
10
54.95275625
20
43.243496875000005
30
0
0
VERTEX
8
0
10
55.6149125
20
43.066075000000005
30
0
0
VERTEX
8
0
10
56.208584375
20
42.723315625000005
30
0
0
VERTEX
8
0
10
56.693315625000004
20
42.238584375
30
0
0
VERTEX
8
0
10
57.036075000000004
20
41.644912500000004
30
0
0
VERTEX
8
0
10
57.213496875000004
20
40.98275625
30
0
0
VERTEX
8
0
10
57.213496875000004
20
40.297240625
30
0
0
VERTEX
8
0
10
57.036075000000004
20
39.635084375000005
30
0
0
VERTEX
8
0
10
56.693315625000004
20
39.0414125
30
0
0
VERTEX
8
0
10
56.208584375
20
38.556681250000004
30
0
0
VERTEX
8
0
10
55.6149125
20
38.213921875000004
30
0
0
VERTEX
8
0
10
54.95275625
20
38.036500000000004
30
0
0
VERTEX
8
0
10
54.267240625
20
38.036500000000004
30
0
0
VERTEX
8
0
10
53.803650000000005
20
38.16071875
30
0
0
VERTEX
8
0
10
53.801756250000004
20
38.16094375
30
0
0
VERTEX
8
0
10
53.799971875000004
20
38.16160625
30
0
42
0.6456089314591615
0
VERTEX
8
0
10
53.717431250000004
20
38.049903125
30
0
0
VERTEX
8
0
10
53.723578125
20
38.04178125
30
0
0
VERTEX
8
0
10
53.728025
20
38.035334375000005
30
0
42
0.009564965529651071
0
VERTEX
8
0
10
53.730046875
20
38.033234375
30
0
0
VERTEX
8
0
10
54.940196875000005
20
36.8230875
30
0
0
VERTEX
8
0
10
54.940196875000005
20
36.6918
30
0
0
VERTEX
8
0
10
54.940434375
20
36.6901625
30
0
0
VERTEX
8
0
10
54.94026875
20
36.688525
30
0
42
0.21834638570063183
0
VERTEX
8
0
10
54.969203125
20
36.631975000000004
30
0
0
VERTEX
8
0
10
54.978415625000004
20
36.626571875
30
0
0
VERTEX
8
0
10
54.985031250000006
20
36.62235625
30
0
42
0.007889569284554799
0
VERTEX
8
0
10
54.9872375
20
36.6214
30
0
0
VERTEX
8
0
10
55.383075000000005
20
36.457440625000004
30
0
0
VERTEX
8
0
10
55.697459375
20
36.14305625
30
0
0
VERTEX
8
0
10
55.867603125
20
35.732293750000004
30
0
0
VERTEX
8
0
10
55.867603125
20
35.287678125
30
0
0
VERTEX
8
0
10
55.697459375
20
34.876915625
30
0
0
VERTEX
8
0
10
55.383075000000005
20
34.56253125
30
0
0
VERTEX
8
0
10
54.9723125
20
34.3923875
30
0
0
SEQEND
0
POLYLINE
66
1
8
1_copper
10
0.0
20
0.0
30
0.0
70
1
0
VERTEX
8
0
10
28.305584375000002
20
68.11680625
30
0
0
VERTEX
8
0
10
28.308425
20
68.11660937500001
30
0
42
0.548409711059846
0
VERTEX
8
0
10
28.36925
20
68.229809375
30
0
0
VERTEX
8
0
10
28.363975
20
68.236778125
30
0
0
VERTEX
8
0
10
28.359925
20
68.242975
30
0
42
0.015772426617527556
0
VERTEX
8
0
10
28.356634375000002
20
68.24647812500001
30
0
0
VERTEX
8
0
10
27.813000000000002
20
68.790109375
30
0
0
VERTEX
8
0
10
27.813000000000002
20
68.97885000000001
30
0
0
VERTEX
8
0
10
27.8127625
20
68.98048750000001
30
0
0
VERTEX
8
0
10
27.812928125000003
20
68.982125
30
0
42
0.21834638570063183
0
VERTEX
8
0
10
27.78399375
20
69.038675
30
0
0
VERTEX
8
0
10
27.77478125
20
69.044078125
30
0
0
VERTEX
8
0
10
27.768165625
20
69.04829375
30
0
42
0.007889569284554799
0
VERTEX
8
0
10
27.765959375
20
69.04925
30
0
0
VERTEX
8
0
10
27.483209375
20
69.16636875
30
0
0
VERTEX
8
0
10
27.333478125000003
20
69.316103125
30
0
0
VERTEX
8
0
10
27.331200000000003
20
69.31780625
30
0
0
VERTEX
8
0
10
27.329318750000002
20
69.31996562500001
30
0
42
0.5484095900174472
0
VERTEX
8
0
10
27.206265625
20
69.282928125
30
0
0
VERTEX
8
0
10
27.205065625
20
69.274271875
30
0
0
VERTEX
8
0
10
27.20355
20
69.26702812500001
30
0
42
0.015780610188008838
0
VERTEX
8
0
10
27.203396875000003
20
69.26222187500001
30
0
0
VERTEX
8
0
10
27.203396875000003
20
68.192596875
30
0
0
VERTEX
8
0
10
27.204209375
20
68.18697812500001
30
0
42
0.39258815634569955
0
VERTEX
8
0
10
27.279596875000003
20
68.116396875
30
0
0
VERTEX
8
0
10
28.302753125000002
20
68.116396875
30
0
0
SEQEND
0
POLYLINE
66
1
8
1_copper
10
0.0
20
0.0
30
0.0
70
1
0
VERTEX
8
0
10
9.396784375000001
20
60.81280625
30
0
0
VERTEX
8
0
10
9.399625
20
60.812609375
30
0
42
0.548409711059846
0
VERTEX
8
0
10
9.46045
20
60.925809375
30
0
0
VERTEX
8
0
10
9.455175
20
60.932778125000006
30
0
0
VERTEX
8
0
10
9.451125000000001
20
60.938975000000006
30
0
42
0.015772426617527556
0
VERTEX
8
0
10
9.447834375000001
20
60.942478125
30
0
0
VERTEX
8
0
10
9.30503125
20
61.08528125
30
0
0
VERTEX
8
0
10
9.298246875
20
61.090353125
30
0
0
VERTEX
8
0
10
9.291746875000001
20
61.0958875
30
0
42
0.08765145259213399
0
VERTEX
8
0
10
9.26719375
20
61.105890625
30
0
0
VERTEX
8
0
10
9.25981875
20
61.1064
30
0
0
VERTEX
8
0
10
9.25115
20
61.107600000000005
30
0
0
VERTEX
8
0
10
8.43684375
20
61.107600000000005
30
0
0
VERTEX
8
0
10
8.434015625
20
61.107190625
30
0
0
VERTEX
8
0
10
8.431168750000001
20
61.1073875
30
0
42
0.5483964118425825
0
VERTEX
8
0
10
8.370346875000001
20
60.9941875
30
0
0
VERTEX
8
0
10
8.375621875
20
60.987218750000004
30
0
0
VERTEX
8
0
10
8.379671875
20
60.981021875
30
0
42
0.015772426617527556
0
VERTEX
8
0
10
8.3829625
20
60.97751875
30
0
0
VERTEX
8
0
10
8.525768750000001
20
60.834715625
30
0
0
VERTEX
8
0
10
8.532565625
20
60.829634375000005
30
0
0
VERTEX
8
0
10
8.539053125
20
60.824109375000006
30
0
42
0.08766372749491834
0
VERTEX
8
0
10
8.563609375
20
60.814103125
30
0
0
VERTEX
8
0
10
8.57100625
20
60.81359375
30
0
0
VERTEX
8
0
10
8.57965
20
60.812396875000005
30
0
0
VERTEX
8
0
10
9.393953125000001
20
60.812396875000005
30
0
0
SEQEND
0
POLYLINE
66
1
8
1_copper
10
0.0
20
0.0
30
0.0
70
1
0
VERTEX
8
0
10
51.847690625000006
20
54.7624
30
0
0
VERTEX
8
0
10
51.436928125
20
54.93254375
30
0
0
VERTEX
8
0
10
51.122543750000006
20
55.246928125000004
30
0
0
VERTEX
8
0
10
50.952400000000004
20
55.657690625
30
0
0
VERTEX
8
0
10
50.952400000000004
20
56.102306250000005
30
0
0
VERTEX
8
0
10
51.122543750000006
20
56.51306875
30
0
0
VERTEX
8
0
10
51.436928125
20
56.827453125000005
30
0
0
VERTEX
8
0
10
51.847690625000006
20
56.997596875
30
0
0
VERTEX
8
0
10
52.29230625
20
56.997596875
30
0
0
VERTEX
8
0
10
52.70306875
20
56.827453125000005
30
0
0
VERTEX
8
0
10
53.017453125
20
56.51306875
30
0
0
VERTEX
8
0
10
53.187596875000004
20
56.102306250000005
30
0
0
VERTEX
8
0
10
53.187596875000004
20
55.657690625
30
0
0
VERTEX
8
0
10
53.017453125
20
55.246928125000004
30
0
0
VERTEX
8
0
10
52.70306875
20
54.93254375
30
0
0
VERTEX
8
0
10
52.29230625
20
54.7624
30
0
0
SEQEND
0
POLYLINE
66
1
8
1_copper
10
0.0
20
0.0
30
0.0
70
1
0
VERTEX
8
0
10
49.307690625
20
54.7624
30
0
0
VERTEX
8
0
10
48.896928125
20
54.93254375
30
0
0
VERTEX
8
0
10
48.58254375
20
55.246928125000004
30
0
0
VERTEX
8
0
10
48.412400000000005
20
55.657690625
30
0
0
VERTEX
8
0
10
48.412400000000005
20
56.102306250000005
30
0
0
VERTEX
8
0
10
48.58254375
20
56.51306875
30
0
0
VERTEX
8
0
10
48.896928125
20
56.827453125000005
30
0
0
VERTEX
8
0
10
49.307690625
20
56.997596875
30
0
0
VERTEX
8
0
10
49.752306250000004
20
56.997596875
30
0
0
VERTEX
8
0
10
50.16306875
20
56.827453125000005
30
0
0
VERTEX
8
0
10
50.477453125000004
20
56.51306875
30
0
0
VERTEX
8
0
10
50.647596875000005
20
56.102306250000005
30
0
0
VERTEX
8
0
10
50.647596875000005
20
55.657690625
30
0
0
VERTEX
8
0
10
50.477453125000004
20
55.246928125000004
30
0
0
VERTEX
8
0
10
50.16306875
20
54.93254375
30
0
0
VERTEX
8
0
10
49.752306250000004
20
54.7624
30
0
0
SEQEND
0
POLYLINE
66
1
8
1_copper
10
0.0
20
0.0
30
0.0
70
1
0
VERTEX
8
0
10
46.767690625
20
54.7624
30
0
0
VERTEX
8
0
10
46.356928125
20
54.93254375
30
0
0
VERTEX
8
0
10
46.04254375
20
55.246928125000004
30
0
0
VERTEX
8
0
10
45.8724
20
55.657690625
30
0
0
VERTEX
8
0
10
45.8724
20
56.102306250000005
30
0
0
VERTEX
8
0
10
46.04254375
20
56.51306875
30
0
0
VERTEX
8
0
10
46.356928125
20
56.827453125000005
30
0
0
VERTEX
8
0
10
46.767690625
20
56.997596875
30
0
0
VERTEX
8
0
10
47.212306250000005
20
56.997596875
30
0
0
VERTEX
8
0
10
47.62306875
20
56.827453125000005
30
0
0
VERTEX
8
0
10
47.937453125000005
20
56.51306875
30
0
0
VERTEX
8
0
10
48.107596875000006
20
56.102306250000005
30
0
0
VERTEX
8
0
10
48.107596875000006
20
55.657690625
30
0
0
VERTEX
8
0
10
47.937453125000005
20
55.246928125000004
30
0
0
VERTEX
8
0
10
47.62306875
20
54.93254375
30
0
0
VERTEX
8
0
10
47.212306250000005
20
54.7624
30
0
0
SEQEND
0
POLYLINE
66
1
8
1_copper
10
0.0
20
0.0
30
0.0
70
1
0
VERTEX
8
0
10
30.003690625
20
54.7624
30
0
0
VERTEX
8
0
10
29.592928125
20
54.93254375
30
0
0
VERTEX
8
0
10
29.27854375
20
55.246928125000004
30
0
0
VERTEX
8
0
10
29.108400000000003
20
55.657690625
30
0
0
VERTEX
8
0
10
29.108400000000003
20
56.102306250000005
30
0
0
VERTEX
8
0
10
29.27854375
20
56.51306875
30
0
0
VERTEX
8
0
10
29.592928125
20
56.827453125000005
30
0
0
VERTEX
8
0
10
30.003690625
20
56.997596875
30
0
0
VERTEX
8
0
10
30.44830625
20
56.997596875
30
0
0
VERTEX
8
0
10
30.859068750000002
20
56.827453125000005
30
0
0
VERTEX
8
0
10
31.173453125
20
56.51306875
30
0
0
VERTEX
8
0
10
31.343596875000003
20
56.102306250000005
30
0
0
VERTEX
8
0
10
31.343596875000003
20
55.657690625
30
0
0
VERTEX
8
0
10
31.173453125
20
55.246928125000004
30
0
0
VERTEX
8
0
10
30.859068750000002
20
54.93254375
30
0
0
VERTEX
8
0
10
30.44830625
20
54.7624
30
0
0
SEQEND
0
POLYLINE
66
1
8
1_copper
10
0.0
20
0.0
30
0.0
70
1
0
VERTEX
8
0
10
19.843690625
20
54.7624
30
0
0
VERTEX
8
0
10
19.432928125
20
54.93254375
30
0
0
VERTEX
8
0
10
19.11854375
20
55.246928125000004
30
0
0
VERTEX
8
0
10
18.9484
20
55.657690625
30
0
0
VERTEX
8
0
10
18.9484
20
56.102306250000005
30
0
0
VERTEX
8
0
10
19.11854375
20
56.51306875
30
0
0
VERTEX
8
0
10
19.432928125
20
56.827453125000005
30
0
0
VERTEX
8
0
10
19.843690625
20
56.997596875
30
0
0
VERTEX
8
0
10
20.28830625
20
56.997596875
30
0
0
VERTEX
8
0
10
20.699068750000002
20
56.827453125000005
30
0
0
VERTEX
8
0
10
21.013453125
20
56.51306875
30
0
0
VERTEX
8
0
10
21.183596875000003
20
56.102306250000005
30
0
0
VERTEX
8
0
10
21.183596875000003
20
55.657690625
30
0
0
VERTEX
8
0
10
21.013453125
20
55.246928125000004
30
0
0
VERTEX
8
0
10
20.699068750000002
20
54.93254375
30
0
0
VERTEX
8
0
10
20.28830625
20
54.7624
30
0
0
SEQEND
0
POLYLINE
66
1
8
1_copper
10
0.0
20
0.0
30
0.0
70
1
0
VERTEX
8
0
10
17.303690625
20
54.7624
30
0
0
VERTEX
8
0
10
16.892928125
20
54.93254375
30
0
0
VERTEX
8
0
10
16.57854375
20
55.246928125000004
30
0
0
VERTEX
8
0
10
16.4084
20
55.657690625
30
0
0
VERTEX
8
0
10
16.4084
20
56.102306250000005
30
0
0
VERTEX
8
0
10
16.57854375
20
56.51306875
30
0
0
VERTEX
8
0
10
16.892928125
20
56.827453125000005
30
0
0
VERTEX
8
0
10
17.303690625
20
56.997596875
30
0
0
VERTEX
8
0
10
17.748306250000002
20
56.997596875
30
0
0
VERTEX
8
0
10
18.15906875
20
56.827453125000005
30
0
0
VERTEX
8
0
10
18.473453125000002
20
56.51306875
30
0
0
VERTEX
8
0
10
18.643596875
20
56.102306250000005
30
0
0
VERTEX
8
0
10
18.643596875
20
55.657690625
30
0
0
VERTEX
8
0
10
18.473453125000002
20
55.246928125000004
30
0
0
VERTEX
8
0
10
18.15906875
20
54.93254375
30
0
0
VERTEX
8
0
10
17.748306250000002
20
54.7624
30
0
0
SEQEND
0
POLYLINE
66
1
8
1_copper
10
0.0
20
0.0
30
0.0
70
1
0
VERTEX
8
0
10
51.987696875000005
20
34.3923875
30
0
0
VERTEX
8
0
10
51.576934375
20
34.56253125
30
0
0
VERTEX
8
0
10
51.262550000000005
20
34.876915625
30
0
0
VERTEX
8
0
10
51.09240625
20
35.287678125
30
0
0
VERTEX
8
0
10
51.09240625
20
35.732293750000004
30
0
0
VERTEX
8
0
10
51.262550000000005
20
36.14305625
30
0
0
VERTEX
8
0
10
51.576934375
20
36.457440625000004
30
0
0
VERTEX
8
0
10
51.987696875000005
20
36.627584375000005
30
0
0
VERTEX
8
0
10
52.4323125
20
36.627584375000005
30
0
0
VERTEX
8
0
10
52.843075000000006
20
36.457440625000004
30
0
0
VERTEX
8
0
10
53.157459375
20
36.14305625
30
0
0
VERTEX
8
0
10
53.327603125
20
35.732293750000004
30
0
0
VERTEX
8
0
10
53.327603125
20
35.287678125
30
0
0
VERTEX
8
0
10
53.157459375
20
34.876915625
30
0
0
VERTEX
8
0
10
52.843075000000006
20
34.56253125
30
0
0
VERTEX
8
0
10
52.4323125
20
34.3923875
30
0
0
SEQEND
0
POLYLINE
66
1
8
1_copper
10
0.0
20
0.0
30
0.0
70
1
0
VERTEX
8
0
10
54.527696875000004
20
31.852387500000003
30
0
0
VERTEX
8
0
10
54.116934375
20
32.02253125
30
0
0
VERTEX
8
0
10
53.802550000000004
20
32.336915625
30
0
0
VERTEX
8
0
10
53.63240625
20
32.747678125
30
0
0
VERTEX
8
0
10
53.63240625
20
33.192293750000005
30
0
0
VERTEX
8
0
10
53.802550000000004
20
33.60305625
30
0
0
VERTEX
8
0
10
54.116934375
20
33.917440625000005
30
0
0
VERTEX
8
0
10
54.527696875000004
20
34.087584375
30
0
0
VERTEX
8
0
10
54.9723125
20
34.087584375
30
0
0
VERTEX
8
0
10
55.383075000000005
20
33.917440625000005
30
0
0
VERTEX
8
0
10
55.697459375
20
33.60305625
30
0
0
VERTEX
8
0
10
55.867603125
20
33.192293750000005
30
0
0
VERTEX
8
0
10
55.867603125
20
32.747678125
30
0
0
VERTEX
8
0
10
55.697459375
20
32.336915625
30
0
0
VERTEX
8
0
10
55.383075000000005
20
32.02253125
30
0
0
VERTEX
8
0
10
54.9723125
20
31.852387500000003
30
0
0
SEQEND
0
POLYLINE
66
1
8
1_copper
10
0.0
20
0.0
30
0.0
70
1
0
VERTEX
8
0
10
51.987696875000005
20
31.852387500000003
30
0
0
VERTEX
8
0
10
51.576934375
20
32.02253125
30
0
0
VERTEX
8
0
10
51.262550000000005
20
32.336915625
30
0
0
VERTEX
8
0
10
51.09240625
20
32.747678125
30
0
0
VERTEX
8
0
10
51.09240625
20
33.192293750000005
30
0
0
VERTEX
8
0
10
51.262550000000005
20
33.60305625
30
0
0
VERTEX
8
0
10
51.576934375
20
33.917440625000005
30
0
0
VERTEX
8
0
10
51.987696875000005
20
34.087584375
30
0
0
VERTEX
8
0
10
52.4323125
20
34.087584375
30
0
0
VERTEX
8
0
10
52.843075000000006
20
33.917440625000005
30
0
0
VERTEX
8
0
10
53.157459375
20
33.60305625
30
0
0
VERTEX
8
0
10
53.327603125
20
33.192293750000005
30
0
0
VERTEX
8
0
10
53.327603125
20
32.747678125
30
0
0
VERTEX
8
0
10
53.157459375
20
32.336915625
30
0
0
VERTEX
8
0
10
52.843075000000006
20
32.02253125
30
0
0
VERTEX
8
0
10
52.4323125
20
31.852387500000003
30
0
0
SEQEND
0
POLYLINE
66
1
8
1_copper
10
0.0
20
0.0
30
0.0
70
1
0
VERTEX
8
0
10
54.527696875000004
20
29.3123875
30
0
0
VERTEX
8
0
10
54.116934375
20
29.48253125
30
0
0
VERTEX
8
0
10
53.802550000000004
20
29.796915625
30
0
0
VERTEX
8
0
10
53.63240625
20
30.207678125
30
0
0
VERTEX
8
0
10
53.63240625
20
30.652293750000002
30
0
0
VERTEX
8
0
10
53.802550000000004
20
31.063056250000002
30
0
0
VERTEX
8
0
10
54.116934375
20
31.377440625000002
30
0
0
VERTEX
8
0
10
54.527696875000004
20
31.547584375000003
30
0
0
VERTEX
8
0
10
54.9723125
20
31.547584375000003
30
0
0
VERTEX
8
0
10
55.383075000000005
20
31.377440625000002
30
0
0
VERTEX
8
0
10
55.697459375
20
31.063056250000002
30
0
0
VERTEX
8
0
10
55.867603125
20
30.652293750000002
30
0
0
VERTEX
8
0
10
55.867603125
20
30.207678125
30
0
0
VERTEX
8
0
10
55.697459375
20
29.796915625
30
0
0
VERTEX
8
0
10
55.383075000000005
20
29.48253125
30
0
0
VERTEX
8
0
10
54.9723125
20
29.3123875
30
0
0
SEQEND
0
POLYLINE
66
1
8
1_copper
10
0.0
20
0.0
30
0.0
70
1
0
VERTEX
8
0
10
51.987696875000005
20
29.3123875
30
0
0
VERTEX
8
0
10
51.576934375
20
29.48253125
30
0
0
VERTEX
8
0
10
51.262550000000005
20
29.796915625
30
0
0
VERTEX
8
0
10
51.09240625
20
30.207678125
30
0
0
VERTEX
8
0
10
51.09240625
20
30.652293750000002
30
0
0
VERTEX
8
0
10
51.262550000000005
20
31.063056250000002
30
0
0
VERTEX
8
0
10
51.576934375
20
31.377440625000002
30
0
0
VERTEX
8
0
10
51.987696875000005
20
31.547584375000003
30
0
0
VERTEX
8
0
10
52.4323125
20
31.547584375000003
30
0
0
VERTEX
8
0
10
52.843075000000006
20
31.377440625000002
30
0
0
VERTEX
8
0
10
53.157459375
20
31.063056250000002
30
0
0
VERTEX
8
0
10
53.327603125
20
30.652293750000002
30
0
0
VERTEX
8
0
10
53.327603125
20
30.207678125
30
0
0
VERTEX
8
0
10
53.157459375
20
29.796915625
30
0
0
VERTEX
8
0
10
52.843075000000006
20
29.48253125
30
0
0
VERTEX
8
0
10
52.4323125
20
29.3123875
30
0
0
SEQEND
0
POLYLINE
66
1
8
1_copper
10
0.0
20
0.0
30
0.0
70
1
0
VERTEX
8
0
10
54.267240625
20
10.0965
30
0
0
VERTEX
8
0
10
53.605084375000004
20
10.273921875000001
30
0
0
VERTEX
8
0
10
53.011412500000006
20
10.616681250000001
30
0
0
VERTEX
8
0
10
52.52668125
20
11.1014125
30
0
0
VERTEX
8
0
10
52.183921875
20
11.695084375
30
0
0
VERTEX
8
0
10
52.0065
20
12.357240625000001
30
0
0
VERTEX
8
0
10
52.0065
20
13.04275625
30
0
0
VERTEX
8
0
10
52.183921875
20
13.7049125
30
0
0
VERTEX
8
0
10
52.52668125
20
14.298584375
30
0
0
VERTEX
8
0
10
53.011412500000006
20
14.783315625
30
0
0
VERTEX
8
0
10
53.605084375000004
20
15.126075
30
0
0
VERTEX
8
0
10
54.267240625
20
15.303496875
30
0
0
VERTEX
8
0
10
54.95275625
20
15.303496875
30
0
0
VERTEX
8
0
10
55.6149125
20
15.126075
30
0
0
VERTEX
8
0
10
56.208584375
20
14.783315625
30
0
0
VERTEX
8
0
10
56.693315625000004
20
14.298584375
30
0
0
VERTEX
8
0
10
57.036075000000004
20
13.7049125
30
0
0
VERTEX
8
0
10
57.213496875000004
20
13.04275625
30
0
0
VERTEX
8
0
10
57.213496875000004
20
12.357240625000001
30
0
0
VERTEX
8
0
10
57.036075000000004
20
11.695084375
30
0
0
VERTEX
8
0
10
56.693315625000004
20
11.1014125
30
0
0
VERTEX
8
0
10
56.208584375
20
10.616681250000001
30
0
0
VERTEX
8
0
10
55.6149125
20
10.273921875000001
30
0
0
VERTEX
8
0
10
54.95275625
20
10.0965
30
0
0
SEQEND
0
POLYLINE
66
1
8
1_copper
10
0.0
20
0.0
30
0.0
70
1
0
VERTEX
8
0
10
51.847690625000006
20
6.502400000000001
30
0
0
VERTEX
8
0
10
51.436928125
20
6.67254375
30
0
0
VERTEX
8
0
10
51.122543750000006
20
6.986928125
30
0
0
VERTEX
8
0
10
50.952400000000004
20
7.397690625
30
0
0
VERTEX
8
0
10
50.952400000000004
20
7.84230625
30
0
0
VERTEX
8
0
10
51.122543750000006
20
8.25306875
30
0
0
VERTEX
8
0
10
51.436928125
20
8.567453125
30
0
0
VERTEX
8
0
10
51.847690625000006
20
8.737596875000001
30
0
0
VERTEX
8
0
10
52.29230625
20
8.737596875000001
30
0
0
VERTEX
8
0
10
52.70306875
20
8.567453125
30
0
0
VERTEX
8
0
10
53.017453125
20
8.25306875
30
0
0
VERTEX
8
0
10
53.187596875000004
20
7.84230625
30
0
0
VERTEX
8
0
10
53.187596875000004
20
7.397690625
30
0
0
VERTEX
8
0
10
53.017453125
20
6.986928125
30
0
0
VERTEX
8
0
10
52.70306875
20
6.67254375
30
0
0
VERTEX
8
0
10
52.29230625
20
6.502400000000001
30
0
0
SEQEND
0
POLYLINE
66
1
8
1_copper
10
0.0
20
0.0
30
0.0
70
1
0
VERTEX
8
0
10
49.307690625
20
6.502400000000001
30
0
0
VERTEX
8
0
10
48.896928125
20
6.67254375
30
0
0
VERTEX
8
0
10
48.58254375
20
6.986928125
30
0
0
VERTEX
8
0
10
48.412400000000005
20
7.397690625
30
0
0
VERTEX
8
0
10
48.412400000000005
20
7.84230625
30
0
0
VERTEX
8
0
10
48.58254375
20
8.25306875
30
0
0
VERTEX
8
0
10
48.896928125
20
8.567453125
30
0
0
VERTEX
8
0
10
49.307690625
20
8.737596875000001
30
0
0
VERTEX
8
0
10
49.752306250000004
20
8.737596875000001
30
0
0
VERTEX
8
0
10
50.16306875
20
8.567453125
30
0
0
VERTEX
8
0
10
50.477453125000004
20
8.25306875
30
0
0
VERTEX
8
0
10
50.647596875000005
20
7.84230625
30
0
0
VERTEX
8
0
10
50.647596875000005
20
7.397690625
30
0
0
VERTEX
8
0
10
50.477453125000004
20
6.986928125
30
0
0
VERTEX
8
0
10
50.16306875
20
6.67254375
30
0
0
VERTEX
8
0
10
49.752306250000004
20
6.502400000000001
30
0
0
SEQEND
0
POLYLINE
66
1
8
1_copper
10
0.0
20
0.0
30
0.0
70
1
0
VERTEX
8
0
10
46.767690625
20
6.502400000000001
30
0
0
VERTEX
8
0
10
46.356928125
20
6.67254375
30
0
0
VERTEX
8
0
10
46.04254375
20
6.986928125
30
0
0
VERTEX
8
0
10
45.8724
20
7.397690625
30
0
0
VERTEX
8
0
10
45.8724
20
7.84230625
30
0
0
VERTEX
8
0
10
46.04254375
20
8.25306875
30
0
0
VERTEX
8
0
10
46.356928125
20
8.567453125
30
0
0
VERTEX
8
0
10
46.767690625
20
8.737596875000001
30
0
0
VERTEX
8
0
10
47.212306250000005
20
8.737596875000001
30
0
0
VERTEX
8
0
10
47.62306875
20
8.567453125
30
0
0
VERTEX
8
0
10
47.937453125000005
20
8.25306875
30
0
0
VERTEX
8
0
10
48.107596875000006
20
7.84230625
30
0
0
VERTEX
8
0
10
48.107596875000006
20
7.397690625
30
0
0
VERTEX
8
0
10
47.937453125000005
20
6.986928125
30
0
0
VERTEX
8
0
10
47.62306875
20
6.67254375
30
0
0
VERTEX
8
0
10
47.212306250000005
20
6.502400000000001
30
0
0
SEQEND
0
POLYLINE
66
1
8
1_copper
10
0.0
20
0.0
30
0.0
70
1
0
VERTEX
8
0
10
44.227690625
20
6.502400000000001
30
0
0
VERTEX
8
0
10
43.816928125000004
20
6.67254375
30
0
0
VERTEX
8
0
10
43.50254375
20
6.986928125
30
0
0
VERTEX
8
0
10
43.3324
20
7.397690625
30
0
0
VERTEX
8
0
10
43.3324
20
7.84230625
30
0
0
VERTEX
8
0
10
43.50254375
20
8.25306875
30
0
0
VERTEX
8
0
10
43.816928125000004
20
8.567453125
30
0
0
VERTEX
8
0
10
44.227690625
20
8.737596875000001
30
0
0
VERTEX
8
0
10
44.672306250000005
20
8.737596875000001
30
0
0
VERTEX
8
0
10
45.08306875
20
8.567453125
30
0
0
VERTEX
8
0
10
45.397453125000006
20
8.25306875
30
0
0
VERTEX
8
0
10
45.567596875
20
7.84230625
30
0
0
VERTEX
8
0
10
45.567596875
20
7.397690625
30
0
0
VERTEX
8
0
10
45.397453125000006
20
6.986928125
30
0
0
VERTEX
8
0
10
45.08306875
20
6.67254375
30
0
0
VERTEX
8
0
10
44.672306250000005
20
6.502400000000001
30
0
0
SEQEND
0
POLYLINE
66
1
8
1_copper
10
0.0
20
0.0
30
0.0
70
1
0
VERTEX
8
0
10
21.367690625
20
6.502400000000001
30
0
0
VERTEX
8
0
10
20.956928125
20
6.67254375
30
0
0
VERTEX
8
0
10
20.64254375
20
6.986928125
30
0
0
VERTEX
8
0
10
20.4724
20
7.397690625
30
0
0
VERTEX
8
0
10
20.4724
20
7.84230625
30
0
0
VERTEX
8
0
10
20.64254375
20
8.25306875
30
0
0
VERTEX
8
0
10
20.956928125
20
8.567453125
30
0
0
VERTEX
8
0
10
21.367690625
20
8.737596875000001
30
0
0
VERTEX
8
0
10
21.812306250000002
20
8.737596875000001
30
0
0
VERTEX
8
0
10
22.22306875
20
8.567453125
30
0
0
VERTEX
8
0
10
22.537453125000003
20
8.25306875
30
0
0
VERTEX
8
0
10
22.707596875
20
7.84230625
30
0
0
VERTEX
8
0
10
22.707596875
20
7.397690625
30
0
0
VERTEX
8
0
10
22.537453125000003
20
6.986928125
30
0
0
VERTEX
8
0
10
22.22306875
20
6.67254375
30
0
0
VERTEX
8
0
10
21.812306250000002
20
6.502400000000001
30
0
0
SEQEND
0
POLYLINE
66
1
8
1_copper
10
0.0
20
0.0
30
0.0
70
1
0
VERTEX
8
0
10
18.827690625000002
20
6.502400000000001
30
0
0
VERTEX
8
0
10
18.416928125000002
20
6.67254375
30
0
0
VERTEX
8
0
10
18.102543750000002
20
6.986928125
30
0
0
VERTEX
8
0
10
17.9324
20
7.397690625
30
0
0
VERTEX
8
0
10
17.9324
20
7.84230625
30
0
0
VERTEX
8
0
10
18.102543750000002
20
8.25306875
30
0
0
VERTEX
8
0
10
18.416928125000002
20
8.567453125
30
0
0
VERTEX
8
0
10
18.827690625000002
20
8.737596875000001
30
0
0
VERTEX
8
0
10
19.27230625
20
8.737596875000001
30
0
0
VERTEX
8
0
10
19.68306875
20
8.567453125
30
0
0
VERTEX
8
0
10
19.997453125
20
8.25306875
30
0
0
VERTEX
8
0
10
20.167596875
20
7.84230625
30
0
0
VERTEX
8
0
10
20.167596875
20
7.397690625
30
0
0
VERTEX
8
0
10
19.997453125
20
6.986928125
30
0
0
VERTEX
8
0
10
19.68306875
20
6.67254375
30
0
0
VERTEX
8
0
10
19.27230625
20
6.502400000000001
30
0
0
SEQEND
0
POLYLINE
66
1
8
1_copper
10
0.0
20
0.0
30
0.0
70
1
0
VERTEX
8
0
10
16.287690625
20
6.502400000000001
30
0
0
VERTEX
8
0
10
15.876928125000001
20
6.67254375
30
0
0
VERTEX
8
0
10
15.562543750000001
20
6.986928125
30
0
0
VERTEX
8
0
10
15.3924
20
7.397690625
30
0
0
VERTEX
8
0
10
15.3924
20
7.84230625
30
0
0
VERTEX
8
0
10
15.562543750000001
20
8.25306875
30
0
0
VERTEX
8
0
10
15.876928125000001
20
8.567453125
30
0
0
VERTEX
8
0
10
16.287690625
20
8.737596875000001
30
0
0
VERTEX
8
0
10
16.73230625
20
8.737596875000001
30
0
0
VERTEX
8
0
10
17.14306875
20
8.567453125
30
0
0
VERTEX
8
0
10
17.457453125
20
8.25306875
30
0
0
VERTEX
8
0
10
17.627596875000002
20
7.84230625
30
0
0
VERTEX
8
0
10
17.627596875000002
20
7.397690625
30
0
0
VERTEX
8
0
10
17.457453125
20
6.986928125
30
0
0
VERTEX
8
0
10
17.14306875
20
6.67254375
30
0
0
VERTEX
8
0
10
16.73230625
20
6.502400000000001
30
0
0
SEQEND
0
POLYLINE
66
1
8
1_copper
10
0.0
20
0.0
30
0.0
70
1
0
VERTEX
8
0
10
1.6668
20
5.0039375
30
0
0
VERTEX
8
0
10
1.66774375
20
5.003825
30
0
42
0.7522412617563078
0
VERTEX
8
0
10
1.70483125
20
5.145475
30
0
0
VERTEX
8
0
10
1.6929500000000002
20
5.1504875000000006
30
0
0
VERTEX
8
0
10
1.68655625
20
5.15333125
30
0
42
0.003360472159850895
0
VERTEX
8
0
10
1.68556875
20
5.153603125
30
0
0
VERTEX
8
0
10
1.5350875000000002
20
5.193921875
30
0
0
VERTEX
8
0
10
1.3081
20
5.324975
30
0
0
VERTEX
8
0
10
1.30456875
20
5.3263875
30
0
0
VERTEX
8
0
10
1.301365625
20
5.328428125
30
0
42
0.45857153234275605
0
VERTEX
8
0
10
1.19666875
20
5.279690625000001
30
0
0
VERTEX
8
0
10
1.1956312500000001
20
5.272209375
30
0
0
VERTEX
8
0
10
1.19409375
20
5.265678125
30
0
42
0.021992772333951673
0
VERTEX
8
0
10
1.1938
20
5.258984375
30
0
0
VERTEX
8
0
10
1.1938
20
5.08
30
0
0
VERTEX
8
0
10
1.1946125
20
5.07438125
30
0
42
0.39258815634569955
0
VERTEX
8
0
10
1.27
20
5.0038
30
0
0
VERTEX
8
0
10
1.66585
20
5.0038
30
0
0
SEQEND
0
CIRCLE
8
drills_NPTH
10
36.83
20
90.17
30
0
40
1.6
0
CIRCLE
8
drills_NPTH
10
3.81
20
55.88
30
0
40
1.5875000000000001
0
CIRCLE
8
drills_NPTH
10
54.61
20
40.64
30
0
40
1.5875000000000001
0
CIRCLE
8
drills_NPTH
10
54.61
20
12.700000000000001
30
0
40
1.5875000000000001
0
CIRCLE
8
drills_NPTH
10
2.54
20
7.62
30
0
40
1.5875000000000001
0
CIRCLE
8
drills_PTH
10
42.18
20
67.31
30
0
40
1.4986000000000002
0
CIRCLE
8
drills_PTH
10
48.18
20
67.31
30
0
40
1.4986000000000002
0
CIRCLE
8
drills_PTH
10
45.18
20
72.01
30
0
40
1.4986000000000002
0
CIRCLE
8
drills_PTH
10
24.130000000000003
20
7.62
30
0
40
0.508
0
CIRCLE
8
drills_PTH
10
26.67
20
7.62
30
0
40
0.508
0
CIRCLE
8
drills_PTH
10
29.21
20
7.62
30
0
40
0.508
0
CIRCLE
8
drills_PTH
10
31.75
20
7.62
30
0
40
0.508
0
CIRCLE
8
drills_PTH
10
34.29
20
7.62
30
0
40
0.508
0
CIRCLE
8
drills_PTH
10
39.370000000000005
20
7.62
30
0
40
0.508
0
CIRCLE
8
drills_PTH
10
41.910000000000004
20
7.62
30
0
40
0.508
0
CIRCLE
8
drills_PTH
10
44.45
20
7.62
30
0
40
0.508
0
CIRCLE
8
drills_PTH
10
46.99
20
7.62
30
0
40
0.508
0
CIRCLE
8
drills_PTH
10
49.53
20
7.62
30
0
40
0.508
0
CIRCLE
8
drills_PTH
10
52.07
20
7.62
30
0
40
0.508
0
CIRCLE
8
drills_PTH
10
52.07
20
55.88
30
0
40
0.508
0
CIRCLE
8
drills_PTH
10
49.53
20
55.88
30
0
40
0.508
0
CIRCLE
8
drills_PTH
10
46.99
20
55.88
30
0
40
0.508
0
CIRCLE
8
drills_PTH
10
44.45
20
55.88
30
0
40
0.508
0
CIRCLE
8
drills_PTH
10
41.910000000000004
20
55.88
30
0
40
0.508
0
CIRCLE
8
drills_PTH
10
39.370000000000005
20
55.88
30
0
40
0.508
0
CIRCLE
8
drills_PTH
10
36.83
20
55.88
30
0
40
0.508
0
CIRCLE
8
drills_PTH
10
34.29
20
55.88
30
0
40
0.508
0
CIRCLE
8
drills_PTH
10
30.226000000000003
20
55.88
30
0
40
0.508
0
CIRCLE
8
drills_PTH
10
27.686
20
55.88
30
0
40
0.508
0
CIRCLE
8
drills_PTH
10
25.146
20
55.88
30
0
40
0.508
0
CIRCLE
8
drills_PTH
10
22.606
20
55.88
30
0
40
0.508
0
CIRCLE
8
drills_PTH
10
20.066000000000003
20
55.88
30
0
40
0.508
0
CIRCLE
8
drills_PTH
10
17.526
20
55.88
30
0
40
0.508
0
CIRCLE
8
drills_PTH
10
14.986
20
55.88
30
0
40
0.508
0
CIRCLE
8
drills_PTH
10
12.446
20
55.88
30
0
40
0.508
0
CIRCLE
8
drills_PTH
10
9.906
20
55.88
30
0
40
0.508
0
CIRCLE
8
drills_PTH
10
7.3660000000000005
20
55.88
30
0
40
0.508
0
CIRCLE
8
drills_PTH
10
52.21000625
20
35.5099875
30
0
40
0.508
0
CIRCLE
8
drills_PTH
10
54.750006250000006
20
35.5099875
30
0
40
0.508
0
CIRCLE
8
drills_PTH
10
52.21000625
20
32.9699875
30
0
40
0.508
0
CIRCLE
8
drills_PTH
10
54.750006250000006
20
32.9699875
30
0
40
0.508
0
CIRCLE
8
drills_PTH
10
52.21000625
20
30.429987500000003
30
0
40
0.508
0
CIRCLE
8
drills_PTH
10
54.750006250000006
20
30.429987500000003
30
0
40
0.508
0
CIRCLE
8
drills_PTH
10
19.05
20
82.677
30
0
40
0.508
0
CIRCLE
8
drills_PTH
10
16.51
20
82.423
30
0
40
0.508
0
CIRCLE
8
drills_PTH
10
13.97
20
82.677
30
0
40
0.508
0
CIRCLE
8
drills_PTH
10
11.43
20
82.423
30
0
40
0.508
0
CIRCLE
8
drills_PTH
10
8.89
20
82.677
30
0
40
0.508
0
CIRCLE
8
drills_PTH
10
6.3500000000000005
20
82.423
30
0
40
0.508
0
CIRCLE
8
drills_PTH
10
6.3500000000000005
20
72.263
30
0
40
0.508
0
CIRCLE
8
drills_PTH
10
8.89
20
72.51700000000001
30
0
40
0.508
0
CIRCLE
8
drills_PTH
10
11.43
20
72.263
30
0
40
0.508
0
CIRCLE
8
drills_PTH
10
13.97
20
72.51700000000001
30
0
40
0.508
0
CIRCLE
8
drills_PTH
10
16.51
20
72.263
30
0
40
0.508
0
CIRCLE
8
drills_PTH
10
19.05
20
72.51700000000001
30
0
40
0.508
0
CIRCLE
8
drills_PTH
10
16.51
20
7.62
30
0
40
0.508
0
CIRCLE
8
drills_PTH
10
19.05
20
7.62
30
0
40
0.508
0
CIRCLE
8
drills_PTH
10
21.59
20
7.62
30
0
40
0.508
0
CIRCLE
8
drills_PTH
10
31.75
20
86.36
30
0
40
0.5
0
CIRCLE
8
drills_PTH
10
31.75
20
88.9
30
0
40
0.5
0
CIRCLE
8
drills_PTH
10
31.75
20
91.44
30
0
40
0.5
0
CIRCLE
8
drills_PTH
10
31.75
20
93.98
30
0
40
0.5
0
CIRCLE
8
drills_PTH
10
56.515
20
88.9
30
0
40
0.5
0
CIRCLE
8
drills_PTH
10
56.515
20
91.44
30
0
40
0.5
0
CIRCLE
8
drills_PTH
10
8.89
20
90.805
30
0
40
0.5
0
CIRCLE
8
drills_PTH
10
6.3500000000000005
20
90.805
30
0
40
0.5
0
CIRCLE
8
drills_PTH
10
11.43
20
90.805
30
0
40
0.5
0
CIRCLE
8
drills_PTH
10
13.97
20
90.805
30
0
40
0.5
0
CIRCLE
8
drills_PTH
10
16.51
20
90.805
30
0
40
0.5
0
CIRCLE
8
drills_PTH
10
19.05
20
90.805
30
0
40
0.5
0
CIRCLE
8
drills_PTH
10
8.89
20
64.04
30
0
40
0.4
0
CIRCLE
8
drills_PTH
10
8.89
20
68.04
30
0
40
0.4
0
CIRCLE
8
drills_PTH
10
27.94
20
67.31
30
0
40
0.4
0
CIRCLE
8
drills_PTH
10
27.94
20
69.85000000000001
30
0
40
0.4
0
CIRCLE
8
drills_PTH
10
27.94
20
72.39
30
0
40
0.4
0
CIRCLE
8
drills_PTH
10
27.94
20
74.93
30
0
40
0.4
0
ENDSEC
0
EOF